<svg id="Layer_1" data-name="Layer 1" xmlns="http://www.w3.org/2000/svg" viewBox="0 0 70.95 66.75"><defs><style>.cls-1{fill:#757575;}</style></defs><title>cart</title><path class="cls-1" d="M17.57,43.33a14.66,14.66,0,0,1-1.49.23,4,4,0,0,1-1.45-.26.28.28,0,0,1-.19-.31c0-.17.14-.13.24-.15.66-.08,1.32-.16,2-.26a3.47,3.47,0,0,0,.61-.23c.25-.11.49-.26.74-.35.44-.15.66-.54.95-.85s.71-.78,1-1.19a8.12,8.12,0,0,0,.59-.93c.34-.62.65-1.25,1-1.86a17.41,17.41,0,0,1,1.89-2.64,2.06,2.06,0,0,1,.3-.29,3,3,0,0,0,.68-1.18,4.09,4.09,0,0,1,.92-1.43,2.1,2.1,0,0,0,.36-.52c.28-.49.53-1,.83-1.47s.76-1.15,1.17-1.7a1.31,1.31,0,0,1,1-.5.9.9,0,0,0,.43-.18,2.61,2.61,0,0,0,.89-.89,4.78,4.78,0,0,0,.28-.61c0-.07,0-.19-.08-.25a8.28,8.28,0,0,0-.7-.75,2,2,0,0,1-.66-1.44A4.7,4.7,0,0,1,29,22.08a3.15,3.15,0,0,1,1.31-1.81,3.86,3.86,0,0,1,1.47-.64,2.48,2.48,0,0,1,1.58.21,2.31,2.31,0,0,1,.77.65,3.85,3.85,0,0,0,.3.27l.47.38a1,1,0,0,0,.26.15c.14.06.29.09.43.14a.36.36,0,0,1,.27.37,2.11,2.11,0,0,0,.44,1s.08,0,.09-.07a2.8,2.8,0,0,1,1-1.15,2,2,0,0,0,.48-.83c.21-.57.41-1.15.58-1.73a4.86,4.86,0,0,0,.34-1.65A2.6,2.6,0,0,1,39.16,16a1.7,1.7,0,0,0,.29-.87,3.07,3.07,0,0,1,.2-.7c.12-.4.22-.81.34-1.21a6.18,6.18,0,0,1,.26-.76c.08-.17.26-.29.34-.46a7.86,7.86,0,0,0,.28-.86c.09-.32.2-.65.27-1a4.69,4.69,0,0,0,.2-1.42A8.43,8.43,0,0,0,40.81,7c-.13-.37-.3-.73-.44-1.1a6.65,6.65,0,0,1-.26-.75,4.61,4.61,0,0,1-.17-1A5.92,5.92,0,0,1,40.1,2.7a2.63,2.63,0,0,1,.63-1.2c.29-.3.6-.59.92-.87A3.56,3.56,0,0,1,42.84.1,5.23,5.23,0,0,1,44.26,0a1,1,0,0,1,.33.1A4.11,4.11,0,0,1,46,.72a4.31,4.31,0,0,1,.94,1,3.55,3.55,0,0,1,.58,1.6,4.79,4.79,0,0,1-.11,1.65,3.28,3.28,0,0,1-.71,1.34,6.22,6.22,0,0,1-.71.64,3.09,3.09,0,0,1-1.4.67,6,6,0,0,1-.95.09c-.31,0-.33.1-.24.41a1.66,1.66,0,0,1,.09.85,17.39,17.39,0,0,0-.55,4.19,2.75,2.75,0,0,1,0,.4c-.07.55-.14,1.09-.23,1.63,0,.14-.08.28-.1.43a2,2,0,0,1-.42.72,3,3,0,0,0-.31.76c-.16.6-.29,1.2-.46,1.79-.09.31-.23.6-.34.9a5,5,0,0,0-.16.51,12.35,12.35,0,0,1-.3,1.47,6.73,6.73,0,0,0-.18,1.42A5.7,5.7,0,0,1,40,25c-.17.39-.35.78-.5,1.19a2.76,2.76,0,0,0-.09,1.18,10.45,10.45,0,0,0,.16,1.49A10.29,10.29,0,0,0,40,30.42c.13.34.33.65.48,1A3.78,3.78,0,0,1,40.82,33c0,.54.08,1.08.09,1.63a18.74,18.74,0,0,1-.42,4.54,2.79,2.79,0,0,0-.21,1,5.85,5.85,0,0,0,.5,1.34c0,.1.21.16.33.21a2.46,2.46,0,0,1,1.22,1.14.93.93,0,0,1,0,.94c-.07.11-.12.23-.19.37.18.11.34.23.52.33l2,1a13.14,13.14,0,0,1,3.53,2.71c.3.3.6.61.91.9a.77.77,0,0,0,.37.19,3.28,3.28,0,0,1,1.34.58c.86.61,1.72,1.21,2.57,1.84s1.86,1.38,2.76,2.12,1.67,1.43,2.5,2.15,1.7,1.48,2.56,2.21c.31.26.32.25.17.64-.07.16-.07.33.11.41s.33.37.61.19c0,0,.1,0,.13,0a3,3,0,0,1,.34.25.62.62,0,0,0,.93,0,.71.71,0,0,1,.53-.25c.15,0,.31-.19.47-.3a1.78,1.78,0,0,1,.91-.5.57.57,0,0,1,.61.21c-.08.06-.16.17-.26.19a2.33,2.33,0,0,0-1.38,1c-.14.18-.25.38-.4.59l.17,0a8.63,8.63,0,0,1,1.53.07,7.58,7.58,0,0,0,2,0,1.35,1.35,0,0,0,.58-.3,2.69,2.69,0,0,1,1.51-.61.52.52,0,0,1,.25,0c.27.18.55.36.8.56s.09.23,0,.33c-.63.61-1.23,1.23-1.89,1.81a17.13,17.13,0,0,1-1.72,1.33c-.42.29-.93.48-1.36.77s-1.09.76-1.62,1.15c-.36.27-.69.55-1.05.81a.4.4,0,0,1-.68-.18,15.61,15.61,0,0,1-.76-1.6c-.13-.34-.45-.46-.61-.74s-.3-.41-.43-.62a4,4,0,0,0-.83-.9,5.42,5.42,0,0,1-.61-.66c-.37-.43-.7-.85-1.37-.83a1.3,1.3,0,0,1-.72-.38c-.86-.65-1.7-1.32-2.56-2l-.12-.06a3.21,3.21,0,0,1-1.58-.87C52,57,51.1,56.26,50.16,55.51a17.08,17.08,0,0,0-1.39-1,9.59,9.59,0,0,0-1.36-.76,6.61,6.61,0,0,0-1.31-.4c-.72-.14-1.42-.35-2.12-.55a10.33,10.33,0,0,1-1.12-.33c-.48-.19-.94-.42-1.42-.63l-1.18-.53-1-.45c-.43-.19-.86-.41-1.3-.57s-1-.31-1.5-.49-.79-.3-1.18-.47-.78-.37-1.18-.52a.7.7,0,0,0-.47,0c-.57.27-1.13.56-1.69.84L29.19,51l-1.47.73-.76.4c-.5.23-1,.46-1.5.67s-1.15.4-1.68.68-1,.67-1.54,1-1,.63-1.45.93-.7.45-1.06.66-.68.39-1,.57-.89.48-1.34.69a20.11,20.11,0,0,0-3,2A16.42,16.42,0,0,0,13,60.38a.52.52,0,0,1-.61.06.42.42,0,0,0-.52.07,2.94,2.94,0,0,1-1.18.57,1.24,1.24,0,0,0-.75.57.5.5,0,0,1-.19.19,1.29,1.29,0,0,0-.67.71,1.14,1.14,0,0,1-.78.68c-.25.07-.45.36-.64.57s-.49.61-.76.89a.86.86,0,0,1-.74.32l-1.37-.1a2,2,0,0,0-1.15.31A2,2,0,0,1,2,65.34,2.91,2.91,0,0,1,.44,64l-.3-.43a.8.8,0,0,1,.18-1.09c.12-.1.24-.22.36-.34a1.61,1.61,0,0,1,1-.42c.43-.05.87-.06,1.29-.15s.81-.26,1.21-.39c.1,0,.2,0,.3-.06.28-.08.56-.16.84-.26,0,0,.07-.1.07-.15a.69.69,0,0,1,.5-.74,1.44,1.44,0,0,1,.47,0c0-.14-.08-.29-.11-.45-.07-.34-.14-.69-.2-1s0-.47.41-.58c.07.24.15.48.22.72s.1.41.17.6.38.2.53,0,.2-.38.31-.56.24-.25.45-.11l.14.09A.42.42,0,0,0,9,58.42a.16.16,0,0,0,0-.15.32.32,0,0,1,.1-.41c.53-.52,1-1.07,1.57-1.56.81-.73,1.65-1.43,2.5-2.1a16.08,16.08,0,0,1,1.68-1.15c.69-.4,1.4-.77,2.11-1.14a16.59,16.59,0,0,1,1.87-.86A4.77,4.77,0,0,0,20,50.18a2.49,2.49,0,0,1,1.34-.54.68.68,0,0,0,.44-.25,9.77,9.77,0,0,1,1.78-2.17,16.43,16.43,0,0,1,2.91-2.41.84.84,0,0,0,.22-.27,1.43,1.43,0,0,1,1-.66,1.8,1.8,0,0,0,1.1-.8,1.77,1.77,0,0,0,.13-.82c0-.46,0-.92.08-1.38a1.35,1.35,0,0,1,1.21-1.36c.28,0,.38-.27.54-.44A.86.86,0,0,0,31,38a7.5,7.5,0,0,1-.32-1.26,1.07,1.07,0,0,0-.18-.45,1.15,1.15,0,0,1-.4-.9,1.37,1.37,0,0,0-.33-.78c-.2-.34-.43-.68-.63-1a.39.39,0,0,0-.63-.08l0,0a1.69,1.69,0,0,1-1,.81.53.53,0,0,0-.35.36,8.35,8.35,0,0,1-1.85,2.74,6,6,0,0,1-1.64,1.16,2.39,2.39,0,0,0-.86.72,8,8,0,0,0-1,1.88,3.53,3.53,0,0,0-.16.86c0,.33,0,.67,0,1a.52.52,0,0,0,.34.49,1.57,1.57,0,0,1,.45.22c.09.07.22.26.18.33a.57.57,0,0,1-.35.3,1.58,1.58,0,0,1-1.55-.59.35.35,0,0,0-.56,0,2.86,2.86,0,0,0-.52.63,1.27,1.27,0,0,1-.83.53.27.27,0,0,1-.25-.12.56.56,0,0,1,0-.36,3.89,3.89,0,0,1,.28-.52l-1.1.28a6.46,6.46,0,0,1-1.07.18c-.11,0-.28-.15-.33-.27s.08-.21.22-.26l.61-.23A.77.77,0,0,0,17.57,43.33Z"/></svg>