<svg id="Layer_1" data-name="Layer 1" xmlns="http://www.w3.org/2000/svg" viewBox="0 0 97.45 98.8"><defs><style>.cls-1{fill:#e4e4e4;}</style></defs><title>cart</title><circle class="cls-1" cx="40.05" cy="90.35" r="8.46"/><circle class="cls-1" cx="81.57" cy="90.35" r="8.46"/><path class="cls-1" d="M121.5,41.5C115,41,89.1,35.71,66.42,30.7L36.63,23.05a3.51,3.51,0,0,0-4.36,3.72,3.46,3.46,0,0,0,2.62,3.06l.1,0V30c10,5,18,30,21,39s2,11,2,16c0,2.14-.09,5.11-.2,7.8v1.4a6.6,6.6,0,0,0,6.6,6.6h57.5a4.13,4.13,0,0,0,4.18-3.65,4,4,0,0,0-3.58-4.31H70.55A6.21,6.21,0,0,1,64.26,87a6,6,0,0,1,6-6.23h53.18c2.55-1,3-2.58,3-3.26,0-1,2.5-18.5,3-26C130,44.52,130.47,42.19,121.5,41.5Z" transform="translate(-32.26 -22.94)"/></svg>