<svg id="Layer_1" data-name="Layer 1" xmlns="http://www.w3.org/2000/svg" viewBox="0 0 319.63 33.26"><defs><style>.cls-1{fill:#757575;}</style></defs><title>cart</title><path class="cls-1" d="M92.78,18.39V1.88h7.84v29.6c-2.85,0-5.67.05-8.48-.05-.43,0-.93-.66-1.26-1.11q-5.09-7-10.12-14c-.22-.31-.45-.6-.94-1.25V31.36H71.93V1.78c2.55,0,5.14,0,7.72.05.39,0,.82.64,1.14,1Q86.08,9.74,91.35,16.6C91.71,17.07,92.09,17.53,92.78,18.39Z"/><path class="cls-1" d="M49.29,32.43A16,16,0,0,1,33.42,16.62a16.11,16.11,0,0,1,32.22.29C65.53,25.48,58.14,32.5,49.29,32.43Zm.1-8.28a7.5,7.5,0,1,0,.27-15,7.5,7.5,0,1,0-.27,15Z"/><path class="cls-1" d="M144.91,1.87h23.6V9.62H153v3.22h14V20h-14v3.66h15.61v7.75H144.91Z"/><path class="cls-1" d="M263.4,12.81v7.12H249.34v3.66H265v7.8H241.36V1.88H265V9.64H249.36v3.17Z"/><path class="cls-1" d="M177.07,1.91c.52,0,1-.1,1.37-.11,4.51,0,9-.07,13.54,0,6.45.13,10.93,5.18,9.92,11-.48,2.81-2.17,4.8-4.55,6.51l6.1,12.1c-3,0-5.68,0-8.37-.05-.36,0-.83-.59-1.05-1-1.28-2.52-2.6-5-3.73-7.62-.67-1.56-1.57-2.36-3.32-2.06a12.49,12.49,0,0,1-1.95,0V31.34h-8ZM185,12.84c2.46,0,4.74.09,7-.07a2.22,2.22,0,0,0,1.53-1.45,2,2,0,0,0-1.21-1.56c-2.42-.16-4.85-.08-7.32-.08Z"/><path class="cls-1" d="M233.46,5l-4.6,5.37A40.22,40.22,0,0,0,224,8.44a12.61,12.61,0,0,0-4.33-.33A2.35,2.35,0,0,0,218,9.67a2.45,2.45,0,0,0,1.26,1.94,42.56,42.56,0,0,0,4.81,1.48,56.06,56.06,0,0,1,5.42,1.74c3.06,1.28,5.14,3.43,5.36,7a8.87,8.87,0,0,1-4,8.41c-5.92,4-18.19,2.52-23.18-2.84,1.52-1.81,3-3.63,4.64-5.52a15.71,15.71,0,0,0,8.7,3.55,12.76,12.76,0,0,0,4-.45,2,2,0,0,0,1.09-1.55,2.11,2.11,0,0,0-1-1.62c-1.54-.66-3.19-1.06-4.78-1.57-2.12-.69-4.28-1.26-6.32-2.12a7.26,7.26,0,0,1-4.76-6.64,8.84,8.84,0,0,1,4.13-8.49c3.72-2.44,7.82-2.46,12-1.72A16,16,0,0,1,233.46,5Z"/><path class="cls-1" d="M106.92,1.77c2.74,0,5.4-.06,8.06.06.45,0,1.1.74,1.27,1.26,2,6.1,3.84,12.23,5.76,18.35.19.59.43,1.17.65,1.75l.44,0c.25-.6.56-1.18.75-1.8,1.88-6,3.76-12,5.57-18.07.34-1.14.79-1.68,2.1-1.61,2.43.12,4.87,0,7.55,0-1,3-1.88,5.85-2.8,8.68C134.13,17,132,23.56,129.86,30.13a1.65,1.65,0,0,1-1.92,1.4c-3.43-.08-6.86-.05-10.29,0-.78,0-1.3-.09-1.58-1q-4.54-14.12-9.15-28.21A3,3,0,0,1,106.92,1.77Z"/><path class="cls-1" d="M30.07,25.48c-4,5.73-11.92,8.3-18.71,6.15A15.78,15.78,0,0,1,0,16.22,15.79,15.79,0,0,1,11.64,1.53c7-2,14.87.66,18.45,6.32l-6.92,4.73c-2-2.27-4.28-3.9-7.48-3.56a7.66,7.66,0,0,0-5.19,2.77,7.47,7.47,0,0,0,.93,10.54c3.3,3,7.93,2.36,11.68-1.57a5,5,0,0,1,.57.28Z"/><path class="cls-1" d="M319.63,16.64c-4.95,5.43-9.78,10.74-14.63,16a1.68,1.68,0,0,1-1.09.56c-4.5,0-9,0-14,0l15.13-16.62L289.93,0h2.22c3.7,0,7.4,0,11.1,0A2.59,2.59,0,0,1,305,.61C309.86,5.88,314.68,11.2,319.63,16.64Z"/><polygon class="cls-1" points="282.87 12.46 287.6 6.07 287.85 14.02 295.39 16.54 287.91 19.24 287.84 27.19 282.96 20.91 275.38 23.3 279.85 16.72 275.23 10.25 282.87 12.46"/></svg>