<svg id="Layer_1" data-name="Layer 1" xmlns="http://www.w3.org/2000/svg" viewBox="0 0 530.79 376.52"><title>justdoit</title><path d="M664.07,421.06V397.39h57.48v23.24H706.41v71.5H680.12V421.06Z" transform="translate(-491.78 -118.49)"/><path d="M990.06,420.94H974.82v71.17H948.73v-71H932.68V397.41h57.38Z" transform="translate(-491.78 -118.49)"/><path d="M491.83,467.78c1.32.51,2,.73,2.62,1,9.1,4,12.78,1.74,12.83-8.05.08-19.05,0-38.11,0-57.16v-6.2h26.24V404c0,20.7.06,41.41,0,62.11-.07,22.2-17.56,33.94-38.15,25.58-1.41-.57-3.34-2.17-3.4-3.37C491.66,481.66,491.83,475,491.83,467.78Z" transform="translate(-491.78 -118.49)"/><path d="M903.16,397.34h25.61v94.84H903.16Z" transform="translate(-491.78 -118.49)"/><path d="M1007.76,464.69a14.78,14.78,0,0,1,14.81,14.56,15.62,15.62,0,0,1-15.44,15.36c-8.34,0-14.7-6.6-14.65-15.21A15.07,15.07,0,0,1,1007.76,464.69Z" transform="translate(-491.78 -118.49)"/><path d="M603,397.15H576.52v6.22c0,18.16,0,36.32,0,54.48a33.49,33.49,0,0,1-.18,4.24v1.22a6.06,6.06,0,1,1-12.11,0v-2.53c-.07-1.35,0-2.75,0-4.07-.05-17.79,0-35.59,0-53.38v-6.18H538l0,1.61c0,22.6-.2,45.22.24,67.82.16,8.45,3.21,16.37,10.64,21.4,11.89,8.07,24.67,8.66,37.67,3,12.35-5.33,15.62-16.11,16.12-28.33.06-1.65.08-3.3.08-4.95q0-24.18,0-48.35Z" transform="translate(-491.78 -118.49)"/><path d="M807,429.79c-2.63-17.1-13.14-28.75-30.07-31.36-10.95-1.68-22.21-1.3-33.71-1.86v95.75c10.51,0,20.62.63,30.63-.14,17.7-1.36,27.51-10.1,32-27.45C808.79,453.2,808.76,441.49,807,429.79Zm-34.78,39.12V469h-3V423h3v.07c6.43.66,9.59,10.65,9.59,22.9S778.61,468.24,772.18,468.91Z" transform="translate(-491.78 -118.49)"/><path d="M846.62,394.46c-21.89,0-36.26,20.75-36.26,49.14S824.73,495,846.62,495s36.27-23,36.27-51.41S868.52,394.46,846.62,394.46Zm0,75.44c-6.43-.73-9.6-11.7-9.6-25.16s3.17-24.44,9.6-25.17h.09c6.43.73,9.6,11.7,9.6,25.17s-3.17,24.43-9.6,25.16Z" transform="translate(-491.78 -118.49)"/><path d="M643.29,418.84c4.17.25,8.22,2.54,13.05,4.2,0-.21,0-.43,0-.64V400.78l-4-1.46-.23-.1a42.39,42.39,0,0,0-25.4-2c-9.39,2.2-16,7.83-18.63,17.48-3.59,13.08.44,25,11.35,33.77,4.42,3.55,9,7,12.91,11.07s.84,9.69-4.63,10.72c-4.78.9-14.94-5.15-17.17-6.26a5.14,5.14,0,0,1-.75-.45l-2.57-1.82v.18h0c0,4.77,0,8.72,0,12.67v13.91l4.12,1.82c2.32,1.18,5.92,1.88,11.57,3,20,3.86,37.16-7.9,39.31-27,1.08-9.58-1.6-17.84-9.09-24.16-4.76-4-10.06-7.45-14.46-11.82C638.67,430.29,628.2,418,643.29,418.84Z" transform="translate(-491.78 -118.49)"/><path d="M592.59,118.49c-3.33,7.66-6.82,15.15-9.82,22.81A93,93,0,0,0,575.63,173a41.91,41.91,0,0,0,4.45,21.33,40.52,40.52,0,0,0,26.14,20,76.24,76.24,0,0,0,34.19,1.16c13.14-2.2,25.89-6,38.72-9.54L861.62,156l131-35.8a1.65,1.65,0,0,1,1.16,0L988,122.74,757,225.15C726.54,238.62,696,252,665.7,265.59a323.94,323.94,0,0,1-41.93,16,151.3,151.3,0,0,1-43.33,6.93,69.44,69.44,0,0,1-30.3-6.29,44.91,44.91,0,0,1-25.73-35.4,71.66,71.66,0,0,1,4.45-36.07A198.76,198.76,0,0,1,553,165.87a290.82,290.82,0,0,1,38.6-46.22Z" transform="translate(-491.78 -118.49)"/></svg>