<svg id="Layer_1" data-name="Layer 1" xmlns="http://www.w3.org/2000/svg" viewBox="0 0 1440 506.24"><title>justdoit</title><path d="M626.89,428.69V405h57.48v23.25H669.23v71.5H642.94V428.69Z"/><path d="M952.88,428.57H937.64v71.17H911.55v-71h-16V405h57.38Z"/><path d="M454.65,475.41c1.32.51,2,.73,2.63,1,9.09,4,12.77,1.74,12.82-8.05.08-19.05,0-38.11,0-57.16V405h26.24v6.65c0,20.71.06,41.41,0,62.12-.08,22.2-17.57,33.94-38.16,25.58-1.41-.58-3.34-2.17-3.4-3.38C454.48,489.29,454.65,482.58,454.65,475.41Z"/><path d="M866,405h25.6v94.84H866Z"/><path d="M970.58,472.31a14.79,14.79,0,0,1,14.81,14.57A15.61,15.61,0,0,1,970,502.24c-8.34,0-14.7-6.6-14.65-15.21A15.08,15.08,0,0,1,970.58,472.31Z"/><path d="M565.82,404.78H539.34V411c0,18.16,0,36.32,0,54.48a33.49,33.49,0,0,1-.18,4.24v1.22a6.06,6.06,0,1,1-12.11,0v-2.53c-.07-1.35,0-2.75,0-4.07,0-17.8,0-35.59,0-53.38v-6.18H500.83l0,1.6c0,22.61-.2,45.22.24,67.82.17,8.46,3.22,16.37,10.64,21.41,11.89,8.07,24.67,8.66,37.68,3.05,12.34-5.33,15.61-16.12,16.11-28.34.06-1.64.08-3.3.08-4.95q0-24.17,0-48.34Z"/><path d="M769.78,437.42c-2.63-17.1-13.13-28.75-30.07-31.36-11-1.68-22.21-1.3-33.71-1.86V500c10.51,0,20.62.63,30.63-.14,17.7-1.37,27.51-10.1,32-27.45C771.61,460.83,771.58,449.12,769.78,437.42ZM735,476.53v.07h-3V430.66h3v.06c6.43.67,9.59,10.65,9.59,22.91S741.43,475.87,735,476.53Z"/><path d="M809.45,402.09c-21.9,0-36.27,20.75-36.27,49.13s14.37,51.42,36.27,51.42,36.26-23,36.26-51.42S831.34,402.09,809.45,402.09Zm-.05,75.43c-6.43-.72-9.6-11.69-9.6-25.16s3.17-24.43,9.6-25.16h.09c6.43.73,9.6,11.7,9.6,25.16s-3.17,24.44-9.6,25.16Z"/><path d="M606.11,426.47c4.18.24,8.22,2.54,13,4.2,0-.21,0-.43,0-.65V408.41l-4-1.47-.22-.1a42.51,42.51,0,0,0-25.41-2c-9.38,2.2-16,7.83-18.63,17.49-3.59,13.07.44,25,11.35,33.77,4.42,3.55,9,7,12.91,11.06s.84,9.7-4.63,10.73c-4.78.9-14.94-5.16-17.17-6.26a5.14,5.14,0,0,1-.75-.45L570,469.33v.18h0c0,4.76,0,8.72,0,12.67v13.9l4.12,1.83c2.32,1.17,5.92,1.87,11.57,3,20,3.86,37.16-7.9,39.31-27,1.08-9.58-1.6-17.84-9.09-24.16-4.76-4-10.06-7.46-14.46-11.82C601.49,437.92,591,425.58,606.11,426.47Z"/><path d="M555.41,126.12c-3.33,7.65-6.81,15.15-9.82,22.8a93.33,93.33,0,0,0-7.14,31.75A42,42,0,0,0,542.9,202,40.45,40.45,0,0,0,569,222a76.09,76.09,0,0,0,34.19,1.17c13.14-2.21,25.89-6.06,38.72-9.54l182.49-50.07,131-35.79a1.65,1.65,0,0,1,1.16,0l-5.73,2.57L719.79,232.78c-30.43,13.46-60.93,26.81-91.27,40.44a322.44,322.44,0,0,1-41.93,16,151.32,151.32,0,0,1-43.33,6.94,69.3,69.3,0,0,1-30.3-6.3,44.9,44.9,0,0,1-25.73-35.39,71.64,71.64,0,0,1,4.45-36.07,198.55,198.55,0,0,1,24.13-44.93,290.82,290.82,0,0,1,38.6-46.22Z"/></svg>