<?xml version="1.0" encoding="utf-8"?>
<!-- Generator: Adobe Illustrator 24.0.3, SVG Export Plug-In . SVG Version: 6.00 Build 0)  -->
<svg version="1.1" id="Layer_1" xmlns="http://www.w3.org/2000/svg" xmlns:xlink="http://www.w3.org/1999/xlink" x="0px" y="0px"
	 viewBox="0 0 117.3 42.5" style="enable-background:new 0 0 117.3 42.5;" xml:space="preserve">
<style type="text/css">
	.st0{fill:#FFFFFF;}
</style>
<title>swoosh</title>
<path class="st0" d="M17.2,0c-0.8,1.9-1.7,3.8-2.4,5.7c-1.1,2.5-1.7,5.2-1.8,7.9c-0.1,1.8,0.3,3.7,1.1,5.3c1.4,2.5,3.7,4.3,6.5,5
	c2.8,0.7,5.7,0.8,8.5,0.3c3.3-0.6,6.5-1.5,9.7-2.4L84.3,9.3L117,0.4c0.1,0,0.2,0,0.3,0l-1.4,0.6L58.2,26.6
	C50.6,30,43,33.3,35.4,36.7c-3.4,1.6-6.9,2.9-10.5,4c-3.5,1.1-7.1,1.7-10.8,1.7c-2.6,0.1-5.2-0.5-7.6-1.6c-3.5-1.6-6-5-6.4-8.8
	c-0.4-3,0-6.1,1.1-9c1.5-4,3.5-7.7,6-11.2c2.8-4.2,6-8,9.6-11.5L17.2,0z"/>
</svg>
