<svg id="Layer_1" data-name="Layer 1" xmlns="http://www.w3.org/2000/svg" viewBox="0 0 117.31 42.46"><title>swoosh</title><path d="M68.88,45.18c-.83,1.91-1.7,3.78-2.45,5.69a23.22,23.22,0,0,0-1.78,7.92,10.45,10.45,0,0,0,1.11,5.32,10.1,10.1,0,0,0,6.52,5,19,19,0,0,0,8.53.29c3.28-.55,6.46-1.51,9.66-2.38L136,54.53l32.68-8.93a.41.41,0,0,1,.29,0l-1.43.64L109.89,71.79c-7.59,3.36-15.2,6.69-22.77,10.09a80.4,80.4,0,0,1-10.46,4,37.76,37.76,0,0,1-10.81,1.73,17.28,17.28,0,0,1-7.56-1.57,11.2,11.2,0,0,1-6.42-8.83,17.89,17.89,0,0,1,1.11-9A49.6,49.6,0,0,1,59,57a72.73,72.73,0,0,1,9.63-11.53Z" transform="translate(-51.69 -45.18)"/></svg>