<svg id="Layer_1" data-name="Layer 1" xmlns="http://www.w3.org/2000/svg" viewBox="0 0 400 400"><defs><style>.cls-1{fill:#fff;}</style></defs><title>textblock</title><rect width="400" height="400"/><path class="cls-1" d="M46.32,126.63v5.82H54v9.06H46.32v15.72H35.52v-40H54.6v9.42Z"/><path class="cls-1" d="M75.54,157.23c-2-5.52-4.14-11-6.12-16.62.12,1.74.18,3.54.18,5.28v11.34H58.8v-40h11a22,22,0,0,1,8.34,1.38c4.8,2,7.2,7,7.2,12,0,4.68-1.86,8-6.18,10l8,16.62Zm-5.22-21.48c2.76,0,4.32-2.52,4.32-5,0-3.24-2-4.5-5-4.5v9.54Z"/><path class="cls-1" d="M90.78,157.23v-40h20v9.42h-9.24v5.82h8.28v9.06h-8.28v6.12h9.24v9.6Z"/><path class="cls-1" d="M115.44,157.23v-40h20v9.42h-9.24v5.82h8.28v9.06h-8.28v6.12h9.24v9.6Z"/><path class="cls-1" d="M176.75,157.23l-1.56-2.17a16.21,16.21,0,0,1-8.88,2.88,12.47,12.47,0,0,1-12.65-12.35c0-4.8,2.81-8.34,6.89-10.62a13.15,13.15,0,0,1-3.11-7.86c0-6.12,5.21-10.62,11.15-10.62s12.12,4.38,12.12,10.8c0,4.62-3.12,8-6.78,10.44l3.9,5.16a34.82,34.82,0,0,0,3.72-4.62l5.52,7.32c-1.32,1.44-2.7,2.88-4.14,4.2l5.52,7.44Zm-11-14.82a3.07,3.07,0,0,0-1.86,2.94,3.16,3.16,0,0,0,3.05,3.3,4.59,4.59,0,0,0,2.76-1Zm3.65-17.7a2.19,2.19,0,0,0-2.22,2.1c0,1.5,1.08,2.88,1.92,4,1.14-1.08,2.46-2.34,2.46-4A2.18,2.18,0,0,0,169.43,124.71Z"/><path class="cls-1" d="M233,145.53c0,4-.9,6.66-4,9.3a13.49,13.49,0,0,1-9.06,3.11,15.11,15.11,0,0,1-10.14-3.47c-3.12-2.76-3.9-6.42-3.9-10.44V117.21h10.8v25.86c0,2,.06,4.74,2.76,4.74s2.76-2.7,2.76-4.74V117.21H233Z"/><path class="cls-1" d="M256.37,157.23c-2.82-7.62-5.94-15.18-8.16-23,.3,4.26.66,8.58.66,12.84v10.2H238.55v-40h10.32l5.4,14c1.26,3.3,2.28,6.72,3.3,10.08a121.36,121.36,0,0,1-1.2-14.76v-9.36h10.32v40Z"/><path class="cls-1" d="M281.63,117.21c12.24,0,18.3,8.46,18.3,20a24.85,24.85,0,0,1-2.76,12.3c-3.3,5.94-8.28,7.68-14.76,7.68H272.33v-40Zm1.5,30.36c5-.18,5.76-6.12,5.76-10,0-3.72-.78-10.32-5.76-10.32Z"/><path class="cls-1" d="M304.55,157.23v-40h20v9.42h-9.24v5.82h8.28v9.06h-8.28v6.12h9.24v9.6Z"/><path class="cls-1" d="M346,157.23c-2-5.52-4.14-11-6.12-16.62.12,1.74.18,3.54.18,5.28v11.34h-10.8v-40h11a22,22,0,0,1,8.34,1.38c4.8,2,7.2,7,7.2,12,0,4.68-1.86,8-6.18,10l8,16.62Zm-5.22-21.48c2.76,0,4.32-2.52,4.32-5,0-3.24-2-4.5-5-4.5v9.54Z"/><path class="cls-1" d="M48.24,186.13c.6-.06,1.2-.06,1.8-.06,6.9,0,11.7,5.7,11.7,12.36,0,8.52-6.84,14.51-15.18,14.51a22.36,22.36,0,0,1-11-3.11l1.32-9.48a16.69,16.69,0,0,0,8.52,2.76c2.76,0,5.58-1.38,5.58-4.5,0-3.54-3.54-4.44-6.42-4.44a18.76,18.76,0,0,0-7,1.38l3.06-23.34H60.48v9.42H49.08Z"/><path class="cls-1" d="M111.3,212.23,110.46,194c-.12-2.4-.12-4.86-.24-7.26-.24,2.58-.6,5.16-1.08,7.68l-3.36,17.82H97L93.84,193c-.36-2-.54-4.14-.72-6.24-.06,2.94,0,5.94-.18,8.88l-1,16.62H80.4l4.68-40H98.52c1.2,7.14,2.58,14.1,3.12,21.3.78-7.2,2.4-14.22,3.72-21.3h13.32l3.9,40Z"/><path class="cls-1" d="M127.38,212.23v-40h10.8v40Z"/><path class="cls-1" d="M161.58,212.23c-2.82-7.62-5.94-15.18-8.16-23,.3,4.26.66,8.58.66,12.84v10.2H143.76v-40h10.32l5.4,14c1.26,3.3,2.28,6.72,3.3,10.08a121.36,121.36,0,0,1-1.2-14.76v-9.36h10.31v40Z"/><path class="cls-1" d="M204.65,200.53c0,4-.9,6.66-4,9.3a13.46,13.46,0,0,1-9,3.11,15.11,15.11,0,0,1-10.14-3.47c-3.12-2.76-3.9-6.42-3.9-10.44V172.21h10.8v25.86c0,2,0,4.74,2.76,4.74s2.76-2.7,2.76-4.74V172.21h10.79Z"/><path class="cls-1" d="M224.15,181.81v30.42H213.36V181.81h-5.94v-9.6h22.67v9.6Z"/><path class="cls-1" d="M232.92,212.23v-40h20v9.42h-9.24v5.82H252v9.06h-8.28v6.12H253v9.6Z"/><path class="cls-1" d="M276.47,185.77c-1.38-2.1-3.66-4.38-6.36-4.38a2.63,2.63,0,0,0-2.82,2.4c0,4.08,10.32,5.16,10.32,15.6,0,7.44-5,13.55-12.72,13.55a21.17,21.17,0,0,1-8.16-1.73V198.67c1.63,2.22,4,4.38,6.84,4.38,1.56,0,3.18-.9,3.18-2.64,0-4.26-10.2-5.64-10.2-15.78,0-7,5-13.14,12.18-13.14a16.74,16.74,0,0,1,7.74,2Z"/><path class="cls-1" d="M41.24,242.49l5.58,14.28h-2.1l-1.56-4.3h-6l-1.6,4.3H33.58l5.56-14.28Zm1.32,8.38-2.38-6.66h0l-2.42,6.66Z"/><path class="cls-1" d="M49.74,242.49v14.28H48V242.49Z"/><path class="cls-1" d="M54.18,242.49v14.28h-1.7V242.49Z"/><path class="cls-1" d="M62.48,244.57v-2.08h1.7v2.08Zm1.7,1.86v10.34h-1.7V246.43Z"/><path class="cls-1" d="M71.24,246.43v1.5H69.18v6.42a1.6,1.6,0,0,0,0,.48.46.46,0,0,0,.19.28.89.89,0,0,0,.39.13,5.55,5.55,0,0,0,.65,0h.78v1.5h-1.3a6.08,6.08,0,0,1-1.13-.09,1.61,1.61,0,0,1-.76-.33,1.36,1.36,0,0,1-.43-.68,3.75,3.75,0,0,1-.14-1.16v-6.58H65.72v-1.5h1.76v-3.1h1.7v3.1Z"/><path class="cls-1" d="M83.1,246.43v1.5H81v6.42a1.6,1.6,0,0,0,0,.48.46.46,0,0,0,.19.28.89.89,0,0,0,.39.13,5.55,5.55,0,0,0,.65,0h.78v1.5H81.8a6.08,6.08,0,0,1-1.13-.09,1.61,1.61,0,0,1-.76-.33,1.36,1.36,0,0,1-.43-.68,3.75,3.75,0,0,1-.14-1.16v-6.58H77.58v-1.5h1.76v-3.1H81v3.1Z"/><path class="cls-1" d="M94.14,256.73a2.46,2.46,0,0,1-1.22.26,1.49,1.49,0,0,1-1-.37,1.61,1.61,0,0,1-.39-1.21,4.12,4.12,0,0,1-1.63,1.21,5.52,5.52,0,0,1-2,.37,5.7,5.7,0,0,1-1.33-.16,3.22,3.22,0,0,1-1.09-.5,2.45,2.45,0,0,1-.73-.89,3.51,3.51,0,0,1,0-2.77,2.5,2.5,0,0,1,.79-.91,3.41,3.41,0,0,1,1.12-.53q.63-.18,1.29-.3a11.4,11.4,0,0,1,1.33-.21,9,9,0,0,0,1.11-.2,2,2,0,0,0,.76-.38,1,1,0,0,0,.28-.73,1.66,1.66,0,0,0-.21-.9,1.42,1.42,0,0,0-.54-.52,2.22,2.22,0,0,0-.74-.24,5.73,5.73,0,0,0-.81-.06,3.53,3.53,0,0,0-1.8.41,1.74,1.74,0,0,0-.78,1.55h-1.7a3.58,3.58,0,0,1,.4-1.62,3,3,0,0,1,1-1.07,3.85,3.85,0,0,1,1.37-.59,7.19,7.19,0,0,1,1.65-.18,9.29,9.29,0,0,1,1.39.1,3.67,3.67,0,0,1,1.25.4,2.5,2.5,0,0,1,.9.87,2.87,2.87,0,0,1,.34,1.46v5.31a3.8,3.8,0,0,0,.07.88c0,.18.2.28.47.28a2.28,2.28,0,0,0,.52-.08Zm-2.76-5.3a2.31,2.31,0,0,1-.84.34,9.18,9.18,0,0,1-1.09.18l-1.15.16a4.25,4.25,0,0,0-1,.29,1.79,1.79,0,0,0-.75.57,1.53,1.53,0,0,0-.29,1,1.31,1.31,0,0,0,.17.71,1.41,1.41,0,0,0,.44.47,2,2,0,0,0,.63.26,3.69,3.69,0,0,0,.76.08,4.1,4.1,0,0,0,1.44-.23,3.3,3.3,0,0,0,1-.58,2.24,2.24,0,0,0,.56-.76,1.87,1.87,0,0,0,.18-.76Z"/><path class="cls-1" d="M97.52,242.49V251l4.72-4.52h2.28l-4.1,3.76,4.4,6.58h-2.16l-3.54-5.4-1.6,1.48v3.92h-1.7V242.49Z"/><path class="cls-1" d="M113.42,256.11a4.76,4.76,0,0,1-2.92.88,5.39,5.39,0,0,1-2.15-.4,4.22,4.22,0,0,1-1.53-1.12,4.62,4.62,0,0,1-.93-1.72,8,8,0,0,1-.35-2.18,6.2,6.2,0,0,1,.36-2.16,5,5,0,0,1,1-1.7,4.4,4.4,0,0,1,1.54-1.12,4.63,4.63,0,0,1,2-.4,4.25,4.25,0,0,1,2.29.57,4.6,4.6,0,0,1,1.46,1.45,5.76,5.76,0,0,1,.76,1.92,8.56,8.56,0,0,1,.17,2h-7.74a3.94,3.94,0,0,0,.16,1.29,3,3,0,0,0,.58,1.08,2.82,2.82,0,0,0,1,.75,3.62,3.62,0,0,0,1.46.28,3,3,0,0,0,1.77-.5,2.45,2.45,0,0,0,.91-1.52h1.68A4.17,4.17,0,0,1,113.42,256.11Zm-.41-6.64a3,3,0,0,0-.62-.93,2.93,2.93,0,0,0-.92-.62,3.14,3.14,0,0,0-2.36,0,2.56,2.56,0,0,0-.91.63,2.66,2.66,0,0,0-.6.93,3.28,3.28,0,0,0-.26,1.13h5.94A3.65,3.65,0,0,0,113,249.47Z"/><path class="cls-1" d="M118.14,254.46a1.87,1.87,0,0,0,.63.62,3,3,0,0,0,.88.33,5.49,5.49,0,0,0,1,.1,6.38,6.38,0,0,0,.84-.06,3.45,3.45,0,0,0,.81-.22,1.67,1.67,0,0,0,.61-.47,1.26,1.26,0,0,0,.24-.79,1.13,1.13,0,0,0-.5-1,4.25,4.25,0,0,0-1.25-.55c-.5-.14-1-.27-1.63-.38a9.43,9.43,0,0,1-1.63-.48,3.43,3.43,0,0,1-1.25-.87,2.25,2.25,0,0,1-.5-1.56,2.41,2.41,0,0,1,.35-1.34,2.7,2.7,0,0,1,.9-.91,3.83,3.83,0,0,1,1.24-.52,5.36,5.36,0,0,1,1.37-.17,8.26,8.26,0,0,1,1.62.15,3.71,3.71,0,0,1,1.31.52,2.67,2.67,0,0,1,.91,1,3.89,3.89,0,0,1,.4,1.57h-1.7a1.81,1.81,0,0,0-.26-.83,1.77,1.77,0,0,0-.56-.53,2.44,2.44,0,0,0-.75-.29,3.91,3.91,0,0,0-.83-.09,5.22,5.22,0,0,0-.78.06,2.59,2.59,0,0,0-.7.21,1.32,1.32,0,0,0-.52.4,1.07,1.07,0,0,0,.11,1.38,2.52,2.52,0,0,0,.79.48,8.21,8.21,0,0,0,1.08.32l1.2.27a11,11,0,0,1,1.25.34,4.18,4.18,0,0,1,1.08.53,2.63,2.63,0,0,1,.76.83,2.45,2.45,0,0,1,.29,1.24,2.91,2.91,0,0,1-.39,1.56,3.14,3.14,0,0,1-1,1,4.45,4.45,0,0,1-1.43.53,8.24,8.24,0,0,1-1.56.15,7.23,7.23,0,0,1-1.64-.18,4.09,4.09,0,0,1-1.38-.59,3.12,3.12,0,0,1-1-1.08,3.66,3.66,0,0,1-.4-1.63h1.7A1.89,1.89,0,0,0,118.14,254.46Z"/><path class="cls-1" d="M132.5,244.57v-2.08h1.7v2.08Zm1.7,1.86v10.34h-1.7V246.43Z"/><path class="cls-1" d="M138.13,254.46a1.9,1.9,0,0,0,.64.62,3,3,0,0,0,.87.33,5.69,5.69,0,0,0,1,.1,6.38,6.38,0,0,0,.84-.06,3.24,3.24,0,0,0,.8-.22,1.62,1.62,0,0,0,.62-.47,1.26,1.26,0,0,0,.24-.79,1.13,1.13,0,0,0-.5-1,4.25,4.25,0,0,0-1.25-.55c-.5-.14-1-.27-1.63-.38a9.55,9.55,0,0,1-1.64-.48,3.51,3.51,0,0,1-1.25-.87,2.3,2.3,0,0,1-.5-1.56,2.42,2.42,0,0,1,.36-1.34,2.77,2.77,0,0,1,.89-.91,4,4,0,0,1,1.24-.52,5.49,5.49,0,0,1,1.38-.17,8.26,8.26,0,0,1,1.62.15,3.79,3.79,0,0,1,1.31.52,2.75,2.75,0,0,1,.91,1,3.89,3.89,0,0,1,.4,1.57h-1.71a1.57,1.57,0,0,0-.82-1.36,2.26,2.26,0,0,0-.75-.29,3.77,3.77,0,0,0-.83-.09,5.09,5.09,0,0,0-.77.06,2.59,2.59,0,0,0-.7.21,1.43,1.43,0,0,0-.53.4,1,1,0,0,0-.19.65,1,1,0,0,0,.31.73,2.47,2.47,0,0,0,.78.48,8.37,8.37,0,0,0,1.09.32l1.2.27a11,11,0,0,1,1.25.34,4.18,4.18,0,0,1,1.08.53,2.63,2.63,0,0,1,.76.83,2.45,2.45,0,0,1,.29,1.24,2.83,2.83,0,0,1-.4,1.56,3.14,3.14,0,0,1-1,1,4.31,4.31,0,0,1-1.42.53,8.27,8.27,0,0,1-1.57.15,7.21,7.21,0,0,1-1.63-.18,4,4,0,0,1-1.38-.59,2.94,2.94,0,0,1-1-1.08,3.53,3.53,0,0,1-.4-1.63h1.7A1.89,1.89,0,0,0,138.13,254.46Z"/><path class="cls-1" d="M161.55,256.73a2.39,2.39,0,0,1-1.21.26,1.46,1.46,0,0,1-1.05-.37,1.61,1.61,0,0,1-.4-1.21,4.09,4.09,0,0,1-1.62,1.21,5.6,5.6,0,0,1-2,.37,5.7,5.7,0,0,1-1.33-.16,3.22,3.22,0,0,1-1.09-.5,2.45,2.45,0,0,1-.73-.89,3,3,0,0,1-.27-1.33,3.15,3.15,0,0,1,.29-1.44,2.62,2.62,0,0,1,.8-.91,3.36,3.36,0,0,1,1.11-.53,13,13,0,0,1,1.3-.3,11.4,11.4,0,0,1,1.33-.21,9,9,0,0,0,1.11-.2,2,2,0,0,0,.76-.38,1,1,0,0,0,.28-.73,1.66,1.66,0,0,0-.21-.9,1.49,1.49,0,0,0-.54-.52,2.22,2.22,0,0,0-.74-.24,5.73,5.73,0,0,0-.81-.06,3.57,3.57,0,0,0-1.81.41,1.73,1.73,0,0,0-.77,1.55h-1.7a3.58,3.58,0,0,1,.39-1.62,3.13,3.13,0,0,1,1-1.07,3.88,3.88,0,0,1,1.36-.59,7.35,7.35,0,0,1,1.66-.18,9.38,9.38,0,0,1,1.39.1,3.74,3.74,0,0,1,1.25.4,2.5,2.5,0,0,1,.9.87,2.87,2.87,0,0,1,.34,1.46v5.31a3.8,3.8,0,0,0,.07.88c0,.18.2.28.47.28a2.13,2.13,0,0,0,.51-.08Zm-2.76-5.3a2.19,2.19,0,0,1-.83.34,9.18,9.18,0,0,1-1.09.18l-1.16.16a4.3,4.3,0,0,0-1,.29,1.79,1.79,0,0,0-.75.57,1.53,1.53,0,0,0-.3,1,1.41,1.41,0,0,0,.17.71,1.56,1.56,0,0,0,.45.47,1.9,1.9,0,0,0,.63.26,3.67,3.67,0,0,0,.75.08,4.12,4.12,0,0,0,1.45-.23,3.24,3.24,0,0,0,1-.58,2.14,2.14,0,0,0,.57-.76,1.84,1.84,0,0,0,.17-.76Z"/><path class="cls-1" d="M170.39,242.49V248h.05a2.11,2.11,0,0,1,.56-.81,3,3,0,0,1,.8-.54,4.06,4.06,0,0,1,.95-.31,4.45,4.45,0,0,1,.95-.1,4.36,4.36,0,0,1,1.69.28,2.72,2.72,0,0,1,1.11.78,2.82,2.82,0,0,1,.58,1.19,6.08,6.08,0,0,1,.17,1.53v6.8h-1.7v-7a1.92,1.92,0,0,0-2.09-2.08,3.43,3.43,0,0,0-1.35.24,2.36,2.36,0,0,0-1,.68,2.82,2.82,0,0,0-.58,1,4.37,4.37,0,0,0-.19,1.29v5.84H168.7V242.49Z"/><path class="cls-1" d="M179.58,249.48a4.67,4.67,0,0,1,1-1.72,4.39,4.39,0,0,1,1.58-1.15,5.79,5.79,0,0,1,4.33,0,4.63,4.63,0,0,1,1.57,1.15,4.8,4.8,0,0,1,.95,1.72,7.22,7.22,0,0,1,0,4.25,4.93,4.93,0,0,1-.95,1.71,4.74,4.74,0,0,1-1.57,1.14,5.92,5.92,0,0,1-4.33,0,4.49,4.49,0,0,1-1.58-1.14,4.79,4.79,0,0,1-1-1.71,7.22,7.22,0,0,1,0-4.25Zm1.72,3.8a3.55,3.55,0,0,0,.7,1.22,3,3,0,0,0,2.28,1,3.18,3.18,0,0,0,1.25-.26,3.14,3.14,0,0,0,1-.75,3.55,3.55,0,0,0,.7-1.22,5.38,5.38,0,0,0,.25-1.67,5.29,5.29,0,0,0-.25-1.67,3.51,3.51,0,0,0-.7-1.23,2.79,2.79,0,0,0-1-.76,3,3,0,0,0-1.25-.26A2.92,2.92,0,0,0,183,248a2.74,2.74,0,0,0-1,.76,3.51,3.51,0,0,0-.7,1.23,5.29,5.29,0,0,0-.25,1.67A5.38,5.38,0,0,0,181.3,253.28Z"/><path class="cls-1" d="M195.71,246.43v1.5h-2.05v6.42a1.6,1.6,0,0,0,.05.48.49.49,0,0,0,.18.28,1,1,0,0,0,.4.13,5.55,5.55,0,0,0,.65,0h.77v1.5h-1.29a6,6,0,0,1-1.13-.09,1.61,1.61,0,0,1-.76-.33,1.36,1.36,0,0,1-.43-.68,3.75,3.75,0,0,1-.14-1.16v-6.58H190.2v-1.5H192v-3.1h1.7v3.1Z"/><path class="cls-1" d="M204.46,254.46a1.93,1.93,0,0,0,.62.62,3.2,3.2,0,0,0,.88.33,5.67,5.67,0,0,0,1,.1,6.15,6.15,0,0,0,.84-.06,3.2,3.2,0,0,0,.81-.22,1.52,1.52,0,0,0,.61-.47,1.26,1.26,0,0,0,.24-.79,1.11,1.11,0,0,0-.5-1,4.13,4.13,0,0,0-1.25-.55c-.5-.14-1-.27-1.62-.38a9.55,9.55,0,0,1-1.64-.48,3.51,3.51,0,0,1-1.25-.87,2.3,2.3,0,0,1-.5-1.56,2.5,2.5,0,0,1,.35-1.34,2.9,2.9,0,0,1,.9-.91,4,4,0,0,1,1.25-.52,5.36,5.36,0,0,1,1.37-.17,8.26,8.26,0,0,1,1.62.15,3.66,3.66,0,0,1,1.3.52,2.69,2.69,0,0,1,.92,1,3.74,3.74,0,0,1,.39,1.57h-1.69a1.81,1.81,0,0,0-.26-.83,1.7,1.7,0,0,0-.57-.53,2.26,2.26,0,0,0-.75-.29,3.77,3.77,0,0,0-.83-.09,5,5,0,0,0-.76.06,2.74,2.74,0,0,0-.72.21,1.48,1.48,0,0,0-.52.4,1,1,0,0,0-.19.65,1,1,0,0,0,.31.73,2.41,2.41,0,0,0,.79.48,7.77,7.77,0,0,0,1.08.32c.4.08.8.17,1.19.27a10,10,0,0,1,1.25.34,3.88,3.88,0,0,1,1.08.53,2.42,2.42,0,0,1,.76.83,2.35,2.35,0,0,1,.3,1.24,2.91,2.91,0,0,1-.4,1.56,3.11,3.11,0,0,1-1,1,4.39,4.39,0,0,1-1.42.53,8.51,8.51,0,0,1-1.57.15,7.32,7.32,0,0,1-1.65-.18,4,4,0,0,1-1.37-.59,3.15,3.15,0,0,1-1-1.08,3.66,3.66,0,0,1-.39-1.63h1.7A1.79,1.79,0,0,0,204.46,254.46Z"/><path class="cls-1" d="M220.47,256.11a4.72,4.72,0,0,1-2.92.88,5.46,5.46,0,0,1-2.15-.4,4.27,4.27,0,0,1-1.52-1.12,4.62,4.62,0,0,1-.93-1.72,8,8,0,0,1-.35-2.18,6,6,0,0,1,.36-2.16,5.13,5.13,0,0,1,1-1.7,4.59,4.59,0,0,1,1.54-1.12,4.71,4.71,0,0,1,2-.4,4.25,4.25,0,0,1,2.29.57,4.6,4.6,0,0,1,1.46,1.45,5.54,5.54,0,0,1,.75,1.92,7.58,7.58,0,0,1,.17,2h-7.74a4.56,4.56,0,0,0,.16,1.29,3.14,3.14,0,0,0,.58,1.08,3,3,0,0,0,1,.75,3.67,3.67,0,0,0,1.47.28,3,3,0,0,0,1.76-.5,2.37,2.37,0,0,0,.91-1.52H222A4.08,4.08,0,0,1,220.47,256.11Zm-.41-6.64a2.84,2.84,0,0,0-.61-.93,2.93,2.93,0,0,0-.92-.62,3.14,3.14,0,0,0-2.36,0,2.69,2.69,0,0,0-.92.63,3,3,0,0,0-.6.93,3.81,3.81,0,0,0-.26,1.13h5.94A3.17,3.17,0,0,0,220.06,249.47Z"/><path class="cls-1" d="M230.07,248.23a2.56,2.56,0,0,0-1.71-.54,3.17,3.17,0,0,0-1.55.34,2.68,2.68,0,0,0-1,.9,3.94,3.94,0,0,0-.53,1.29,7.43,7.43,0,0,0-.16,1.51,6,6,0,0,0,.17,1.4,4,4,0,0,0,.53,1.21,3,3,0,0,0,4.29.51A2.91,2.91,0,0,0,231,253h1.74a4.73,4.73,0,0,1-1.43,3,4.5,4.5,0,0,1-3.13,1,5.48,5.48,0,0,1-2.09-.38,4.29,4.29,0,0,1-1.52-1.08,4.92,4.92,0,0,1-.92-1.67,7.21,7.21,0,0,1-.31-2.13,7.54,7.54,0,0,1,.3-2.17,5.07,5.07,0,0,1,.91-1.76,4.25,4.25,0,0,1,1.53-1.18,5,5,0,0,1,2.14-.43,6.34,6.34,0,0,1,1.66.21,3.85,3.85,0,0,1,1.35.65,3.51,3.51,0,0,1,1,1.11,4,4,0,0,1,.47,1.59h-1.76A2.54,2.54,0,0,0,230.07,248.23Z"/><path class="cls-1" d="M244.62,246.43v1.5h-2.07v6.42a2,2,0,0,0,0,.48.56.56,0,0,0,.19.28,1,1,0,0,0,.39.13,5.79,5.79,0,0,0,.65,0h.79v1.5h-1.31a6.23,6.23,0,0,1-1.13-.09,1.71,1.71,0,0,1-.76-.33,1.51,1.51,0,0,1-.43-.68,4.08,4.08,0,0,1-.14-1.16v-6.58h-1.76v-1.5h1.76v-3.1h1.7v3.1Z"/><path class="cls-1" d="M246.25,249.48a5,5,0,0,1,1-1.72,4.57,4.57,0,0,1,1.58-1.15,5.28,5.28,0,0,1,2.17-.42,5.2,5.2,0,0,1,2.16.42,4.44,4.44,0,0,1,1.57,1.15,4.67,4.67,0,0,1,1,1.72,7.22,7.22,0,0,1,0,4.25,4.79,4.79,0,0,1-1,1.71,4.54,4.54,0,0,1-1.57,1.14A5.37,5.37,0,0,1,251,257a5.45,5.45,0,0,1-2.17-.41,4.68,4.68,0,0,1-1.58-1.14,5.12,5.12,0,0,1-1-1.71,7.22,7.22,0,0,1,0-4.25Zm1.73,3.8a3.7,3.7,0,0,0,.69,1.22,3.22,3.22,0,0,0,1,.75,3.07,3.07,0,0,0,1.25.26,3.18,3.18,0,0,0,1.25-.26,3.14,3.14,0,0,0,1-.75,3.38,3.38,0,0,0,.69-1.22,5.1,5.1,0,0,0,.25-1.67,5,5,0,0,0-.25-1.67,3.34,3.34,0,0,0-.69-1.23,2.79,2.79,0,0,0-1-.76,3,3,0,0,0-1.25-.26,2.92,2.92,0,0,0-1.25.26,2.85,2.85,0,0,0-1,.76,3.65,3.65,0,0,0-.69,1.23,5.29,5.29,0,0,0-.25,1.67A5.38,5.38,0,0,0,248,253.28Z"/><path class="cls-1" d="M265.13,246.43V248h0a3.76,3.76,0,0,1,3.34-1.76,3.72,3.72,0,0,1,1.74.4,2.21,2.21,0,0,1,1.1,1.36,3.63,3.63,0,0,1,1.37-1.3,3.84,3.84,0,0,1,1.87-.46,5.14,5.14,0,0,1,1.41.17,2.87,2.87,0,0,1,1.08.53,2.34,2.34,0,0,1,.7.93,3.32,3.32,0,0,1,.25,1.37v7.58h-1.7V250a4.31,4.31,0,0,0-.08-.9,1.84,1.84,0,0,0-.29-.73,1.52,1.52,0,0,0-.62-.49,2.4,2.4,0,0,0-1-.18,2.68,2.68,0,0,0-2,.72,2.64,2.64,0,0,0-.72,1.92v6.44h-1.7V250a4.35,4.35,0,0,0-.09-.92,1.86,1.86,0,0,0-.31-.73,1.34,1.34,0,0,0-.59-.48,2.15,2.15,0,0,0-.95-.17,2.56,2.56,0,0,0-1.27.3,2.92,2.92,0,0,0-.86.72,2.89,2.89,0,0,0-.48.87,2.47,2.47,0,0,0-.15.75v6.44h-1.7V246.43Z"/><path class="cls-1" d="M289.75,256.73a2.42,2.42,0,0,1-1.21.26,1.5,1.5,0,0,1-1.06-.37,1.61,1.61,0,0,1-.39-1.21,4.05,4.05,0,0,1-1.63,1.21,5.51,5.51,0,0,1-2,.37,5.79,5.79,0,0,1-1.34-.16,3.26,3.26,0,0,1-1.08-.5,2.47,2.47,0,0,1-.74-.89,3.63,3.63,0,0,1,0-2.77,2.7,2.7,0,0,1,.79-.91,3.51,3.51,0,0,1,1.12-.53,13,13,0,0,1,1.3-.3,11.24,11.24,0,0,1,1.32-.21,8.62,8.62,0,0,0,1.11-.2,1.93,1.93,0,0,0,.76-.38.92.92,0,0,0,.28-.73,1.66,1.66,0,0,0-.21-.9,1.42,1.42,0,0,0-.54-.52,2.15,2.15,0,0,0-.74-.24,5.52,5.52,0,0,0-.81-.06,3.53,3.53,0,0,0-1.8.41,1.74,1.74,0,0,0-.78,1.55h-1.7a3.72,3.72,0,0,1,.4-1.62,3,3,0,0,1,1-1.07,3.93,3.93,0,0,1,1.37-.59,7.32,7.32,0,0,1,1.65-.18,9.42,9.42,0,0,1,1.4.1,3.74,3.74,0,0,1,1.25.4,2.4,2.4,0,0,1,.89.87,2.77,2.77,0,0,1,.34,1.46v5.31a4.47,4.47,0,0,0,.07.88c.05.18.21.28.47.28a2.2,2.2,0,0,0,.52-.08Zm-2.76-5.3a2.17,2.17,0,0,1-.84.34,8.85,8.85,0,0,1-1.09.18l-1.15.16a4.3,4.3,0,0,0-1,.29,1.89,1.89,0,0,0-.76.57,1.59,1.59,0,0,0-.29,1,1.41,1.41,0,0,0,.17.71,1.52,1.52,0,0,0,.44.47,2,2,0,0,0,.63.26,3.77,3.77,0,0,0,.76.08,4.06,4.06,0,0,0,1.44-.23,3.18,3.18,0,0,0,1-.58,2.11,2.11,0,0,0,.56-.76,1.87,1.87,0,0,0,.18-.76Z"/><path class="cls-1" d="M293.13,242.49V251l4.72-4.52h2.28l-4.1,3.76,4.4,6.58h-2.16l-3.54-5.4-1.6,1.48v3.92h-1.7V242.49Z"/><path class="cls-1" d="M309,256.11a4.72,4.72,0,0,1-2.92.88,5.46,5.46,0,0,1-2.15-.4,4.4,4.4,0,0,1-1.53-1.12,4.92,4.92,0,0,1-.93-1.72,8.8,8.8,0,0,1-.35-2.18,6.2,6.2,0,0,1,.36-2.16,5.15,5.15,0,0,1,1-1.7,4.59,4.59,0,0,1,1.54-1.12,4.69,4.69,0,0,1,1.95-.4,4.23,4.23,0,0,1,2.29.57,4.4,4.4,0,0,1,1.46,1.45,5.56,5.56,0,0,1,.76,1.92,8,8,0,0,1,.17,2H303a4.23,4.23,0,0,0,.16,1.29,3.14,3.14,0,0,0,.58,1.08,3,3,0,0,0,1,.75,3.65,3.65,0,0,0,1.46.28,3,3,0,0,0,1.77-.5,2.41,2.41,0,0,0,.91-1.52h1.68A4.08,4.08,0,0,1,309,256.11Zm-.41-6.64a2.86,2.86,0,0,0-.62-.93,2.82,2.82,0,0,0-.92-.62,2.78,2.78,0,0,0-1.17-.23,2.87,2.87,0,0,0-1.19.23,2.75,2.75,0,0,0-.91.63,3,3,0,0,0-.6.93,3.81,3.81,0,0,0-.26,1.13h5.94A3.17,3.17,0,0,0,308.62,249.47Z"/><path class="cls-1" d="M317.77,249.48a5,5,0,0,1,1-1.72,4.57,4.57,0,0,1,1.58-1.15,5.79,5.79,0,0,1,4.33,0,4.44,4.44,0,0,1,1.57,1.15,4.67,4.67,0,0,1,1,1.72,7.22,7.22,0,0,1,0,4.25,4.79,4.79,0,0,1-1,1.71,4.54,4.54,0,0,1-1.57,1.14,5.92,5.92,0,0,1-4.33,0,4.68,4.68,0,0,1-1.58-1.14,5.12,5.12,0,0,1-1-1.71,7.22,7.22,0,0,1,0-4.25Zm1.73,3.8a3.7,3.7,0,0,0,.69,1.22,3.29,3.29,0,0,0,1,.75,3.15,3.15,0,0,0,1.25.26,3.11,3.11,0,0,0,1.25-.26,3.07,3.07,0,0,0,1-.75,3.38,3.38,0,0,0,.69-1.22,5.1,5.1,0,0,0,.25-1.67,5,5,0,0,0-.25-1.67,3.34,3.34,0,0,0-.69-1.23,2.74,2.74,0,0,0-1-.76,3,3,0,0,0-1.25-.26,3,3,0,0,0-1.25.26,2.91,2.91,0,0,0-1,.76,3.65,3.65,0,0,0-.69,1.23,5.29,5.29,0,0,0-.25,1.67A5.38,5.38,0,0,0,319.5,253.28Z"/><path class="cls-1" d="M331,246.43v2.18h0a4.66,4.66,0,0,1,1.52-1.86,3.8,3.8,0,0,1,2.28-.56V248a4.74,4.74,0,0,0-1.74.28,2.73,2.73,0,0,0-1.16.82,3.49,3.49,0,0,0-.64,1.31,7.19,7.19,0,0,0-.2,1.77v4.6h-1.7V246.43Z"/><path class="cls-1" d="M36.74,266.49v5.34h0a2.52,2.52,0,0,1,1.32-1.25,4.93,4.93,0,0,1,2-.39,4.6,4.6,0,0,1,2.09.44,4.31,4.31,0,0,1,1.48,1.19,5.25,5.25,0,0,1,.89,1.73,7,7,0,0,1,.3,2.08,7.47,7.47,0,0,1-.29,2.08,5.13,5.13,0,0,1-.88,1.71,4.32,4.32,0,0,1-1.48,1.15,4.84,4.84,0,0,1-2.07.42,5.38,5.38,0,0,1-.85-.08,4.93,4.93,0,0,1-.93-.26,3.74,3.74,0,0,1-.87-.49,2.67,2.67,0,0,1-.69-.77h0v1.38H35V266.49Zm6.11,7.61a3.88,3.88,0,0,0-.58-1.23,2.87,2.87,0,0,0-1-.86,3,3,0,0,0-1.43-.32,2.87,2.87,0,0,0-1.46.34,2.8,2.8,0,0,0-1,.89,3.46,3.46,0,0,0-.55,1.25,5.63,5.63,0,0,0-.17,1.42,6,6,0,0,0,.18,1.47,3.67,3.67,0,0,0,.57,1.25,2.85,2.85,0,0,0,1,.87,3.14,3.14,0,0,0,1.5.33,3,3,0,0,0,1.47-.34,2.83,2.83,0,0,0,1-.9,4.05,4.05,0,0,0,.52-1.28,7.29,7.29,0,0,0,.16-1.48A5.57,5.57,0,0,0,42.85,274.1Z"/><path class="cls-1" d="M48.38,270.43v2.18h0a4.58,4.58,0,0,1,1.52-1.86,3.8,3.8,0,0,1,2.28-.56V272a4.74,4.74,0,0,0-1.74.28,2.67,2.67,0,0,0-1.16.82,3.22,3.22,0,0,0-.64,1.31,6.74,6.74,0,0,0-.2,1.77v4.6h-1.7V270.43Z"/><path class="cls-1" d="M60.46,280.11a4.76,4.76,0,0,1-2.92.88,5.39,5.39,0,0,1-2.15-.4,4.22,4.22,0,0,1-1.53-1.12,4.62,4.62,0,0,1-.93-1.72,8,8,0,0,1-.35-2.18,6.2,6.2,0,0,1,.36-2.16,5,5,0,0,1,1-1.7,4.4,4.4,0,0,1,1.54-1.12,4.63,4.63,0,0,1,1.95-.4,4.25,4.25,0,0,1,2.29.57,4.6,4.6,0,0,1,1.46,1.45,5.76,5.76,0,0,1,.76,1.92,8.56,8.56,0,0,1,.17,2H54.38a3.94,3.94,0,0,0,.16,1.29,3,3,0,0,0,.58,1.08,2.82,2.82,0,0,0,1,.75,3.62,3.62,0,0,0,1.46.28,3,3,0,0,0,1.77-.5,2.45,2.45,0,0,0,.91-1.52H62A4.17,4.17,0,0,1,60.46,280.11Zm-.41-6.64a3,3,0,0,0-.62-.93,2.93,2.93,0,0,0-.92-.62,3.14,3.14,0,0,0-2.36,0,2.56,2.56,0,0,0-.91.63,2.66,2.66,0,0,0-.6.93,3.28,3.28,0,0,0-.26,1.13h5.94A3.65,3.65,0,0,0,60.05,273.47Z"/><path class="cls-1" d="M73,280.73a2.46,2.46,0,0,1-1.22.26,1.49,1.49,0,0,1-1-.37,1.61,1.61,0,0,1-.39-1.21,4.12,4.12,0,0,1-1.63,1.21,5.52,5.52,0,0,1-2,.37,5.7,5.7,0,0,1-1.33-.16,3.22,3.22,0,0,1-1.09-.5,2.45,2.45,0,0,1-.73-.89,3.51,3.51,0,0,1,0-2.77,2.5,2.5,0,0,1,.79-.91,3.41,3.41,0,0,1,1.12-.53q.63-.18,1.29-.3a11.4,11.4,0,0,1,1.33-.21,9,9,0,0,0,1.11-.2,2,2,0,0,0,.76-.38,1,1,0,0,0,.28-.73,1.66,1.66,0,0,0-.21-.9,1.42,1.42,0,0,0-.54-.52,2.22,2.22,0,0,0-.74-.24,5.73,5.73,0,0,0-.81-.06,3.53,3.53,0,0,0-1.8.41,1.74,1.74,0,0,0-.78,1.55h-1.7a3.58,3.58,0,0,1,.4-1.62,3,3,0,0,1,1-1.07,3.85,3.85,0,0,1,1.37-.59,7.19,7.19,0,0,1,1.65-.18,9.29,9.29,0,0,1,1.39.1,3.67,3.67,0,0,1,1.25.4,2.5,2.5,0,0,1,.9.87A2.87,2.87,0,0,1,72,273v5.31a3.8,3.8,0,0,0,.07.88c0,.18.2.28.47.28a2.28,2.28,0,0,0,.52-.08Zm-2.76-5.3a2.31,2.31,0,0,1-.84.34,9.18,9.18,0,0,1-1.09.18l-1.15.16a4.25,4.25,0,0,0-1,.29,1.79,1.79,0,0,0-.75.57,1.53,1.53,0,0,0-.29,1,1.31,1.31,0,0,0,.17.71,1.41,1.41,0,0,0,.44.47,2,2,0,0,0,.63.26,3.69,3.69,0,0,0,.76.08,4.1,4.1,0,0,0,1.44-.23,3.3,3.3,0,0,0,1-.58,2.24,2.24,0,0,0,.56-.76,1.87,1.87,0,0,0,.18-.76Z"/><path class="cls-1" d="M76.42,266.49V275l4.72-4.52h2.28l-4.1,3.76,4.4,6.58H81.56L78,275.37l-1.6,1.48v3.92h-1.7V266.49Z"/><path class="cls-1" d="M94.62,282.15a12.27,12.27,0,0,1-.59,1.28,3.93,3.93,0,0,1-.64.85,2.29,2.29,0,0,1-.78.48,3,3,0,0,1-1,.15c-.2,0-.4,0-.6,0a3.51,3.51,0,0,1-.58-.14v-1.56a3.37,3.37,0,0,0,.51.17,2.5,2.5,0,0,0,.49.07,1.54,1.54,0,0,0,.87-.25,1.61,1.61,0,0,0,.53-.71l.7-1.74-4.1-10.28h1.92l3,8.46h0l2.9-8.46h1.8Z"/><path class="cls-1" d="M100.32,273.48a4.67,4.67,0,0,1,1-1.72,4.39,4.39,0,0,1,1.58-1.15,5.79,5.79,0,0,1,4.33,0,4.53,4.53,0,0,1,1.57,1.15,5,5,0,0,1,1,1.72,7.22,7.22,0,0,1,0,4.25,5.12,5.12,0,0,1-1,1.71,4.64,4.64,0,0,1-1.57,1.14,5.92,5.92,0,0,1-4.33,0,4.49,4.49,0,0,1-1.58-1.14,4.79,4.79,0,0,1-1-1.71,7.22,7.22,0,0,1,0-4.25Zm1.73,3.8a3.38,3.38,0,0,0,.69,1.22,3.07,3.07,0,0,0,1,.75,3.11,3.11,0,0,0,1.25.26,3.15,3.15,0,0,0,1.25-.26,3.29,3.29,0,0,0,1-.75,3.7,3.7,0,0,0,.69-1.22,5.38,5.38,0,0,0,.25-1.67,5.29,5.29,0,0,0-.25-1.67,3.65,3.65,0,0,0-.69-1.23,2.91,2.91,0,0,0-1-.76,3,3,0,0,0-1.25-.26,3,3,0,0,0-1.25.26,2.74,2.74,0,0,0-1,.76,3.34,3.34,0,0,0-.69,1.23,5,5,0,0,0-.25,1.67A5.1,5.1,0,0,0,102.05,277.28Z"/><path class="cls-1" d="M119,280.77v-1.64h0a3.47,3.47,0,0,1-1.38,1.41,4.13,4.13,0,0,1-2,.45,4.62,4.62,0,0,1-1.7-.27,2.7,2.7,0,0,1-1.1-.77,2.9,2.9,0,0,1-.59-1.19,6.08,6.08,0,0,1-.17-1.53v-6.8h1.7v7a2,2,0,0,0,.56,1.52,2.08,2.08,0,0,0,1.54.56,3.46,3.46,0,0,0,1.35-.24,2.62,2.62,0,0,0,1-.68,3.14,3.14,0,0,0,.57-1,4.47,4.47,0,0,0,.19-1.29v-5.84h1.7v10.34Z"/><path class="cls-1" d="M124.7,270.43v2.18h0a4.58,4.58,0,0,1,1.52-1.86,3.8,3.8,0,0,1,2.28-.56V272a4.74,4.74,0,0,0-1.74.28,2.67,2.67,0,0,0-1.16.82,3.22,3.22,0,0,0-.64,1.31,6.74,6.74,0,0,0-.2,1.77v4.6h-1.7V270.43Z"/><path class="cls-1" d="M142.7,280.11a4.76,4.76,0,0,1-2.92.88,5.39,5.39,0,0,1-2.15-.4,4.22,4.22,0,0,1-1.53-1.12,4.62,4.62,0,0,1-.93-1.72,8,8,0,0,1-.35-2.18,6.2,6.2,0,0,1,.36-2.16,5,5,0,0,1,1-1.7,4.4,4.4,0,0,1,1.54-1.12,4.63,4.63,0,0,1,2-.4,4.25,4.25,0,0,1,2.29.57,4.6,4.6,0,0,1,1.46,1.45,5.76,5.76,0,0,1,.76,1.92,8.56,8.56,0,0,1,.17,2h-7.74a3.94,3.94,0,0,0,.16,1.29,3,3,0,0,0,.58,1.08,2.82,2.82,0,0,0,1,.75,3.62,3.62,0,0,0,1.46.28,3,3,0,0,0,1.77-.5,2.45,2.45,0,0,0,.91-1.52h1.68A4.17,4.17,0,0,1,142.7,280.11Zm-.41-6.64a3,3,0,0,0-.62-.93,2.93,2.93,0,0,0-.92-.62,3.14,3.14,0,0,0-2.36,0,2.56,2.56,0,0,0-.91.63,2.66,2.66,0,0,0-.6.93,3.28,3.28,0,0,0-.26,1.13h5.94A3.65,3.65,0,0,0,142.29,273.47Z"/><path class="cls-1" d="M147.72,270.43v1.64h0a3.55,3.55,0,0,1,3.36-1.88,4.45,4.45,0,0,1,1.7.28,2.69,2.69,0,0,1,1.1.78,3,3,0,0,1,.59,1.19,6.57,6.57,0,0,1,.17,1.53v6.8H153v-7a1.94,1.94,0,0,0-2.1-2.08,3.46,3.46,0,0,0-1.35.24,2.44,2.44,0,0,0-.95.68,2.66,2.66,0,0,0-.57,1,4.06,4.06,0,0,0-.19,1.29v5.84h-1.7V270.43Z"/><path class="cls-1" d="M161.66,270.43v1.5H159.6v6.42a1.6,1.6,0,0,0,.05.48.46.46,0,0,0,.19.28.89.89,0,0,0,.39.13,5.55,5.55,0,0,0,.65,0h.78v1.5h-1.3a6.08,6.08,0,0,1-1.13-.09,1.61,1.61,0,0,1-.76-.33,1.36,1.36,0,0,1-.43-.68,3.75,3.75,0,0,1-.14-1.16v-6.58h-1.76v-1.5h1.76v-3.1h1.7v3.1Z"/><path class="cls-1" d="M163.64,268.57v-2.08h1.7v2.08Zm1.7,1.86v10.34h-1.7V270.43Z"/><path class="cls-1" d="M169.52,270.43v2.18h0a4.58,4.58,0,0,1,1.52-1.86,3.8,3.8,0,0,1,2.28-.56V272a4.74,4.74,0,0,0-1.74.28,2.67,2.67,0,0,0-1.16.82,3.22,3.22,0,0,0-.64,1.31,6.74,6.74,0,0,0-.2,1.77v4.6h-1.7V270.43Z"/><path class="cls-1" d="M181.6,280.11a4.76,4.76,0,0,1-2.92.88,5.39,5.39,0,0,1-2.15-.4,4.22,4.22,0,0,1-1.53-1.12,4.62,4.62,0,0,1-.93-1.72,8,8,0,0,1-.35-2.18,6.2,6.2,0,0,1,.36-2.16,5,5,0,0,1,1-1.7,4.4,4.4,0,0,1,1.54-1.12,4.63,4.63,0,0,1,2-.4,4.25,4.25,0,0,1,2.29.57,4.6,4.6,0,0,1,1.46,1.45,5.76,5.76,0,0,1,.76,1.92,8.56,8.56,0,0,1,.17,2h-7.74a3.94,3.94,0,0,0,.16,1.29,3,3,0,0,0,.58,1.08,2.82,2.82,0,0,0,1,.75,3.62,3.62,0,0,0,1.46.28,3,3,0,0,0,1.77-.5,2.45,2.45,0,0,0,.91-1.52h1.68A4.17,4.17,0,0,1,181.6,280.11Zm-.41-6.64a3,3,0,0,0-.62-.93,2.93,2.93,0,0,0-.92-.62,3.14,3.14,0,0,0-2.36,0,2.56,2.56,0,0,0-.91.63,2.66,2.66,0,0,0-.6.93,3.28,3.28,0,0,0-.26,1.13h5.94A3.65,3.65,0,0,0,181.19,273.47Z"/><path class="cls-1" d="M198.12,280.77v-1.4h0a2.54,2.54,0,0,1-1.32,1.24,5.1,5.1,0,0,1-2,.38,4.7,4.7,0,0,1-2.09-.44,4.32,4.32,0,0,1-1.48-1.18,5.12,5.12,0,0,1-.89-1.72,7.12,7.12,0,0,1-.3-2.08,7,7,0,0,1,.29-2.08,4.63,4.63,0,0,1,.88-1.71,4.05,4.05,0,0,1,1.48-1.16,4.64,4.64,0,0,1,2.07-.43,4.51,4.51,0,0,1,.86.08,4.16,4.16,0,0,1,.92.27,3.83,3.83,0,0,1,.87.5,2.7,2.7,0,0,1,.69.77h0v-5.32h1.7v14.28ZM192,277.1a3.67,3.67,0,0,0,.58,1.23,2.88,2.88,0,0,0,1,.86,3,3,0,0,0,1.43.32,3,3,0,0,0,1.46-.34,3.1,3.1,0,0,0,1-.89A4,4,0,0,0,198,277a6.2,6.2,0,0,0,.17-1.42,5.92,5.92,0,0,0-.18-1.47,3.58,3.58,0,0,0-.57-1.25,2.94,2.94,0,0,0-1-.87,3.19,3.19,0,0,0-1.5-.33,2.87,2.87,0,0,0-1.46.34,2.59,2.59,0,0,0-1,.9,3.75,3.75,0,0,0-.52,1.28,6.58,6.58,0,0,0-.16,1.48A5.16,5.16,0,0,0,192,277.1Z"/><path class="cls-1" d="M211.6,280.73a2.46,2.46,0,0,1-1.22.26,1.49,1.49,0,0,1-1-.37,1.61,1.61,0,0,1-.39-1.21,4.12,4.12,0,0,1-1.63,1.21,5.52,5.52,0,0,1-2,.37,5.7,5.7,0,0,1-1.33-.16,3.22,3.22,0,0,1-1.09-.5,2.45,2.45,0,0,1-.73-.89,3.51,3.51,0,0,1,0-2.77,2.5,2.5,0,0,1,.79-.91,3.41,3.41,0,0,1,1.12-.53q.63-.18,1.29-.3a11.4,11.4,0,0,1,1.33-.21,9,9,0,0,0,1.11-.2,2,2,0,0,0,.76-.38,1,1,0,0,0,.28-.73,1.66,1.66,0,0,0-.21-.9,1.42,1.42,0,0,0-.54-.52,2.22,2.22,0,0,0-.74-.24,5.73,5.73,0,0,0-.81-.06,3.53,3.53,0,0,0-1.8.41,1.74,1.74,0,0,0-.78,1.55h-1.7a3.58,3.58,0,0,1,.4-1.62,3,3,0,0,1,1-1.07,3.85,3.85,0,0,1,1.37-.59,7.19,7.19,0,0,1,1.65-.18,9.29,9.29,0,0,1,1.39.1,3.67,3.67,0,0,1,1.25.4,2.5,2.5,0,0,1,.9.87,2.87,2.87,0,0,1,.34,1.46v5.31a3.8,3.8,0,0,0,.07.88c0,.18.2.28.47.28a2.28,2.28,0,0,0,.52-.08Zm-2.76-5.3a2.31,2.31,0,0,1-.84.34,9.18,9.18,0,0,1-1.09.18l-1.15.16a4.25,4.25,0,0,0-1,.29,1.79,1.79,0,0,0-.75.57,1.53,1.53,0,0,0-.29,1,1.31,1.31,0,0,0,.17.71,1.41,1.41,0,0,0,.44.47,2,2,0,0,0,.63.26,3.69,3.69,0,0,0,.76.08,4.1,4.1,0,0,0,1.44-.23,3.3,3.3,0,0,0,1-.58,2.24,2.24,0,0,0,.56-.76,1.87,1.87,0,0,0,.18-.76Z"/><path class="cls-1" d="M217.24,282.15a12.27,12.27,0,0,1-.59,1.28,3.93,3.93,0,0,1-.64.85,2.29,2.29,0,0,1-.78.48,3,3,0,0,1-1,.15c-.2,0-.4,0-.6,0a3.51,3.51,0,0,1-.58-.14v-1.56a3.37,3.37,0,0,0,.51.17,2.5,2.5,0,0,0,.49.07,1.54,1.54,0,0,0,.87-.25,1.61,1.61,0,0,0,.53-.71l.7-1.74-4.1-10.28H214l3,8.46h0l2.9-8.46h1.8Z"/><path class="cls-1" d="M224.3,278.55v2.22h-2.22v-2.22Z"/><path class="cls-1" d="M240.25,268.44a4.06,4.06,0,0,0-2.43-.69,5.76,5.76,0,0,0-1.18.12,3,3,0,0,0-1,.4,2,2,0,0,0-.72.75,2.3,2.3,0,0,0-.27,1.17,1.5,1.5,0,0,0,.39,1.07,3,3,0,0,0,1,.67,9.57,9.57,0,0,0,1.47.43c.54.11,1.1.23,1.67.37s1.12.29,1.67.47a5.61,5.61,0,0,1,1.47.73,3.42,3.42,0,0,1,1,1.16,4.07,4.07,0,0,1-.12,3.71,4.23,4.23,0,0,1-1.31,1.32,5.93,5.93,0,0,1-1.79.74,8.9,8.9,0,0,1-2,.23,8.36,8.36,0,0,1-2.27-.3,5.67,5.67,0,0,1-1.88-.91,4.34,4.34,0,0,1-1.28-1.56,5,5,0,0,1-.47-2.25h1.8a3.1,3.1,0,0,0,1.27,2.62,4,4,0,0,0,1.33.62,6.18,6.18,0,0,0,1.56.2,7.2,7.2,0,0,0,1.29-.12,4,4,0,0,0,1.17-.41,2.54,2.54,0,0,0,.84-.79,2.38,2.38,0,0,0,.32-1.28,1.77,1.77,0,0,0-.39-1.2,2.82,2.82,0,0,0-1-.75,7.46,7.46,0,0,0-1.47-.47l-1.67-.37c-.57-.13-1.13-.28-1.67-.44a6.19,6.19,0,0,1-1.47-.66,3.19,3.19,0,0,1-1-1.06,3.15,3.15,0,0,1-.39-1.63,3.7,3.7,0,0,1,.44-1.87,3.75,3.75,0,0,1,1.17-1.3,5,5,0,0,1,1.66-.76,7.15,7.15,0,0,1,1.91-.25,7.4,7.4,0,0,1,2,.26,4.57,4.57,0,0,1,1.65.82,4,4,0,0,1,1.12,1.41,5.11,5.11,0,0,1,.45,2h-1.8A3,3,0,0,0,240.25,268.44Z"/><path class="cls-1" d="M245.54,273.48a4.67,4.67,0,0,1,1-1.72,4.39,4.39,0,0,1,1.58-1.15,5.79,5.79,0,0,1,4.33,0,4.53,4.53,0,0,1,1.57,1.15,5,5,0,0,1,1,1.72,7.22,7.22,0,0,1,0,4.25,5.12,5.12,0,0,1-1,1.71,4.64,4.64,0,0,1-1.57,1.14,5.92,5.92,0,0,1-4.33,0,4.49,4.49,0,0,1-1.58-1.14,4.79,4.79,0,0,1-1-1.71,7.22,7.22,0,0,1,0-4.25Zm1.73,3.8a3.38,3.38,0,0,0,.69,1.22,3.07,3.07,0,0,0,1,.75,3.11,3.11,0,0,0,1.25.26,3.15,3.15,0,0,0,1.25-.26,3.29,3.29,0,0,0,1-.75,3.7,3.7,0,0,0,.69-1.22,5.38,5.38,0,0,0,.25-1.67,5.29,5.29,0,0,0-.25-1.67,3.65,3.65,0,0,0-.69-1.23,2.91,2.91,0,0,0-1-.76,3,3,0,0,0-1.25-.26A3,3,0,0,0,249,272a2.74,2.74,0,0,0-1,.76,3.34,3.34,0,0,0-.69,1.23,5,5,0,0,0-.25,1.67A5.1,5.1,0,0,0,247.27,277.28Z"/><path class="cls-1" d="M264.42,270.43V272h0a4,4,0,0,1,5.08-1.36,2.24,2.24,0,0,1,1.1,1.36,3.49,3.49,0,0,1,1.37-1.3,3.81,3.81,0,0,1,1.87-.46,5.14,5.14,0,0,1,1.41.17,2.87,2.87,0,0,1,1.08.53,2.44,2.44,0,0,1,.7.93,3.49,3.49,0,0,1,.25,1.37v7.58h-1.7V274a5.11,5.11,0,0,0-.08-.9,2,2,0,0,0-.3-.73,1.49,1.49,0,0,0-.61-.49,2.44,2.44,0,0,0-1-.18,2.68,2.68,0,0,0-2,.72,2.59,2.59,0,0,0-.72,1.92v6.44h-1.7V274a4.35,4.35,0,0,0-.09-.92,2,2,0,0,0-.31-.73,1.46,1.46,0,0,0-.59-.48,2.21,2.21,0,0,0-1-.17,2.51,2.51,0,0,0-1.27.3,2.8,2.8,0,0,0-.86.72,2.89,2.89,0,0,0-.48.87,2.47,2.47,0,0,0-.15.75v6.44h-1.7V270.43Z"/><path class="cls-1" d="M289,280.73a2.46,2.46,0,0,1-1.22.26,1.49,1.49,0,0,1-1.05-.37,1.61,1.61,0,0,1-.39-1.21,4.12,4.12,0,0,1-1.63,1.21,5.52,5.52,0,0,1-2,.37,5.7,5.7,0,0,1-1.33-.16,3.22,3.22,0,0,1-1.09-.5,2.45,2.45,0,0,1-.73-.89,3.51,3.51,0,0,1,0-2.77,2.5,2.5,0,0,1,.79-.91,3.41,3.41,0,0,1,1.12-.53q.63-.18,1.29-.3a11.4,11.4,0,0,1,1.33-.21,9,9,0,0,0,1.11-.2,2,2,0,0,0,.76-.38,1,1,0,0,0,.28-.73,1.66,1.66,0,0,0-.21-.9,1.42,1.42,0,0,0-.54-.52,2.22,2.22,0,0,0-.74-.24,5.73,5.73,0,0,0-.81-.06,3.53,3.53,0,0,0-1.8.41,1.74,1.74,0,0,0-.78,1.55h-1.7a3.58,3.58,0,0,1,.4-1.62,3,3,0,0,1,1-1.07,3.85,3.85,0,0,1,1.37-.59,7.19,7.19,0,0,1,1.65-.18,9.29,9.29,0,0,1,1.39.1,3.67,3.67,0,0,1,1.25.4,2.5,2.5,0,0,1,.9.87A2.87,2.87,0,0,1,288,273v5.31a3.8,3.8,0,0,0,.07.88c0,.18.2.28.47.28a2.28,2.28,0,0,0,.52-.08Zm-2.76-5.3a2.31,2.31,0,0,1-.84.34,9.18,9.18,0,0,1-1.09.18l-1.15.16a4.25,4.25,0,0,0-1,.29,1.79,1.79,0,0,0-.75.57,1.53,1.53,0,0,0-.29,1,1.31,1.31,0,0,0,.17.71,1.41,1.41,0,0,0,.44.47,2,2,0,0,0,.63.26,3.69,3.69,0,0,0,.76.08,4.1,4.1,0,0,0,1.44-.23,3.3,3.3,0,0,0,1-.58,2.24,2.24,0,0,0,.56-.76,1.87,1.87,0,0,0,.18-.76Z"/><path class="cls-1" d="M292.42,266.49V275l4.72-4.52h2.28l-4.1,3.76,4.4,6.58h-2.16l-3.54-5.4-1.6,1.48v3.92h-1.7V266.49Z"/><path class="cls-1" d="M308.32,280.11a4.76,4.76,0,0,1-2.92.88,5.39,5.39,0,0,1-2.15-.4,4.22,4.22,0,0,1-1.53-1.12,4.62,4.62,0,0,1-.93-1.72,8,8,0,0,1-.35-2.18,6.2,6.2,0,0,1,.36-2.16,5,5,0,0,1,1-1.7,4.4,4.4,0,0,1,1.54-1.12,4.63,4.63,0,0,1,1.95-.4,4.25,4.25,0,0,1,2.29.57,4.6,4.6,0,0,1,1.46,1.45,5.76,5.76,0,0,1,.76,1.92,8.56,8.56,0,0,1,.17,2h-7.74a3.94,3.94,0,0,0,.16,1.29,3,3,0,0,0,.58,1.08,2.82,2.82,0,0,0,1,.75,3.62,3.62,0,0,0,1.46.28,3,3,0,0,0,1.77-.5,2.45,2.45,0,0,0,.91-1.52h1.68A4.17,4.17,0,0,1,308.32,280.11Zm-.41-6.64a3,3,0,0,0-.62-.93,2.93,2.93,0,0,0-.92-.62,3.14,3.14,0,0,0-2.36,0,2.56,2.56,0,0,0-.91.63,2.66,2.66,0,0,0-.6.93,3.28,3.28,0,0,0-.26,1.13h5.94A3.65,3.65,0,0,0,307.91,273.47Z"/><path class="cls-1" d="M317.4,268.57v-2.08h1.7v2.08Zm1.7,1.86v10.34h-1.7V270.43Z"/><path class="cls-1" d="M326.16,270.43v1.5H324.1v6.42a1.6,1.6,0,0,0,0,.48.46.46,0,0,0,.19.28.89.89,0,0,0,.39.13,5.55,5.55,0,0,0,.65,0h.78v1.5h-1.3a6.08,6.08,0,0,1-1.13-.09,1.7,1.7,0,0,1-.77-.33,1.41,1.41,0,0,1-.42-.68,3.75,3.75,0,0,1-.14-1.16v-6.58h-1.76v-1.5h1.76v-3.1h1.7v3.1Z"/><path class="cls-1" d="M330.63,278.55v2.22h-2.21v-2.22Z"/></svg>