<svg id="Layer_1" data-name="Layer 1" xmlns="http://www.w3.org/2000/svg" viewBox="0 0 400 400"><defs><style>.cls-1{fill:#fff;}</style></defs><title>textblock</title><rect width="400" height="400"/><path class="cls-1" d="M48.06,117.21a16.9,16.9,0,0,1,8.58,1.8,10.84,10.84,0,0,1,5.28,9.54c0,4.86-2.58,7.74-7.44,8.16,5.34.66,8.22,3.6,8.22,9.06,0,7.08-5.16,11.46-12.06,11.46H35.52v-40Zm-1.74,15.54a2.46,2.46,0,0,0,.66.06c2.22,0,4.26-1,4.26-3.48s-1.62-3.48-3.84-3.48a6.52,6.52,0,0,0-1.08.06Zm0,15.78a4.54,4.54,0,0,0,.9.06c2.46,0,4.44-1.26,4.44-3.9s-2-3.84-4.5-3.84c-.3,0-.54.06-.84.06Z"/><path class="cls-1" d="M94.44,145.53c0,4-.9,6.66-4,9.3a13.49,13.49,0,0,1-9.06,3.11,15.11,15.11,0,0,1-10.14-3.47c-3.12-2.76-3.9-6.42-3.9-10.44V117.21h10.8v25.86c0,2,.06,4.74,2.76,4.74s2.76-2.7,2.76-4.74V117.21h10.8Z"/><path class="cls-1" d="M100,157.23v-40h10.8v40Z"/><path class="cls-1" d="M116.4,157.23v-40h10.8v30.42h8.1v9.6Z"/><path class="cls-1" d="M147.84,117.21c12.24,0,18.3,8.46,18.3,20a24.85,24.85,0,0,1-2.76,12.3c-3.3,5.94-8.28,7.68-14.76,7.68H138.54v-40Zm1.5,30.36c5-.18,5.76-6.12,5.76-10,0-3.72-.78-10.32-5.76-10.32Z"/><path class="cls-1" d="M202.67,140.31v16.92h-10.8V140.31l-10-23.1h11.28c1.32,4.08,2.76,8.16,3.78,12.36,1.14-4.14,2.4-8.28,3.78-12.36h11.16Z"/><path class="cls-1" d="M227.45,157.94a14.36,14.36,0,0,1-10.92-5.33c-3.48-4.2-4.5-10.5-4.5-15.78,0-9.42,4.38-20.34,15.36-20.34s15.06,11,15.06,20.34S238.67,157.94,227.45,157.94Zm-.12-31.37c-3.72,0-4.08,8-4.08,10.62s.24,10.62,4,10.62,4-8,4-10.56S231.05,126.57,227.33,126.57Z"/><path class="cls-1" d="M274.19,145.53c0,4-.9,6.66-4,9.3a13.49,13.49,0,0,1-9.06,3.11A15.11,15.11,0,0,1,251,154.47c-3.12-2.76-3.9-6.42-3.9-10.44V117.21h10.8v25.86c0,2,.06,4.74,2.76,4.74s2.76-2.7,2.76-4.74V117.21h10.8Z"/><path class="cls-1" d="M296.51,157.23c-2-5.52-4.14-11-6.12-16.62.12,1.74.18,3.54.18,5.28v11.34h-10.8v-40h11a22,22,0,0,1,8.34,1.38c4.8,2,7.2,7,7.2,12,0,4.68-1.86,8-6.18,10l8,16.62Zm-5.22-21.48c2.76,0,4.32-2.52,4.32-5,0-3.24-2-4.5-5-4.5v9.54Z"/><path class="cls-1" d="M48.06,172.21a16.9,16.9,0,0,1,8.58,1.8,10.84,10.84,0,0,1,5.28,9.54c0,4.86-2.58,7.74-7.44,8.16,5.34.66,8.22,3.6,8.22,9.06,0,7.08-5.16,11.46-12.06,11.46H35.52v-40Zm-1.74,15.54a2.46,2.46,0,0,0,.66.06c2.22,0,4.26-1,4.26-3.48s-1.62-3.48-3.84-3.48a6.52,6.52,0,0,0-1.08.06Zm0,15.78a4.54,4.54,0,0,0,.9.06c2.46,0,4.44-1.26,4.44-3.9s-2-3.84-4.5-3.84c-.3,0-.54.06-.84.06Z"/><path class="cls-1" d="M67.32,212.23v-40h20v9.42H78.12v5.82H86.4v9.06H78.12v6.12h9.24v9.6Z"/><path class="cls-1" d="M110.88,185.77c-1.38-2.1-3.66-4.38-6.36-4.38a2.63,2.63,0,0,0-2.82,2.4c0,4.08,10.32,5.16,10.32,15.6,0,7.44-5,13.55-12.72,13.55a21.17,21.17,0,0,1-8.16-1.73V198.67c1.62,2.22,4,4.38,6.84,4.38,1.56,0,3.18-.9,3.18-2.64,0-4.26-10.2-5.64-10.2-15.78,0-7,5-13.14,12.18-13.14a16.74,16.74,0,0,1,7.74,2Z"/><path class="cls-1" d="M132,181.81v30.42H121.2V181.81h-5.94v-9.6h22.68v9.6Z"/><path class="cls-1" d="M168.65,181.81v30.42h-10.8V181.81h-5.93v-9.6h22.67v9.6Z"/><path class="cls-1" d="M177.41,212.23v-40h20v9.42h-9.24v5.82h8.28v9.06h-8.28v6.12h9.24v9.6Z"/><path class="cls-1" d="M219.71,212.23l-.84-5.1h-7.26l-.9,5.1H199.55l9.66-40h13.2l8.46,40Zm-2.1-13.62c-.84-5.58-1.56-11.16-2-16.8-.24,1.86-.42,3.78-.66,5.64-.54,3.72-1.14,7.44-1.86,11.16Z"/><path class="cls-1" d="M263.87,212.23,263,194c-.12-2.4-.12-4.86-.24-7.26-.24,2.58-.6,5.16-1.08,7.68l-3.36,17.82h-8.82L246.41,193c-.36-2-.54-4.14-.72-6.24-.06,2.94,0,5.94-.18,8.88l-1,16.62H233l4.68-40h13.44c1.2,7.14,2.58,14.1,3.12,21.3.78-7.2,2.4-14.22,3.72-21.3h13.32l3.9,40Z"/><path class="cls-1" d="M42.41,244.44a4.06,4.06,0,0,0-2.43-.69,5.76,5.76,0,0,0-1.18.12,3,3,0,0,0-1,.4,2,2,0,0,0-.72.75,2.3,2.3,0,0,0-.27,1.17,1.5,1.5,0,0,0,.39,1.07,3,3,0,0,0,1,.67,9.57,9.57,0,0,0,1.47.43c.54.11,1.1.23,1.67.37s1.12.29,1.67.47a5.61,5.61,0,0,1,1.47.73,3.42,3.42,0,0,1,1,1.16,4.07,4.07,0,0,1-.12,3.71,4.23,4.23,0,0,1-1.31,1.32,5.93,5.93,0,0,1-1.79.74,8.9,8.9,0,0,1-2,.23,8.36,8.36,0,0,1-2.27-.3,5.67,5.67,0,0,1-1.88-.91,4.34,4.34,0,0,1-1.28-1.56,5,5,0,0,1-.47-2.25h1.8a3.1,3.1,0,0,0,1.27,2.62,4,4,0,0,0,1.33.62,6.18,6.18,0,0,0,1.56.2,7.2,7.2,0,0,0,1.29-.12,4,4,0,0,0,1.17-.41,2.54,2.54,0,0,0,.84-.79,2.38,2.38,0,0,0,.32-1.28,1.77,1.77,0,0,0-.39-1.2,2.82,2.82,0,0,0-1-.75,7.46,7.46,0,0,0-1.47-.47l-1.67-.37c-.57-.13-1.13-.28-1.67-.44a6.19,6.19,0,0,1-1.47-.66,3.19,3.19,0,0,1-1-1.06,3.15,3.15,0,0,1-.39-1.63,3.7,3.7,0,0,1,.44-1.87,3.75,3.75,0,0,1,1.17-1.3,5,5,0,0,1,1.66-.76,7.15,7.15,0,0,1,1.91-.25,7.4,7.4,0,0,1,2,.26,4.57,4.57,0,0,1,1.65.82,4,4,0,0,1,1.12,1.41,5.11,5.11,0,0,1,.45,2h-1.8A3,3,0,0,0,42.41,244.44Z"/><path class="cls-1" d="M54.9,256.77v-1.64h0a3.47,3.47,0,0,1-1.38,1.41,4.13,4.13,0,0,1-2,.45,4.62,4.62,0,0,1-1.7-.27,2.7,2.7,0,0,1-1.1-.77,2.9,2.9,0,0,1-.59-1.19,6.08,6.08,0,0,1-.17-1.53v-6.8h1.7v7A2,2,0,0,0,50.2,255a2.08,2.08,0,0,0,1.54.56,3.46,3.46,0,0,0,1.35-.24,2.62,2.62,0,0,0,.95-.68,3.14,3.14,0,0,0,.57-1,4.47,4.47,0,0,0,.19-1.29v-5.84h1.7v10.34Z"/><path class="cls-1" d="M60.6,246.43v2.18h0a4.58,4.58,0,0,1,1.52-1.86,3.8,3.8,0,0,1,2.28-.56V248a4.74,4.74,0,0,0-1.74.28,2.67,2.67,0,0,0-1.16.82,3.22,3.22,0,0,0-.64,1.31,6.74,6.74,0,0,0-.2,1.77v4.6H59V246.43Z"/><path class="cls-1" d="M67.26,246.43v2.18h0a4.58,4.58,0,0,1,1.52-1.86,3.8,3.8,0,0,1,2.28-.56V248a4.74,4.74,0,0,0-1.74.28,2.67,2.67,0,0,0-1.16.82,3.22,3.22,0,0,0-.64,1.31,6.74,6.74,0,0,0-.2,1.77v4.6h-1.7V246.43Z"/><path class="cls-1" d="M71.78,249.48a4.67,4.67,0,0,1,1-1.72,4.39,4.39,0,0,1,1.58-1.15,5.79,5.79,0,0,1,4.33,0,4.53,4.53,0,0,1,1.57,1.15,5,5,0,0,1,1,1.72,7.22,7.22,0,0,1,0,4.25,5.12,5.12,0,0,1-1,1.71,4.64,4.64,0,0,1-1.57,1.14,5.92,5.92,0,0,1-4.33,0,4.49,4.49,0,0,1-1.58-1.14,4.79,4.79,0,0,1-1-1.71,7.22,7.22,0,0,1,0-4.25Zm1.73,3.8a3.38,3.38,0,0,0,.69,1.22,3.07,3.07,0,0,0,1,.75,3.11,3.11,0,0,0,1.25.26,3.15,3.15,0,0,0,1.25-.26,3.29,3.29,0,0,0,1-.75,3.7,3.7,0,0,0,.69-1.22,5.38,5.38,0,0,0,.25-1.67,5.29,5.29,0,0,0-.25-1.67,3.65,3.65,0,0,0-.69-1.23,2.91,2.91,0,0,0-1-.76,3,3,0,0,0-1.25-.26,3,3,0,0,0-1.25.26,2.74,2.74,0,0,0-1,.76,3.34,3.34,0,0,0-.69,1.23,5,5,0,0,0-.25,1.67A5.1,5.1,0,0,0,73.51,253.28Z"/><path class="cls-1" d="M90.46,256.77v-1.64h0A3.47,3.47,0,0,1,89,256.54a4.13,4.13,0,0,1-2,.45,4.62,4.62,0,0,1-1.7-.27,2.7,2.7,0,0,1-1.1-.77,2.9,2.9,0,0,1-.59-1.19,6.08,6.08,0,0,1-.17-1.53v-6.8h1.7v7a2,2,0,0,0,.56,1.52,2.08,2.08,0,0,0,1.54.56,3.46,3.46,0,0,0,1.35-.24,2.62,2.62,0,0,0,.95-.68,3.14,3.14,0,0,0,.57-1,4.47,4.47,0,0,0,.19-1.29v-5.84h1.7v10.34Z"/><path class="cls-1" d="M96.22,246.43v1.64h0a3.55,3.55,0,0,1,3.36-1.88,4.45,4.45,0,0,1,1.7.28,2.69,2.69,0,0,1,1.1.78,3,3,0,0,1,.59,1.19,6.57,6.57,0,0,1,.17,1.53v6.8h-1.7v-7a1.94,1.94,0,0,0-2.1-2.08,3.46,3.46,0,0,0-1.35.24,2.44,2.44,0,0,0-1,.68,2.66,2.66,0,0,0-.57,1,4.06,4.06,0,0,0-.19,1.29v5.84h-1.7V246.43Z"/><path class="cls-1" d="M113.28,256.77v-1.4h0a2.54,2.54,0,0,1-1.32,1.24,5.1,5.1,0,0,1-2,.38,4.7,4.7,0,0,1-2.09-.44,4.32,4.32,0,0,1-1.48-1.18,5.12,5.12,0,0,1-.89-1.72,7.12,7.12,0,0,1-.3-2.08,7,7,0,0,1,.29-2.08,4.63,4.63,0,0,1,.88-1.71,4.05,4.05,0,0,1,1.48-1.16,4.64,4.64,0,0,1,2.07-.43,4.51,4.51,0,0,1,.86.08,4.16,4.16,0,0,1,.92.27,3.83,3.83,0,0,1,.87.5,2.7,2.7,0,0,1,.69.77h0v-5.32H115v14.28Zm-6.11-3.67a3.67,3.67,0,0,0,.58,1.23,2.88,2.88,0,0,0,1,.86,3,3,0,0,0,1.43.32,3,3,0,0,0,1.46-.34,3.1,3.1,0,0,0,1-.89,4,4,0,0,0,.55-1.25,6.2,6.2,0,0,0,.17-1.42,5.92,5.92,0,0,0-.18-1.47,3.58,3.58,0,0,0-.57-1.25,2.94,2.94,0,0,0-1-.87,3.19,3.19,0,0,0-1.5-.33,2.87,2.87,0,0,0-1.46.34,2.59,2.59,0,0,0-1,.9,3.75,3.75,0,0,0-.52,1.28,6.58,6.58,0,0,0-.16,1.48A5.16,5.16,0,0,0,107.17,253.1Z"/><path class="cls-1" d="M127.22,258.15a12.27,12.27,0,0,1-.59,1.28,3.93,3.93,0,0,1-.64.85,2.29,2.29,0,0,1-.78.48,3,3,0,0,1-1,.15c-.2,0-.4,0-.6,0a3.51,3.51,0,0,1-.58-.14v-1.56a3.37,3.37,0,0,0,.51.17,2.5,2.5,0,0,0,.49.07,1.54,1.54,0,0,0,.87-.25,1.61,1.61,0,0,0,.53-.71l.7-1.74L122,246.43H124l3,8.46h0l2.9-8.46h1.8Z"/><path class="cls-1" d="M132.92,249.48a4.67,4.67,0,0,1,1-1.72,4.39,4.39,0,0,1,1.58-1.15,5.79,5.79,0,0,1,4.33,0,4.53,4.53,0,0,1,1.57,1.15,5,5,0,0,1,1,1.72,7.22,7.22,0,0,1,0,4.25,5.12,5.12,0,0,1-1,1.71,4.64,4.64,0,0,1-1.57,1.14,5.92,5.92,0,0,1-4.33,0,4.49,4.49,0,0,1-1.58-1.14,4.79,4.79,0,0,1-1-1.71,7.22,7.22,0,0,1,0-4.25Zm1.73,3.8a3.38,3.38,0,0,0,.69,1.22,3.07,3.07,0,0,0,1,.75,3.11,3.11,0,0,0,1.25.26,3.15,3.15,0,0,0,1.25-.26,3.29,3.29,0,0,0,1-.75,3.7,3.7,0,0,0,.69-1.22,5.38,5.38,0,0,0,.25-1.67,5.29,5.29,0,0,0-.25-1.67,3.65,3.65,0,0,0-.69-1.23,2.91,2.91,0,0,0-1-.76,3,3,0,0,0-1.25-.26,3,3,0,0,0-1.25.26,2.74,2.74,0,0,0-1,.76,3.34,3.34,0,0,0-.69,1.23,5,5,0,0,0-.25,1.67A5.1,5.1,0,0,0,134.65,253.28Z"/><path class="cls-1" d="M151.6,256.77v-1.64h0a3.47,3.47,0,0,1-1.38,1.41,4.13,4.13,0,0,1-2,.45,4.62,4.62,0,0,1-1.7-.27,2.7,2.7,0,0,1-1.1-.77,2.9,2.9,0,0,1-.59-1.19,6.08,6.08,0,0,1-.17-1.53v-6.8h1.7v7a2,2,0,0,0,.56,1.52,2.08,2.08,0,0,0,1.54.56,3.46,3.46,0,0,0,1.35-.24,2.62,2.62,0,0,0,1-.68,3.14,3.14,0,0,0,.57-1,4.47,4.47,0,0,0,.19-1.29v-5.84h1.7v10.34Z"/><path class="cls-1" d="M157.3,246.43v2.18h0a4.58,4.58,0,0,1,1.52-1.86,3.8,3.8,0,0,1,2.28-.56V248a4.74,4.74,0,0,0-1.74.28,2.67,2.67,0,0,0-1.16.82,3.22,3.22,0,0,0-.64,1.31,6.74,6.74,0,0,0-.2,1.77v4.6h-1.7V246.43Z"/><path class="cls-1" d="M163.72,254.46a1.87,1.87,0,0,0,.63.62,3,3,0,0,0,.88.33,5.49,5.49,0,0,0,1,.1,6.38,6.38,0,0,0,.84-.06,3.45,3.45,0,0,0,.81-.22,1.67,1.67,0,0,0,.61-.47,1.26,1.26,0,0,0,.24-.79,1.13,1.13,0,0,0-.5-1,4.25,4.25,0,0,0-1.25-.55c-.5-.14-1.05-.27-1.63-.38a9.43,9.43,0,0,1-1.63-.48,3.43,3.43,0,0,1-1.25-.87,2.25,2.25,0,0,1-.5-1.56,2.41,2.41,0,0,1,.35-1.34,2.7,2.7,0,0,1,.9-.91,3.83,3.83,0,0,1,1.24-.52,5.36,5.36,0,0,1,1.37-.17,8.26,8.26,0,0,1,1.62.15,3.71,3.71,0,0,1,1.31.52,2.67,2.67,0,0,1,.91,1,3.89,3.89,0,0,1,.4,1.57h-1.7a1.81,1.81,0,0,0-.26-.83,1.77,1.77,0,0,0-.56-.53,2.44,2.44,0,0,0-.75-.29,3.91,3.91,0,0,0-.83-.09,5,5,0,0,0-.77.06,2.56,2.56,0,0,0-.71.21,1.32,1.32,0,0,0-.52.4,1.07,1.07,0,0,0,.11,1.38,2.52,2.52,0,0,0,.79.48,8.21,8.21,0,0,0,1.08.32l1.2.27a11,11,0,0,1,1.25.34,4.18,4.18,0,0,1,1.08.53,2.63,2.63,0,0,1,.76.83,2.45,2.45,0,0,1,.29,1.24,2.91,2.91,0,0,1-.39,1.56,3.14,3.14,0,0,1-1,1,4.39,4.39,0,0,1-1.42.53,8.43,8.43,0,0,1-1.57.15,7.23,7.23,0,0,1-1.64-.18,4.09,4.09,0,0,1-1.38-.59,3.12,3.12,0,0,1-1-1.08,3.66,3.66,0,0,1-.4-1.63h1.7A1.89,1.89,0,0,0,163.72,254.46Z"/><path class="cls-1" d="M179.74,256.11a4.76,4.76,0,0,1-2.92.88,5.39,5.39,0,0,1-2.15-.4,4.22,4.22,0,0,1-1.53-1.12,4.62,4.62,0,0,1-.93-1.72,8,8,0,0,1-.35-2.18,6.2,6.2,0,0,1,.36-2.16,5,5,0,0,1,1-1.7,4.4,4.4,0,0,1,1.54-1.12,4.63,4.63,0,0,1,1.95-.4,4.25,4.25,0,0,1,2.29.57,4.6,4.6,0,0,1,1.46,1.45,5.76,5.76,0,0,1,.76,1.92,8.56,8.56,0,0,1,.17,2h-7.74a3.94,3.94,0,0,0,.16,1.29,3,3,0,0,0,.58,1.08,2.82,2.82,0,0,0,1,.75,3.62,3.62,0,0,0,1.46.28,3,3,0,0,0,1.77-.5,2.45,2.45,0,0,0,.91-1.52h1.68A4.17,4.17,0,0,1,179.74,256.11Zm-.41-6.64a3,3,0,0,0-.62-.93,2.93,2.93,0,0,0-.92-.62,3.14,3.14,0,0,0-2.36,0,2.56,2.56,0,0,0-.91.63,2.66,2.66,0,0,0-.6.93,3.28,3.28,0,0,0-.26,1.13h5.94A3.65,3.65,0,0,0,179.33,249.47Z"/><path class="cls-1" d="M185,242.49v14.28h-1.7V242.49Z"/><path class="cls-1" d="M186.56,247.93v-1.5h1.74v-1.54A2.41,2.41,0,0,1,189,243a3.05,3.05,0,0,1,2.13-.65,3.84,3.84,0,0,1,.55,0,2.22,2.22,0,0,1,.55.12V244a1.87,1.87,0,0,0-.48-.11l-.48,0a1.62,1.62,0,0,0-1,.24,1,1,0,0,0-.34.92v1.44h2v1.5h-2v8.84h-1.7v-8.84Z"/><path class="cls-1" d="M207.52,256.77l-2.1-8.22h0l-2.08,8.22h-1.84l-3.32-10.34H200l2.34,8.46h0l2.08-8.46h1.86l2.16,8.46h0l2.32-8.46h1.76l-3.3,10.34Z"/><path class="cls-1" d="M214.34,244.57v-2.08H216v2.08Zm1.7,1.86v10.34h-1.7V246.43Z"/><path class="cls-1" d="M223.1,246.43v1.5H221v6.42a1.6,1.6,0,0,0,.05.48.46.46,0,0,0,.19.28.89.89,0,0,0,.39.13,5.55,5.55,0,0,0,.65,0h.78v1.5h-1.3a6.08,6.08,0,0,1-1.13-.09,1.61,1.61,0,0,1-.76-.33,1.36,1.36,0,0,1-.43-.68,3.75,3.75,0,0,1-.14-1.16v-6.58h-1.76v-1.5h1.76v-3.1H221v3.1Z"/><path class="cls-1" d="M226.68,242.49V248h0a2.22,2.22,0,0,1,.56-.81,3.18,3.18,0,0,1,.81-.54,3.84,3.84,0,0,1,.94-.31,5,5,0,0,1,2.65.18,2.69,2.69,0,0,1,1.1.78,3,3,0,0,1,.59,1.19,6.57,6.57,0,0,1,.17,1.53v6.8h-1.7v-7a1.94,1.94,0,0,0-2.1-2.08,3.46,3.46,0,0,0-1.35.24,2.44,2.44,0,0,0-.95.68,2.66,2.66,0,0,0-.57,1,4.06,4.06,0,0,0-.19,1.29v5.84H225V242.49Z"/><path class="cls-1" d="M241.42,249.48a4.67,4.67,0,0,1,1-1.72,4.39,4.39,0,0,1,1.58-1.15,5.79,5.79,0,0,1,4.33,0,4.53,4.53,0,0,1,1.57,1.15,5,5,0,0,1,1,1.72,7.22,7.22,0,0,1,0,4.25,5.12,5.12,0,0,1-1,1.71,4.64,4.64,0,0,1-1.57,1.14,5.92,5.92,0,0,1-4.33,0,4.49,4.49,0,0,1-1.58-1.14,4.79,4.79,0,0,1-1-1.71,7.22,7.22,0,0,1,0-4.25Zm1.73,3.8a3.38,3.38,0,0,0,.69,1.22,3.07,3.07,0,0,0,1,.75,3.11,3.11,0,0,0,1.25.26,3.15,3.15,0,0,0,1.25-.26,3.29,3.29,0,0,0,1-.75,3.7,3.7,0,0,0,.69-1.22,5.38,5.38,0,0,0,.25-1.67,5.29,5.29,0,0,0-.25-1.67,3.65,3.65,0,0,0-.69-1.23,2.91,2.91,0,0,0-1-.76,3,3,0,0,0-1.25-.26,3,3,0,0,0-1.25.26,2.74,2.74,0,0,0-1,.76,3.34,3.34,0,0,0-.69,1.23,5,5,0,0,0-.25,1.67A5.1,5.1,0,0,0,243.15,253.28Z"/><path class="cls-1" d="M257.56,246.43v1.5H255.5v6.42a1.6,1.6,0,0,0,.05.48.46.46,0,0,0,.19.28.89.89,0,0,0,.39.13,5.55,5.55,0,0,0,.65,0h.78v1.5h-1.3a6.08,6.08,0,0,1-1.13-.09,1.61,1.61,0,0,1-.76-.33,1.36,1.36,0,0,1-.43-.68,3.75,3.75,0,0,1-.14-1.16v-6.58H252v-1.5h1.76v-3.1h1.7v3.1Z"/><path class="cls-1" d="M261.14,242.49V248h0a2.22,2.22,0,0,1,.56-.81,3.18,3.18,0,0,1,.81-.54,3.84,3.84,0,0,1,.94-.31,5,5,0,0,1,2.65.18,2.69,2.69,0,0,1,1.1.78,3,3,0,0,1,.59,1.19A6.57,6.57,0,0,1,268,250v6.8h-1.7v-7a1.94,1.94,0,0,0-2.1-2.08,3.46,3.46,0,0,0-1.35.24,2.44,2.44,0,0,0-1,.68,2.66,2.66,0,0,0-.57,1,4.06,4.06,0,0,0-.19,1.29v5.84h-1.7V242.49Z"/><path class="cls-1" d="M277.88,256.11A4.76,4.76,0,0,1,275,257a5.39,5.39,0,0,1-2.15-.4,4.22,4.22,0,0,1-1.53-1.12,4.62,4.62,0,0,1-.93-1.72,8,8,0,0,1-.35-2.18,6.2,6.2,0,0,1,.36-2.16,5,5,0,0,1,1-1.7,4.4,4.4,0,0,1,1.54-1.12,4.63,4.63,0,0,1,1.95-.4,4.25,4.25,0,0,1,2.29.57,4.6,4.6,0,0,1,1.46,1.45,5.76,5.76,0,0,1,.76,1.92,8.56,8.56,0,0,1,.17,2H271.8a3.94,3.94,0,0,0,.16,1.29,3,3,0,0,0,.58,1.08,2.82,2.82,0,0,0,1,.75,3.62,3.62,0,0,0,1.46.28,3,3,0,0,0,1.77-.5,2.45,2.45,0,0,0,.91-1.52h1.68A4.17,4.17,0,0,1,277.88,256.11Zm-.41-6.64a3,3,0,0,0-.62-.93,2.93,2.93,0,0,0-.92-.62,3.14,3.14,0,0,0-2.36,0,2.56,2.56,0,0,0-.91.63,2.66,2.66,0,0,0-.6.93,3.28,3.28,0,0,0-.26,1.13h5.94A3.65,3.65,0,0,0,277.47,249.47Z"/><path class="cls-1" d="M282.83,246.43v2.18h.05a4.5,4.5,0,0,1,1.52-1.86,3.8,3.8,0,0,1,2.28-.56V248a4.74,4.74,0,0,0-1.74.28,2.76,2.76,0,0,0-1.17.82,3.33,3.33,0,0,0-.63,1.31,6.74,6.74,0,0,0-.2,1.77v4.6h-1.7V246.43Z"/><path class="cls-1" d="M289.25,254.46a2,2,0,0,0,.63.62,3.2,3.2,0,0,0,.88.33,5.67,5.67,0,0,0,1,.1,6.15,6.15,0,0,0,.84-.06,3.2,3.2,0,0,0,.81-.22,1.52,1.52,0,0,0,.61-.47,1.26,1.26,0,0,0,.24-.79,1.11,1.11,0,0,0-.5-1,4.13,4.13,0,0,0-1.25-.55c-.5-.14-1-.27-1.62-.38a9.55,9.55,0,0,1-1.64-.48,3.51,3.51,0,0,1-1.25-.87,2.3,2.3,0,0,1-.5-1.56,2.5,2.5,0,0,1,.35-1.34,2.9,2.9,0,0,1,.9-.91,3.92,3.92,0,0,1,1.24-.52,5.43,5.43,0,0,1,1.38-.17,8.08,8.08,0,0,1,1.61.15,3.64,3.64,0,0,1,1.31.52,2.59,2.59,0,0,1,.91,1,3.73,3.73,0,0,1,.4,1.57h-1.69a1.7,1.7,0,0,0-.27-.83,1.58,1.58,0,0,0-.56-.53,2.26,2.26,0,0,0-.75-.29,3.84,3.84,0,0,0-.83-.09,5.09,5.09,0,0,0-.77.06,2.66,2.66,0,0,0-.71.21,1.48,1.48,0,0,0-.52.4,1,1,0,0,0-.2.65,1,1,0,0,0,.31.73,2.58,2.58,0,0,0,.8.48,7.61,7.61,0,0,0,1.07.32c.41.08.8.17,1.2.27a10,10,0,0,1,1.25.34,3.88,3.88,0,0,1,1.08.53,2.42,2.42,0,0,1,.76.83,2.35,2.35,0,0,1,.29,1.24,2.91,2.91,0,0,1-.39,1.56,3.21,3.21,0,0,1-1,1,4.45,4.45,0,0,1-1.43.53,8.35,8.35,0,0,1-1.57.15,7.3,7.3,0,0,1-1.64-.18,4.09,4.09,0,0,1-1.38-.59,3.12,3.12,0,0,1-1-1.08,3.8,3.8,0,0,1-.4-1.63H289A2,2,0,0,0,289.25,254.46Z"/><path class="cls-1" d="M312,256.77l-2.11-8.22h0l-2.08,8.22H305.9l-3.33-10.34h1.89l2.33,8.46h0l2.09-8.46h1.85l2.17,8.46h0l2.31-8.46h1.76l-3.3,10.34Z"/><path class="cls-1" d="M320.37,242.49V248h0a2.35,2.35,0,0,1,.56-.81,3.18,3.18,0,0,1,.81-.54,4,4,0,0,1,.94-.31,4.58,4.58,0,0,1,.95-.1,4.41,4.41,0,0,1,1.7.28,2.63,2.63,0,0,1,1.1.78,2.84,2.84,0,0,1,.59,1.19,6.08,6.08,0,0,1,.17,1.53v6.8h-1.7v-7a1.94,1.94,0,0,0-2.1-2.08,3.46,3.46,0,0,0-1.35.24,2.51,2.51,0,0,0-.95.68,3,3,0,0,0-.57,1,4.37,4.37,0,0,0-.19,1.29v5.84h-1.7V242.49Z"/><path class="cls-1" d="M329.55,249.48a5,5,0,0,1,1-1.72,4.57,4.57,0,0,1,1.58-1.15,5.79,5.79,0,0,1,4.33,0,4.44,4.44,0,0,1,1.57,1.15,4.67,4.67,0,0,1,1,1.72,7.22,7.22,0,0,1,0,4.25,4.79,4.79,0,0,1-1,1.71,4.54,4.54,0,0,1-1.57,1.14,5.92,5.92,0,0,1-4.33,0,4.68,4.68,0,0,1-1.58-1.14,5.12,5.12,0,0,1-1-1.71,7.22,7.22,0,0,1,0-4.25Zm1.73,3.8a3.7,3.7,0,0,0,.69,1.22,3.29,3.29,0,0,0,1,.75,3.15,3.15,0,0,0,1.25.26,3.11,3.11,0,0,0,1.25-.26,3.07,3.07,0,0,0,1-.75,3.38,3.38,0,0,0,.69-1.22,5.1,5.1,0,0,0,.25-1.67,5,5,0,0,0-.25-1.67,3.34,3.34,0,0,0-.69-1.23,2.74,2.74,0,0,0-1-.76,3,3,0,0,0-1.25-.26A3,3,0,0,0,333,248a2.91,2.91,0,0,0-1,.76,3.65,3.65,0,0,0-.69,1.23,5.29,5.29,0,0,0-.25,1.67A5.38,5.38,0,0,0,331.28,253.28Z"/><path class="cls-1" d="M43.42,280.77l-2.1-8.22h0l-2.08,8.22H37.36L34,270.43h1.88l2.34,8.46h0l2.08-8.46h1.86l2.16,8.46h0l2.32-8.46h1.76l-3.3,10.34Z"/><path class="cls-1" d="M50.24,268.57v-2.08h1.7v2.08Zm1.7,1.86v10.34h-1.7V270.43Z"/><path class="cls-1" d="M56.38,266.49v14.28h-1.7V266.49Z"/><path class="cls-1" d="M60.82,266.49v14.28h-1.7V266.49Z"/><path class="cls-1" d="M75.2,272.23a2.59,2.59,0,0,0-1.72-.54,3.11,3.11,0,0,0-1.54.34,2.54,2.54,0,0,0-1,.9,3.55,3.55,0,0,0-.53,1.29,6.79,6.79,0,0,0-.16,1.51,5.48,5.48,0,0,0,.17,1.4,3.78,3.78,0,0,0,.53,1.21,2.75,2.75,0,0,0,.94.85,3.22,3.22,0,0,0,3.35-.34,3,3,0,0,0,.87-1.86h1.74a4.83,4.83,0,0,1-1.43,3,4.51,4.51,0,0,1-3.13,1,5.41,5.41,0,0,1-2.09-.38,4.12,4.12,0,0,1-1.52-1.08,4.6,4.6,0,0,1-.92-1.67,6.9,6.9,0,0,1-.31-2.13,7.54,7.54,0,0,1,.3-2.17,4.91,4.91,0,0,1,.91-1.76,4.09,4.09,0,0,1,1.53-1.18,4.93,4.93,0,0,1,2.14-.43,6.32,6.32,0,0,1,1.65.21,4,4,0,0,1,1.36.65,3.6,3.6,0,0,1,1,1.11,4.13,4.13,0,0,1,.48,1.59H76A2.64,2.64,0,0,0,75.2,272.23Z"/><path class="cls-1" d="M81.46,266.49V272h0a2.22,2.22,0,0,1,.56-.81,3.18,3.18,0,0,1,.81-.54,3.84,3.84,0,0,1,.94-.31,5,5,0,0,1,2.65.18,2.69,2.69,0,0,1,1.1.78,3,3,0,0,1,.59,1.19,6.57,6.57,0,0,1,.17,1.53v6.8h-1.7v-7a1.94,1.94,0,0,0-2.1-2.08,3.46,3.46,0,0,0-1.35.24,2.44,2.44,0,0,0-1,.68,2.66,2.66,0,0,0-.57,1,4.06,4.06,0,0,0-.19,1.29v5.84h-1.7V266.49Z"/><path class="cls-1" d="M100,280.73a2.46,2.46,0,0,1-1.22.26,1.49,1.49,0,0,1-1-.37,1.61,1.61,0,0,1-.39-1.21,4.12,4.12,0,0,1-1.63,1.21,5.52,5.52,0,0,1-2,.37,5.7,5.7,0,0,1-1.33-.16,3.22,3.22,0,0,1-1.09-.5,2.45,2.45,0,0,1-.73-.89,3.51,3.51,0,0,1,0-2.77,2.5,2.5,0,0,1,.79-.91,3.41,3.41,0,0,1,1.12-.53q.63-.18,1.29-.3a11.4,11.4,0,0,1,1.33-.21,9,9,0,0,0,1.11-.2,2,2,0,0,0,.76-.38,1,1,0,0,0,.28-.73,1.66,1.66,0,0,0-.21-.9,1.42,1.42,0,0,0-.54-.52,2.22,2.22,0,0,0-.74-.24,5.73,5.73,0,0,0-.81-.06,3.53,3.53,0,0,0-1.8.41,1.74,1.74,0,0,0-.78,1.55h-1.7a3.58,3.58,0,0,1,.4-1.62,3,3,0,0,1,1-1.07,3.85,3.85,0,0,1,1.37-.59,7.19,7.19,0,0,1,1.65-.18,9.29,9.29,0,0,1,1.39.1,3.67,3.67,0,0,1,1.25.4,2.5,2.5,0,0,1,.9.87A2.87,2.87,0,0,1,99,273v5.31a3.8,3.8,0,0,0,.07.88c0,.18.2.28.47.28a2.28,2.28,0,0,0,.52-.08Zm-2.76-5.3a2.31,2.31,0,0,1-.84.34,9.18,9.18,0,0,1-1.09.18l-1.15.16a4.25,4.25,0,0,0-1,.29,1.79,1.79,0,0,0-.75.57,1.53,1.53,0,0,0-.29,1,1.31,1.31,0,0,0,.17.71,1.41,1.41,0,0,0,.44.47,2,2,0,0,0,.63.26,3.69,3.69,0,0,0,.76.08,4.1,4.1,0,0,0,1.44-.23,3.3,3.3,0,0,0,1-.58,2.24,2.24,0,0,0,.56-.76,1.87,1.87,0,0,0,.18-.76Z"/><path class="cls-1" d="M103.42,266.49v14.28h-1.7V266.49Z"/><path class="cls-1" d="M107.86,266.49v14.28h-1.7V266.49Z"/><path class="cls-1" d="M117.82,280.11a4.76,4.76,0,0,1-2.92.88,5.39,5.39,0,0,1-2.15-.4,4.22,4.22,0,0,1-1.53-1.12,4.62,4.62,0,0,1-.93-1.72,8,8,0,0,1-.35-2.18,6.2,6.2,0,0,1,.36-2.16,5,5,0,0,1,1-1.7,4.4,4.4,0,0,1,1.54-1.12,4.63,4.63,0,0,1,2-.4,4.25,4.25,0,0,1,2.29.57,4.6,4.6,0,0,1,1.46,1.45,5.76,5.76,0,0,1,.76,1.92,8.56,8.56,0,0,1,.17,2h-7.74a3.94,3.94,0,0,0,.16,1.29,3,3,0,0,0,.58,1.08,2.82,2.82,0,0,0,1,.75,3.62,3.62,0,0,0,1.46.28,3,3,0,0,0,1.77-.5,2.45,2.45,0,0,0,.91-1.52h1.68A4.17,4.17,0,0,1,117.82,280.11Zm-.41-6.64a3,3,0,0,0-.62-.93,2.93,2.93,0,0,0-.92-.62,3.14,3.14,0,0,0-2.36,0,2.56,2.56,0,0,0-.91.63,2.66,2.66,0,0,0-.6.93,3.28,3.28,0,0,0-.26,1.13h5.94A3.65,3.65,0,0,0,117.41,273.47Z"/><path class="cls-1" d="M122.83,270.43v1.64h0a3.55,3.55,0,0,1,3.35-1.88,4.47,4.47,0,0,1,1.71.28,2.76,2.76,0,0,1,1.1.78,3,3,0,0,1,.58,1.19,6.08,6.08,0,0,1,.17,1.53v6.8H128.1v-7a1.94,1.94,0,0,0-2.1-2.08,3.43,3.43,0,0,0-1.35.24,2.44,2.44,0,0,0-1,.68,2.82,2.82,0,0,0-.58,1,4.37,4.37,0,0,0-.18,1.29v5.84h-1.71V270.43Z"/><path class="cls-1" d="M140.12,283.69a4.74,4.74,0,0,1-3.64,1.26,7.51,7.51,0,0,1-1.47-.16,4.52,4.52,0,0,1-1.36-.52,3.14,3.14,0,0,1-1-.94,2.6,2.6,0,0,1-.44-1.42h1.7a1.27,1.27,0,0,0,.29.78,2.15,2.15,0,0,0,.66.52,3.15,3.15,0,0,0,.85.29,4.53,4.53,0,0,0,.88.09,3.21,3.21,0,0,0,1.42-.29,2.86,2.86,0,0,0,1-.8,3.47,3.47,0,0,0,.55-1.23,7.09,7.09,0,0,0,.17-1.58V279h0a2.9,2.9,0,0,1-1.33,1.41,4.17,4.17,0,0,1-1.89.45,4.52,4.52,0,0,1-2-.42,4.14,4.14,0,0,1-1.44-1.13,5,5,0,0,1-.88-1.66,7,7,0,0,1-.28-2,7.77,7.77,0,0,1,.24-1.89,5.11,5.11,0,0,1,.79-1.76,4.39,4.39,0,0,1,1.49-1.3,4.58,4.58,0,0,1,2.26-.51,3.8,3.8,0,0,1,1.8.43,3,3,0,0,1,1.28,1.29h0v-1.48h1.6v9.46A5.47,5.47,0,0,1,140.12,283.69ZM138,279a2.88,2.88,0,0,0,1-.92,4.38,4.38,0,0,0,.53-1.29,6.44,6.44,0,0,0,.17-1.44,6,6,0,0,0-.16-1.34,3.86,3.86,0,0,0-.51-1.19,2.57,2.57,0,0,0-2.27-1.17,2.87,2.87,0,0,0-1.4.31,2.55,2.55,0,0,0-.95.83,3.29,3.29,0,0,0-.54,1.2,5.47,5.47,0,0,0-.17,1.42,6.72,6.72,0,0,0,.14,1.4,3.89,3.89,0,0,0,.48,1.27,2.51,2.51,0,0,0,2.3,1.27A2.81,2.81,0,0,0,138,279Z"/><path class="cls-1" d="M151.16,280.11a4.76,4.76,0,0,1-2.92.88,5.48,5.48,0,0,1-2.16-.4,4.27,4.27,0,0,1-1.52-1.12,4.78,4.78,0,0,1-.94-1.72,8.36,8.36,0,0,1-.34-2.18,6.2,6.2,0,0,1,.36-2.16,5,5,0,0,1,1-1.7,4.4,4.4,0,0,1,1.54-1.12,4.63,4.63,0,0,1,1.95-.4,4.25,4.25,0,0,1,2.29.57,4.6,4.6,0,0,1,1.46,1.45,5.76,5.76,0,0,1,.76,1.92,8,8,0,0,1,.16,2h-7.73a3.94,3.94,0,0,0,.16,1.29,3,3,0,0,0,.57,1.08,3,3,0,0,0,1,.75,3.71,3.71,0,0,0,1.47.28,2.93,2.93,0,0,0,1.76-.5,2.42,2.42,0,0,0,.92-1.52h1.68A4.17,4.17,0,0,1,151.16,280.11Zm-.41-6.64a2.89,2.89,0,0,0-.63-.93,2.77,2.77,0,0,0-.91-.62,3.14,3.14,0,0,0-2.36,0,2.56,2.56,0,0,0-.91.63,2.84,2.84,0,0,0-.61.93,3.51,3.51,0,0,0-.25,1.13H151A3.65,3.65,0,0,0,150.75,273.47Z"/><path class="cls-1" d="M169.29,280.73a2.39,2.39,0,0,1-1.21.26,1.52,1.52,0,0,1-1.06-.37,1.66,1.66,0,0,1-.39-1.21,4.05,4.05,0,0,1-1.63,1.21,5.51,5.51,0,0,1-2,.37,5.64,5.64,0,0,1-1.33-.16,3.22,3.22,0,0,1-1.09-.5,2.35,2.35,0,0,1-.73-.89,3,3,0,0,1-.27-1.33,2.9,2.9,0,0,1,.3-1.44,2.5,2.5,0,0,1,.79-.91,3.32,3.32,0,0,1,1.12-.53,12.79,12.79,0,0,1,1.29-.3,11.24,11.24,0,0,1,1.32-.21,9.13,9.13,0,0,0,1.12-.2,2,2,0,0,0,.75-.38.93.93,0,0,0,.29-.73,1.76,1.76,0,0,0-.21-.9,1.49,1.49,0,0,0-.54-.52,2.28,2.28,0,0,0-.75-.24,5.52,5.52,0,0,0-.81-.06,3.51,3.51,0,0,0-1.79.41,1.74,1.74,0,0,0-.79,1.55H160a3.46,3.46,0,0,1,.4-1.62,3,3,0,0,1,1-1.07,3.9,3.9,0,0,1,1.38-.59,7.17,7.17,0,0,1,1.64-.18,9.32,9.32,0,0,1,1.4.1,3.67,3.67,0,0,1,1.25.4,2.5,2.5,0,0,1,.9.87,2.87,2.87,0,0,1,.33,1.46v5.31a3.68,3.68,0,0,0,.08.88c0,.18.2.28.46.28a2.13,2.13,0,0,0,.52-.08Zm-2.75-5.3a2.29,2.29,0,0,1-.85.34,8.85,8.85,0,0,1-1.09.18l-1.14.16a4.25,4.25,0,0,0-1,.29,1.79,1.79,0,0,0-.75.57,1.53,1.53,0,0,0-.29,1,1.41,1.41,0,0,0,.16.71,1.65,1.65,0,0,0,.44.47,2.2,2.2,0,0,0,.63.26,3.79,3.79,0,0,0,.77.08,4,4,0,0,0,1.43-.23,3.18,3.18,0,0,0,1-.58,2.11,2.11,0,0,0,.56-.76,1.74,1.74,0,0,0,.19-.76Z"/><path class="cls-1" d="M172.47,270.43v1.64h0a3.57,3.57,0,0,1,3.36-1.88,4.41,4.41,0,0,1,1.7.28,2.63,2.63,0,0,1,1.1.78,2.84,2.84,0,0,1,.59,1.19,6.08,6.08,0,0,1,.17,1.53v6.8h-1.7v-7a1.94,1.94,0,0,0-2.1-2.08,3.46,3.46,0,0,0-1.35.24,2.51,2.51,0,0,0-.95.68,3,3,0,0,0-.57,1,4.37,4.37,0,0,0-.19,1.29v5.84h-1.7V270.43Z"/><path class="cls-1" d="M189.53,280.77v-1.4h0a2.54,2.54,0,0,1-1.32,1.24,5.06,5.06,0,0,1-2,.38,4.76,4.76,0,0,1-2.09-.44,4.52,4.52,0,0,1-1.48-1.18,5.5,5.5,0,0,1-.89-1.72,7.11,7.11,0,0,1-.29-2.08,7.36,7.36,0,0,1,.28-2.08,5,5,0,0,1,.88-1.71,4.23,4.23,0,0,1,1.48-1.16,4.7,4.7,0,0,1,2.07-.43,4.37,4.37,0,0,1,.86.08,4.08,4.08,0,0,1,.93.27,3.57,3.57,0,0,1,.86.5,2.44,2.44,0,0,1,.69.77h0v-5.32h1.7v14.28Zm-6.11-3.67a3.88,3.88,0,0,0,.58,1.23,3,3,0,0,0,1,.86,3.12,3.12,0,0,0,1.44.32,3,3,0,0,0,1.46-.34,3.22,3.22,0,0,0,1-.89,3.79,3.79,0,0,0,.54-1.25,5.69,5.69,0,0,0,.17-1.42,6.43,6.43,0,0,0-.17-1.47,3.79,3.79,0,0,0-.58-1.25,2.85,2.85,0,0,0-1-.87,3.14,3.14,0,0,0-1.5-.33,2.83,2.83,0,0,0-1.45.34,2.45,2.45,0,0,0-1,.9,3.56,3.56,0,0,0-.52,1.28,6.58,6.58,0,0,0-.17,1.48A5.57,5.57,0,0,0,183.42,277.1Z"/><path class="cls-1" d="M199.51,268.57v-2.08h1.7v2.08Zm1.7,1.86v10.34h-1.7V270.43Z"/><path class="cls-1" d="M205.45,270.43v1.64h0a3.57,3.57,0,0,1,3.36-1.88,4.41,4.41,0,0,1,1.7.28,2.63,2.63,0,0,1,1.1.78,2.84,2.84,0,0,1,.59,1.19,6.08,6.08,0,0,1,.17,1.53v6.8h-1.7v-7a1.94,1.94,0,0,0-2.1-2.08,3.46,3.46,0,0,0-1.35.24,2.51,2.51,0,0,0-.95.68,3,3,0,0,0-.57,1,4.37,4.37,0,0,0-.19,1.29v5.84h-1.7V270.43Z"/><path class="cls-1" d="M216.27,278.46a2.07,2.07,0,0,0,.63.62,3.2,3.2,0,0,0,.88.33,5.67,5.67,0,0,0,1,.1,6.15,6.15,0,0,0,.84-.06,3.2,3.2,0,0,0,.81-.22,1.52,1.52,0,0,0,.61-.47,1.26,1.26,0,0,0,.24-.79,1.11,1.11,0,0,0-.5-1,4.13,4.13,0,0,0-1.25-.55c-.5-.14-1-.27-1.62-.38a9.55,9.55,0,0,1-1.64-.48,3.51,3.51,0,0,1-1.25-.87,2.3,2.3,0,0,1-.5-1.56,2.5,2.5,0,0,1,.35-1.34,2.9,2.9,0,0,1,.9-.91,3.92,3.92,0,0,1,1.24-.52,5.43,5.43,0,0,1,1.38-.17,8.08,8.08,0,0,1,1.61.15,3.64,3.64,0,0,1,1.31.52,2.59,2.59,0,0,1,.91,1,3.73,3.73,0,0,1,.4,1.57h-1.69a1.7,1.7,0,0,0-.27-.83,1.58,1.58,0,0,0-.56-.53,2.26,2.26,0,0,0-.75-.29,3.84,3.84,0,0,0-.83-.09,5.09,5.09,0,0,0-.77.06,2.66,2.66,0,0,0-.71.21,1.48,1.48,0,0,0-.52.4,1,1,0,0,0-.2.65,1,1,0,0,0,.32.73,2.41,2.41,0,0,0,.79.48,7.61,7.61,0,0,0,1.07.32c.41.08.8.17,1.2.27a10,10,0,0,1,1.25.34,3.88,3.88,0,0,1,1.08.53,2.42,2.42,0,0,1,.76.83,2.35,2.35,0,0,1,.29,1.24,2.91,2.91,0,0,1-.39,1.56,3.21,3.21,0,0,1-1,1,4.45,4.45,0,0,1-1.43.53,8.35,8.35,0,0,1-1.57.15,7.3,7.3,0,0,1-1.64-.18,4.09,4.09,0,0,1-1.38-.59,3.12,3.12,0,0,1-1-1.08,3.8,3.8,0,0,1-.4-1.63H216A2,2,0,0,0,216.27,278.46Z"/><path class="cls-1" d="M226.73,270.43v1.4h0a2.52,2.52,0,0,1,1.32-1.25,4.93,4.93,0,0,1,2-.39,4.61,4.61,0,0,1,2.1.44,4.31,4.31,0,0,1,1.48,1.19,5.23,5.23,0,0,1,.88,1.73,7,7,0,0,1,.3,2.08,7.11,7.11,0,0,1-.29,2.08,4.94,4.94,0,0,1-.87,1.71,4.32,4.32,0,0,1-1.48,1.15,4.86,4.86,0,0,1-2.08.42,5.61,5.61,0,0,1-.85-.08,5.39,5.39,0,0,1-.93-.26,4.19,4.19,0,0,1-.87-.49,3,3,0,0,1-.69-.77h0v5.32H225V270.43Zm6.11,3.67a3.67,3.67,0,0,0-.58-1.23,2.78,2.78,0,0,0-1-.86,2.93,2.93,0,0,0-1.43-.32,2.83,2.83,0,0,0-1.45.34,2.71,2.71,0,0,0-1,.89,3.65,3.65,0,0,0-.56,1.25,6.13,6.13,0,0,0-.17,1.42,6,6,0,0,0,.18,1.47,3.87,3.87,0,0,0,.57,1.25,3,3,0,0,0,1,.87,3.14,3.14,0,0,0,1.5.33,3,3,0,0,0,1.46-.34,2.74,2.74,0,0,0,.95-.9,4.07,4.07,0,0,0,.53-1.28,7.29,7.29,0,0,0,.15-1.48A5.16,5.16,0,0,0,232.84,274.1Z"/><path class="cls-1" d="M236.93,268.57v-2.08h1.7v2.08Zm1.7,1.86v10.34h-1.7V270.43Z"/><path class="cls-1" d="M242.81,270.43v2.18h0a4.66,4.66,0,0,1,1.52-1.86,3.8,3.8,0,0,1,2.28-.56V272a4.74,4.74,0,0,0-1.74.28,2.73,2.73,0,0,0-1.16.82,3.49,3.49,0,0,0-.64,1.31,7.19,7.19,0,0,0-.2,1.77v4.6h-1.7V270.43Z"/><path class="cls-1" d="M254.89,280.11A4.72,4.72,0,0,1,252,281a5.46,5.46,0,0,1-2.15-.4,4.4,4.4,0,0,1-1.53-1.12,4.92,4.92,0,0,1-.93-1.72,8.8,8.8,0,0,1-.35-2.18,6.2,6.2,0,0,1,.36-2.16,5.15,5.15,0,0,1,1-1.7,4.59,4.59,0,0,1,1.54-1.12,4.69,4.69,0,0,1,2-.4,4.23,4.23,0,0,1,2.29.57,4.4,4.4,0,0,1,1.46,1.45,5.56,5.56,0,0,1,.76,1.92,8,8,0,0,1,.17,2h-7.74a4.23,4.23,0,0,0,.16,1.29,3.14,3.14,0,0,0,.58,1.08,3,3,0,0,0,1,.75,3.65,3.65,0,0,0,1.46.28,3,3,0,0,0,1.77-.5,2.41,2.41,0,0,0,.91-1.52h1.68A4.08,4.08,0,0,1,254.89,280.11Zm-.41-6.64a2.86,2.86,0,0,0-.62-.93,2.82,2.82,0,0,0-.92-.62,2.78,2.78,0,0,0-1.17-.23,2.87,2.87,0,0,0-1.19.23,2.75,2.75,0,0,0-.91.63,3,3,0,0,0-.6.93,3.81,3.81,0,0,0-.26,1.13h5.94A3.17,3.17,0,0,0,254.48,273.47Z"/><path class="cls-1" d="M267.93,282.15a10.5,10.5,0,0,1-.59,1.28,3.38,3.38,0,0,1-.64.85,2.12,2.12,0,0,1-.78.48,3,3,0,0,1-1,.15c-.2,0-.4,0-.6,0a3.77,3.77,0,0,1-.58-.14v-1.56a4.35,4.35,0,0,0,.51.17,2.72,2.72,0,0,0,.49.07,1.49,1.49,0,0,0,.87-.25,1.54,1.54,0,0,0,.53-.71l.7-1.74-4.1-10.28h1.92l3,8.46h0l2.9-8.46h1.8Z"/><path class="cls-1" d="M273.63,273.48a5,5,0,0,1,1-1.72,4.57,4.57,0,0,1,1.58-1.15,5.79,5.79,0,0,1,4.33,0,4.44,4.44,0,0,1,1.57,1.15,4.67,4.67,0,0,1,1,1.72,7.22,7.22,0,0,1,0,4.25,4.79,4.79,0,0,1-1,1.71,4.54,4.54,0,0,1-1.57,1.14,5.92,5.92,0,0,1-4.33,0,4.68,4.68,0,0,1-1.58-1.14,5.12,5.12,0,0,1-1-1.71,7.22,7.22,0,0,1,0-4.25Zm1.73,3.8a3.7,3.7,0,0,0,.69,1.22,3.29,3.29,0,0,0,1,.75,3.15,3.15,0,0,0,1.25.26,3.11,3.11,0,0,0,1.25-.26,3.07,3.07,0,0,0,1-.75,3.38,3.38,0,0,0,.69-1.22,5.1,5.1,0,0,0,.25-1.67,5,5,0,0,0-.25-1.67,3.34,3.34,0,0,0-.69-1.23,2.74,2.74,0,0,0-1-.76,3,3,0,0,0-1.25-.26,3,3,0,0,0-1.25.26,2.91,2.91,0,0,0-1,.76,3.65,3.65,0,0,0-.69,1.23,5.29,5.29,0,0,0-.25,1.67A5.38,5.38,0,0,0,275.36,277.28Z"/><path class="cls-1" d="M292.31,280.77v-1.64h0a3.47,3.47,0,0,1-1.38,1.41,4.13,4.13,0,0,1-2,.45,4.66,4.66,0,0,1-1.7-.27,2.77,2.77,0,0,1-1.1-.77,3,3,0,0,1-.59-1.19,6.57,6.57,0,0,1-.17-1.53v-6.8h1.7v7a2.08,2.08,0,0,0,.56,1.52,2.11,2.11,0,0,0,1.54.56,3.46,3.46,0,0,0,1.35-.24,2.54,2.54,0,0,0,.95-.68,2.81,2.81,0,0,0,.57-1,4.15,4.15,0,0,0,.19-1.29v-5.84h1.7v10.34Z"/><path class="cls-1" d="M299.07,278.55v2a3.56,3.56,0,0,1-.52,2,2.83,2.83,0,0,1-1.68,1.16v-1a1.49,1.49,0,0,0,.57-.35,1.9,1.9,0,0,0,.37-.5,1.72,1.72,0,0,0,.19-.55,1.56,1.56,0,0,0,0-.52h-1.18v-2.22Z"/><path class="cls-1" d="M316.75,280.73a2.43,2.43,0,0,1-1.22.26,1.49,1.49,0,0,1-1-.37,1.61,1.61,0,0,1-.39-1.21,4.05,4.05,0,0,1-1.63,1.21,5.52,5.52,0,0,1-2,.37,5.77,5.77,0,0,1-1.33-.16,3.31,3.31,0,0,1-1.09-.5,2.55,2.55,0,0,1-.73-.89,3.51,3.51,0,0,1,0-2.77,2.6,2.6,0,0,1,.79-.91,3.51,3.51,0,0,1,1.12-.53q.63-.18,1.29-.3a11.74,11.74,0,0,1,1.33-.21,9,9,0,0,0,1.11-.2,1.93,1.93,0,0,0,.76-.38.92.92,0,0,0,.28-.73,1.66,1.66,0,0,0-.21-.9,1.42,1.42,0,0,0-.54-.52,2.15,2.15,0,0,0-.74-.24,5.52,5.52,0,0,0-.81-.06,3.53,3.53,0,0,0-1.8.41,1.74,1.74,0,0,0-.78,1.55h-1.7a3.72,3.72,0,0,1,.4-1.62,3,3,0,0,1,1-1.07,3.93,3.93,0,0,1,1.37-.59,7.32,7.32,0,0,1,1.65-.18,9.19,9.19,0,0,1,1.39.1,3.6,3.6,0,0,1,1.25.4,2.35,2.35,0,0,1,.9.87,2.77,2.77,0,0,1,.34,1.46v5.31a4.47,4.47,0,0,0,.07.88c.05.18.21.28.47.28a2.2,2.2,0,0,0,.52-.08Zm-2.76-5.3a2.17,2.17,0,0,1-.84.34,8.85,8.85,0,0,1-1.09.18l-1.15.16a4.52,4.52,0,0,0-1,.29,1.92,1.92,0,0,0-.75.57,1.59,1.59,0,0,0-.29,1,1.41,1.41,0,0,0,.17.71,1.52,1.52,0,0,0,.44.47,2,2,0,0,0,.63.26,3.77,3.77,0,0,0,.76.08,4.1,4.1,0,0,0,1.44-.23,3.18,3.18,0,0,0,1-.58,2.11,2.11,0,0,0,.56-.76,1.87,1.87,0,0,0,.18-.76Z"/><path class="cls-1" d="M319.93,270.43v1.64h0a3.57,3.57,0,0,1,3.36-1.88,4.41,4.41,0,0,1,1.7.28,2.63,2.63,0,0,1,1.1.78,2.84,2.84,0,0,1,.59,1.19,6.08,6.08,0,0,1,.17,1.53v6.8h-1.7v-7a1.94,1.94,0,0,0-2.1-2.08,3.46,3.46,0,0,0-1.35.24,2.51,2.51,0,0,0-.95.68,3,3,0,0,0-.57,1,4.37,4.37,0,0,0-.19,1.29v5.84h-1.7V270.43Z"/><path class="cls-1" d="M337,280.77v-1.4h0a2.54,2.54,0,0,1-1.32,1.24,5.1,5.1,0,0,1-2,.38,4.73,4.73,0,0,1-2.09-.44,4.52,4.52,0,0,1-1.48-1.18,5.3,5.3,0,0,1-.89-1.72,7.12,7.12,0,0,1-.3-2.08,7.36,7.36,0,0,1,.29-2.08,5,5,0,0,1,.88-1.71,4.23,4.23,0,0,1,1.48-1.16,4.7,4.7,0,0,1,2.07-.43,4.37,4.37,0,0,1,.86.08,3.87,3.87,0,0,1,.92.27,3.44,3.44,0,0,1,.87.5,2.44,2.44,0,0,1,.69.77h0v-5.32h1.7v14.28Zm-6.11-3.67a3.88,3.88,0,0,0,.58,1.23,3,3,0,0,0,1,.86,3.11,3.11,0,0,0,1.43.32,2.81,2.81,0,0,0,2.44-1.23,3.61,3.61,0,0,0,.55-1.25,5.69,5.69,0,0,0,.17-1.42,5.92,5.92,0,0,0-.18-1.47,3.58,3.58,0,0,0-.57-1.25,2.85,2.85,0,0,0-1-.87,3.14,3.14,0,0,0-1.5-.33,2.89,2.89,0,0,0-1.46.34,2.59,2.59,0,0,0-1,.9,4,4,0,0,0-.52,1.28,7.21,7.21,0,0,0-.16,1.48A5.57,5.57,0,0,0,330.88,277.1Z"/><path class="cls-1" d="M42.52,304.77v-1.4h0a2.54,2.54,0,0,1-1.32,1.24,5.1,5.1,0,0,1-2,.38,4.7,4.7,0,0,1-2.09-.44,4.32,4.32,0,0,1-1.48-1.18,5.12,5.12,0,0,1-.89-1.72,7.12,7.12,0,0,1-.3-2.08,7,7,0,0,1,.29-2.08,4.63,4.63,0,0,1,.88-1.71,4.05,4.05,0,0,1,1.48-1.16,4.64,4.64,0,0,1,2.07-.43,4.51,4.51,0,0,1,.86.08,4.16,4.16,0,0,1,.92.27,3.83,3.83,0,0,1,.87.5,2.7,2.7,0,0,1,.69.77h0v-5.32h1.7v14.28Zm-6.11-3.67a3.67,3.67,0,0,0,.58,1.23,2.88,2.88,0,0,0,1,.86,3,3,0,0,0,1.43.32,3,3,0,0,0,1.46-.34,3.1,3.1,0,0,0,1-.89,4,4,0,0,0,.55-1.25,6.2,6.2,0,0,0,.17-1.42,5.92,5.92,0,0,0-.18-1.47,3.58,3.58,0,0,0-.57-1.25,2.94,2.94,0,0,0-1-.87,3.19,3.19,0,0,0-1.5-.33,2.87,2.87,0,0,0-1.46.34,2.59,2.59,0,0,0-1,.9,3.75,3.75,0,0,0-.52,1.28,6.58,6.58,0,0,0-.16,1.48A5.16,5.16,0,0,0,36.41,301.1Z"/><path class="cls-1" d="M46.6,297.48a4.67,4.67,0,0,1,1-1.72,4.39,4.39,0,0,1,1.58-1.15,5.79,5.79,0,0,1,4.33,0A4.53,4.53,0,0,1,55,295.76a5,5,0,0,1,1,1.72,7.22,7.22,0,0,1,0,4.25,5.12,5.12,0,0,1-1,1.71,4.64,4.64,0,0,1-1.57,1.14,5.92,5.92,0,0,1-4.33,0,4.49,4.49,0,0,1-1.58-1.14,4.79,4.79,0,0,1-1-1.71,7.22,7.22,0,0,1,0-4.25Zm1.73,3.8A3.38,3.38,0,0,0,49,302.5a3.07,3.07,0,0,0,1,.75,3.11,3.11,0,0,0,1.25.26,3.15,3.15,0,0,0,1.25-.26,3.29,3.29,0,0,0,1-.75,3.7,3.7,0,0,0,.69-1.22,5.38,5.38,0,0,0,.25-1.67,5.29,5.29,0,0,0-.25-1.67,3.65,3.65,0,0,0-.69-1.23,2.91,2.91,0,0,0-1-.76,3,3,0,0,0-1.25-.26,3,3,0,0,0-1.25.26,2.74,2.74,0,0,0-1,.76,3.34,3.34,0,0,0-.69,1.23,5,5,0,0,0-.25,1.67A5.1,5.1,0,0,0,48.33,301.28Z"/><path class="cls-1" d="M68.3,294.43v1.5H66.24v6.42a1.6,1.6,0,0,0,.05.48.46.46,0,0,0,.19.28.89.89,0,0,0,.39.13,5.55,5.55,0,0,0,.65,0h.78v1.5H67a6.08,6.08,0,0,1-1.13-.09,1.61,1.61,0,0,1-.76-.33,1.36,1.36,0,0,1-.43-.68,3.75,3.75,0,0,1-.14-1.16v-6.58H62.78v-1.5h1.76v-3.1h1.7v3.1Z"/><path class="cls-1" d="M71.88,290.49V296h0a2.22,2.22,0,0,1,.56-.81,3.18,3.18,0,0,1,.81-.54,3.84,3.84,0,0,1,.94-.31,5,5,0,0,1,2.65.18,2.69,2.69,0,0,1,1.1.78,3,3,0,0,1,.59,1.19,6.57,6.57,0,0,1,.17,1.53v6.8H77v-7a1.94,1.94,0,0,0-2.1-2.08,3.46,3.46,0,0,0-1.35.24,2.44,2.44,0,0,0-1,.68,2.66,2.66,0,0,0-.57,1,4.06,4.06,0,0,0-.19,1.29v5.84h-1.7V290.49Z"/><path class="cls-1" d="M88.62,304.11a4.76,4.76,0,0,1-2.92.88,5.39,5.39,0,0,1-2.15-.4A4.22,4.22,0,0,1,82,303.47a4.62,4.62,0,0,1-.93-1.72,8,8,0,0,1-.35-2.18,6.2,6.2,0,0,1,.36-2.16,5,5,0,0,1,1-1.7,4.4,4.4,0,0,1,1.54-1.12,4.63,4.63,0,0,1,1.95-.4,4.25,4.25,0,0,1,2.29.57,4.6,4.6,0,0,1,1.46,1.45,5.76,5.76,0,0,1,.76,1.92,8.56,8.56,0,0,1,.17,2H82.54a3.94,3.94,0,0,0,.16,1.29,3,3,0,0,0,.58,1.08,2.82,2.82,0,0,0,1,.75,3.62,3.62,0,0,0,1.46.28,3,3,0,0,0,1.77-.5,2.45,2.45,0,0,0,.91-1.52h1.68A4.17,4.17,0,0,1,88.62,304.11Zm-.41-6.64a3,3,0,0,0-.62-.93,2.93,2.93,0,0,0-.92-.62,3.14,3.14,0,0,0-2.36,0,2.56,2.56,0,0,0-.91.63,2.66,2.66,0,0,0-.6.93,3.28,3.28,0,0,0-.26,1.13h5.94A3.65,3.65,0,0,0,88.21,297.47Z"/><path class="cls-1" d="M98.9,302.46a1.87,1.87,0,0,0,.63.62,3,3,0,0,0,.88.33,5.49,5.49,0,0,0,1,.1,6.38,6.38,0,0,0,.84-.06,3.45,3.45,0,0,0,.81-.22,1.67,1.67,0,0,0,.61-.47,1.26,1.26,0,0,0,.24-.79,1.13,1.13,0,0,0-.5-1,4.25,4.25,0,0,0-1.25-.55c-.5-.14-1-.27-1.63-.38a9.43,9.43,0,0,1-1.63-.48,3.43,3.43,0,0,1-1.25-.87,2.25,2.25,0,0,1-.5-1.56,2.41,2.41,0,0,1,.35-1.34,2.7,2.7,0,0,1,.9-.91,3.83,3.83,0,0,1,1.24-.52,5.36,5.36,0,0,1,1.37-.17,8.26,8.26,0,0,1,1.62.15,3.71,3.71,0,0,1,1.31.52,2.67,2.67,0,0,1,.91,1,3.89,3.89,0,0,1,.4,1.57h-1.7a1.81,1.81,0,0,0-.26-.83,1.77,1.77,0,0,0-.56-.53,2.44,2.44,0,0,0-.75-.29,3.91,3.91,0,0,0-.83-.09,5,5,0,0,0-.77.06,2.56,2.56,0,0,0-.71.21,1.32,1.32,0,0,0-.52.4,1.07,1.07,0,0,0,.11,1.38,2.52,2.52,0,0,0,.79.48,8.21,8.21,0,0,0,1.08.32q.6.12,1.2.27a11,11,0,0,1,1.25.34,4.18,4.18,0,0,1,1.08.53,2.63,2.63,0,0,1,.76.83,2.45,2.45,0,0,1,.29,1.24,2.91,2.91,0,0,1-.39,1.56,3.14,3.14,0,0,1-1,1,4.39,4.39,0,0,1-1.42.53,8.43,8.43,0,0,1-1.57.15,7.23,7.23,0,0,1-1.64-.18,4.09,4.09,0,0,1-1.38-.59,3.12,3.12,0,0,1-1-1.08,3.66,3.66,0,0,1-.4-1.63h1.7A1.89,1.89,0,0,0,98.9,302.46Z"/><path class="cls-1" d="M116.76,304.73a2.46,2.46,0,0,1-1.22.26,1.49,1.49,0,0,1-1.05-.37,1.61,1.61,0,0,1-.39-1.21,4.12,4.12,0,0,1-1.63,1.21,5.52,5.52,0,0,1-2,.37,5.7,5.7,0,0,1-1.33-.16,3.22,3.22,0,0,1-1.09-.5,2.45,2.45,0,0,1-.73-.89,3.51,3.51,0,0,1,0-2.77,2.5,2.5,0,0,1,.79-.91,3.41,3.41,0,0,1,1.12-.53q.63-.18,1.29-.3a11.4,11.4,0,0,1,1.33-.21,9,9,0,0,0,1.11-.2,2,2,0,0,0,.76-.38,1,1,0,0,0,.28-.73,1.66,1.66,0,0,0-.21-.9,1.42,1.42,0,0,0-.54-.52,2.22,2.22,0,0,0-.74-.24,5.73,5.73,0,0,0-.81-.06,3.53,3.53,0,0,0-1.8.41,1.74,1.74,0,0,0-.78,1.55h-1.7a3.58,3.58,0,0,1,.4-1.62,3,3,0,0,1,1-1.07,3.85,3.85,0,0,1,1.37-.59,7.19,7.19,0,0,1,1.65-.18,9.29,9.29,0,0,1,1.39.1,3.67,3.67,0,0,1,1.25.4,2.5,2.5,0,0,1,.9.87,2.87,2.87,0,0,1,.34,1.46v5.31a3.8,3.8,0,0,0,.07.88c0,.18.2.28.47.28a2.28,2.28,0,0,0,.52-.08Zm-2.76-5.3a2.31,2.31,0,0,1-.84.34,9.18,9.18,0,0,1-1.09.18l-1.15.16a4.25,4.25,0,0,0-1,.29,1.79,1.79,0,0,0-.75.57,1.53,1.53,0,0,0-.29,1,1.31,1.31,0,0,0,.17.71,1.41,1.41,0,0,0,.44.47,2,2,0,0,0,.63.26,3.69,3.69,0,0,0,.76.08,4.1,4.1,0,0,0,1.44-.23,3.3,3.3,0,0,0,1-.58,2.24,2.24,0,0,0,.56-.76,1.87,1.87,0,0,0,.18-.76Z"/><path class="cls-1" d="M119.94,294.43V296h0a4,4,0,0,1,5.08-1.36,2.24,2.24,0,0,1,1.1,1.36,3.49,3.49,0,0,1,1.37-1.3,3.81,3.81,0,0,1,1.87-.46,5.14,5.14,0,0,1,1.41.17,2.87,2.87,0,0,1,1.08.53,2.44,2.44,0,0,1,.7.93,3.49,3.49,0,0,1,.25,1.37v7.58h-1.7V298a5.11,5.11,0,0,0-.08-.9,2,2,0,0,0-.3-.73,1.49,1.49,0,0,0-.61-.49,2.44,2.44,0,0,0-1-.18,2.68,2.68,0,0,0-2,.72,2.59,2.59,0,0,0-.72,1.92v6.44h-1.7V298a4.35,4.35,0,0,0-.09-.92,2,2,0,0,0-.31-.73,1.46,1.46,0,0,0-.59-.48,2.21,2.21,0,0,0-1-.17,2.51,2.51,0,0,0-1.27.3,2.8,2.8,0,0,0-.86.72,2.89,2.89,0,0,0-.48.87,2.47,2.47,0,0,0-.15.75v6.44h-1.7V294.43Z"/><path class="cls-1" d="M142.72,304.11a4.76,4.76,0,0,1-2.92.88,5.39,5.39,0,0,1-2.15-.4,4.22,4.22,0,0,1-1.53-1.12,4.62,4.62,0,0,1-.93-1.72,8,8,0,0,1-.35-2.18,6.2,6.2,0,0,1,.36-2.16,5,5,0,0,1,1-1.7,4.4,4.4,0,0,1,1.54-1.12,4.63,4.63,0,0,1,1.95-.4,4.25,4.25,0,0,1,2.29.57,4.6,4.6,0,0,1,1.46,1.45,5.76,5.76,0,0,1,.76,1.92,8.56,8.56,0,0,1,.17,2h-7.74a3.94,3.94,0,0,0,.16,1.29,3,3,0,0,0,.58,1.08,2.82,2.82,0,0,0,1,.75,3.62,3.62,0,0,0,1.46.28,3,3,0,0,0,1.77-.5,2.45,2.45,0,0,0,.91-1.52h1.68A4.17,4.17,0,0,1,142.72,304.11Zm-.41-6.64a3,3,0,0,0-.62-.93,2.93,2.93,0,0,0-.92-.62,3.14,3.14,0,0,0-2.36,0,2.56,2.56,0,0,0-.91.63,2.66,2.66,0,0,0-.6.93,3.28,3.28,0,0,0-.26,1.13h5.94A3.65,3.65,0,0,0,142.31,297.47Z"/><path class="cls-1" d="M150.66,295.93v-1.5h1.74v-1.54a2.41,2.41,0,0,1,.73-1.91,3.05,3.05,0,0,1,2.13-.65,3.84,3.84,0,0,1,.55,0,2.22,2.22,0,0,1,.55.12V292a1.87,1.87,0,0,0-.48-.11l-.48,0a1.62,1.62,0,0,0-1,.24,1,1,0,0,0-.34.92v1.44h2v1.5h-2v8.84h-1.7v-8.84Z"/><path class="cls-1" d="M157.38,297.48a4.67,4.67,0,0,1,1-1.72,4.39,4.39,0,0,1,1.58-1.15,5.79,5.79,0,0,1,4.33,0,4.53,4.53,0,0,1,1.57,1.15,5,5,0,0,1,1,1.72,7.22,7.22,0,0,1,0,4.25,5.12,5.12,0,0,1-1,1.71,4.64,4.64,0,0,1-1.57,1.14,5.92,5.92,0,0,1-4.33,0,4.49,4.49,0,0,1-1.58-1.14,4.79,4.79,0,0,1-1-1.71,7.22,7.22,0,0,1,0-4.25Zm1.73,3.8a3.38,3.38,0,0,0,.69,1.22,3.07,3.07,0,0,0,1,.75,3.11,3.11,0,0,0,1.25.26,3.15,3.15,0,0,0,1.25-.26,3.29,3.29,0,0,0,1-.75,3.7,3.7,0,0,0,.69-1.22,5.38,5.38,0,0,0,.25-1.67,5.29,5.29,0,0,0-.25-1.67,3.65,3.65,0,0,0-.69-1.23,2.91,2.91,0,0,0-1-.76,3,3,0,0,0-1.25-.26,3,3,0,0,0-1.25.26,2.74,2.74,0,0,0-1,.76,3.34,3.34,0,0,0-.69,1.23,5,5,0,0,0-.25,1.67A5.1,5.1,0,0,0,159.11,301.28Z"/><path class="cls-1" d="M170.64,294.43v2.18h0a4.58,4.58,0,0,1,1.52-1.86,3.8,3.8,0,0,1,2.28-.56V296a4.74,4.74,0,0,0-1.74.28,2.67,2.67,0,0,0-1.16.82,3.22,3.22,0,0,0-.64,1.31,6.74,6.74,0,0,0-.2,1.77v4.6H169V294.43Z"/><path class="cls-1" d="M185.74,294.43v1.5h-2.06v6.42a1.6,1.6,0,0,0,0,.48.46.46,0,0,0,.19.28.89.89,0,0,0,.39.13,5.55,5.55,0,0,0,.65,0h.78v1.5h-1.3a6.08,6.08,0,0,1-1.13-.09,1.61,1.61,0,0,1-.76-.33,1.36,1.36,0,0,1-.43-.68,3.75,3.75,0,0,1-.14-1.16v-6.58h-1.76v-1.5H182v-3.1h1.7v3.1Z"/><path class="cls-1" d="M189.32,290.49V296h0a2.22,2.22,0,0,1,.56-.81,3.18,3.18,0,0,1,.81-.54,3.84,3.84,0,0,1,.94-.31,5,5,0,0,1,2.65.18,2.69,2.69,0,0,1,1.1.78,3,3,0,0,1,.59,1.19,6.57,6.57,0,0,1,.17,1.53v6.8h-1.7v-7a1.94,1.94,0,0,0-2.1-2.08,3.46,3.46,0,0,0-1.35.24,2.44,2.44,0,0,0-.95.68,2.66,2.66,0,0,0-.57,1,4.06,4.06,0,0,0-.19,1.29v5.84h-1.7V290.49Z"/><path class="cls-1" d="M206.06,304.11a4.76,4.76,0,0,1-2.92.88,5.39,5.39,0,0,1-2.15-.4,4.22,4.22,0,0,1-1.53-1.12,4.62,4.62,0,0,1-.93-1.72,8,8,0,0,1-.35-2.18,6.2,6.2,0,0,1,.36-2.16,5,5,0,0,1,1-1.7,4.4,4.4,0,0,1,1.54-1.12,4.63,4.63,0,0,1,1.95-.4,4.25,4.25,0,0,1,2.29.57,4.6,4.6,0,0,1,1.46,1.45,5.76,5.76,0,0,1,.76,1.92,8.56,8.56,0,0,1,.17,2H200a3.94,3.94,0,0,0,.16,1.29,3,3,0,0,0,.58,1.08,2.82,2.82,0,0,0,1,.75,3.62,3.62,0,0,0,1.46.28A3,3,0,0,0,205,303a2.45,2.45,0,0,0,.91-1.52h1.68A4.17,4.17,0,0,1,206.06,304.11Zm-.41-6.64a3,3,0,0,0-.62-.93,2.93,2.93,0,0,0-.92-.62,3.14,3.14,0,0,0-2.36,0,2.56,2.56,0,0,0-.91.63,2.66,2.66,0,0,0-.6.93,3.28,3.28,0,0,0-.26,1.13h5.94A3.65,3.65,0,0,0,205.65,297.47Z"/><path class="cls-1" d="M211.08,294.43V296h0a4,4,0,0,1,5.08-1.36,2.24,2.24,0,0,1,1.1,1.36,3.49,3.49,0,0,1,1.37-1.3,3.81,3.81,0,0,1,1.87-.46,5.14,5.14,0,0,1,1.41.17,2.87,2.87,0,0,1,1.08.53,2.44,2.44,0,0,1,.7.93,3.49,3.49,0,0,1,.25,1.37v7.58h-1.7V298a5.11,5.11,0,0,0-.08-.9,2,2,0,0,0-.3-.73,1.49,1.49,0,0,0-.61-.49,2.44,2.44,0,0,0-1-.18,2.68,2.68,0,0,0-2,.72,2.59,2.59,0,0,0-.72,1.92v6.44h-1.7V298a4.35,4.35,0,0,0-.09-.92,2,2,0,0,0-.31-.73,1.46,1.46,0,0,0-.59-.48,2.21,2.21,0,0,0-.95-.17,2.51,2.51,0,0,0-1.27.3,2.8,2.8,0,0,0-.86.72,2.89,2.89,0,0,0-.48.87,2.47,2.47,0,0,0-.15.75v6.44h-1.7V294.43Z"/><path class="cls-1" d="M229.14,302.55v2.22h-2.22v-2.22Z"/></svg>