<svg id="Layer_1" data-name="Layer 1" xmlns="http://www.w3.org/2000/svg" viewBox="0 0 400 400"><defs><style>.cls-1{fill:#fff;}</style></defs><title>textblock</title><rect width="400" height="400"/><path class="cls-1" d="M49.44,126.81v30.42H38.64V126.81H32.7v-9.6H55.38v9.6Z"/><path class="cls-1" d="M58.2,157.23v-40H69v40Z"/><path class="cls-1" d="M104.46,157.23,103.62,139c-.12-2.4-.12-4.86-.24-7.26-.24,2.58-.6,5.16-1.08,7.68l-3.36,17.82H90.12L87,138c-.36-2-.54-4.14-.72-6.24-.06,2.94,0,5.94-.18,8.88l-1,16.62H73.56l4.68-40H91.68c1.2,7.14,2.58,14.1,3.12,21.3.78-7.2,2.4-14.22,3.72-21.3h13.32l3.9,40Z"/><path class="cls-1" d="M120.54,157.23v-40h20v9.42h-9.24v5.82h8.28v9.06h-8.28v6.12h9.24v9.6Z"/><path class="cls-1" d="M173.09,126.81v30.42H162.3V126.81h-5.94v-9.6H179v9.6Z"/><path class="cls-1" d="M196.25,157.94a14.36,14.36,0,0,1-10.92-5.33c-3.48-4.2-4.5-10.5-4.5-15.78,0-9.42,4.38-20.34,15.36-20.34s15.06,11,15.06,20.34S207.47,157.94,196.25,157.94Zm-.12-31.37c-3.72,0-4.08,8-4.08,10.62s.24,10.62,4,10.62,4-8,4-10.56S199.85,126.57,196.13,126.57Z"/><path class="cls-1" d="M240.65,126.63v5.82h7.68v9.06h-7.68v15.72h-10.8v-40h19.08v9.42Z"/><path class="cls-1" d="M267.53,157.94a14.36,14.36,0,0,1-10.92-5.33c-3.48-4.2-4.5-10.5-4.5-15.78,0-9.42,4.38-20.34,15.36-20.34s15.06,11,15.06,20.34S278.75,157.94,267.53,157.94Zm-.12-31.37c-3.72,0-4.08,8-4.08,10.62s.24,10.62,4,10.62,4-8,4-10.56S271.13,126.57,267.41,126.57Z"/><path class="cls-1" d="M309,156.51a14.09,14.09,0,0,1-6.42,1.43c-11.52,0-16.44-10.37-16.44-20.57,0-11,5.64-20.88,17.7-20.88a11.63,11.63,0,0,1,5.34,1v11.4a6.43,6.43,0,0,0-5-2.4c-5.7,0-7,6.12-7,10.68s1.32,10.32,6.84,10.32c2.34,0,4-1.08,5.64-2.58Z"/><path class="cls-1" d="M341,145.53c0,4-.9,6.66-4,9.3a13.49,13.49,0,0,1-9.06,3.11,15.11,15.11,0,0,1-10.14-3.47c-3.12-2.76-3.9-6.42-3.9-10.44V117.21h10.8v25.86c0,2,.06,4.74,2.76,4.74s2.76-2.7,2.76-4.74V117.21H341Z"/><path class="cls-1" d="M365.45,130.77c-1.38-2.1-3.66-4.38-6.36-4.38a2.63,2.63,0,0,0-2.82,2.4c0,4.08,10.32,5.16,10.32,15.6,0,7.44-5,13.55-12.72,13.55a21.17,21.17,0,0,1-8.16-1.73V143.67c1.62,2.22,4,4.38,6.84,4.38,1.56,0,3.18-.9,3.18-2.64,0-4.26-10.2-5.64-10.2-15.78,0-7,5-13.14,12.18-13.14a16.74,16.74,0,0,1,7.74,2Z"/><path class="cls-1" d="M49.92,212.94A14.36,14.36,0,0,1,39,207.61c-3.48-4.2-4.5-10.5-4.5-15.78,0-9.42,4.38-20.34,15.36-20.34s15.06,11,15.06,20.34S61.14,212.94,49.92,212.94Zm-.12-31.37c-3.72,0-4.08,8-4.08,10.62s.24,10.62,4,10.62,4-8,4-10.56S53.52,181.57,49.8,181.57Z"/><path class="cls-1" d="M87.36,212.23c-2.82-7.62-5.94-15.18-8.16-23,.3,4.26.66,8.58.66,12.84v10.2H69.54v-40H79.86l5.4,14c1.26,3.3,2.28,6.72,3.3,10.08a121.36,121.36,0,0,1-1.2-14.76v-9.36H97.68v40Z"/><path class="cls-1" d="M135.23,195.31v16.92h-10.8V195.31l-10-23.1h11.27c1.32,4.08,2.76,8.16,3.78,12.36,1.14-4.14,2.4-8.28,3.78-12.36h11.16Z"/><path class="cls-1" d="M160,212.94a14.36,14.36,0,0,1-10.92-5.33c-3.48-4.2-4.5-10.5-4.5-15.78,0-9.42,4.38-20.34,15.36-20.34s15.06,11,15.06,20.34S171.23,212.94,160,212.94Zm-.12-31.37c-3.72,0-4.08,8-4.08,10.62s.24,10.62,4,10.62,4-8,4-10.56S163.61,181.57,159.89,181.57Z"/><path class="cls-1" d="M206.75,200.53c0,4-.9,6.66-4,9.3a13.49,13.49,0,0,1-9.06,3.11,15.11,15.11,0,0,1-10.14-3.47c-3.12-2.76-3.9-6.42-3.9-10.44V172.21h10.8v25.86c0,2,.06,4.74,2.76,4.74s2.76-2.7,2.76-4.74V172.21h10.8Z"/><path class="cls-1" d="M229.07,212.23c-2-5.52-4.14-11-6.12-16.62.12,1.74.18,3.54.18,5.28v11.34h-10.8v-40h11a22,22,0,0,1,8.34,1.38c4.8,2,7.2,7,7.2,12,0,4.68-1.86,8-6.18,10l8,16.62Zm-5.22-21.48c2.76,0,4.32-2.52,4.32-5,0-3.24-2-4.5-5-4.5v9.54Z"/><path class="cls-1" d="M263.21,185.77c-1.38-2.1-3.66-4.38-6.36-4.38a2.63,2.63,0,0,0-2.82,2.4c0,4.08,10.32,5.16,10.32,15.6,0,7.44-5,13.55-12.72,13.55a21.17,21.17,0,0,1-8.16-1.73V198.67c1.62,2.22,4,4.38,6.84,4.38,1.56,0,3.18-.9,3.18-2.64,0-4.26-10.2-5.64-10.2-15.78,0-7,5-13.14,12.18-13.14a16.74,16.74,0,0,1,7.74,2Z"/><path class="cls-1" d="M268.55,212.23v-40h20v9.42h-9.24v5.82h8.28v9.06h-8.28v6.12h9.24v9.6Z"/><path class="cls-1" d="M293.21,212.23v-40H304v30.42h8.1v9.6Z"/><path class="cls-1" d="M326.15,181.63v5.82h7.68v9.06h-7.68v15.72h-10.8v-40h19.08v9.42Z"/><path class="cls-1" d="M42,242.49a4.69,4.69,0,0,1,3.19,1,3.45,3.45,0,0,1,1.15,2.74,4.4,4.4,0,0,1-.59,2.28,3.09,3.09,0,0,1-1.89,1.34v0a2.52,2.52,0,0,1,1,.4,2.2,2.2,0,0,1,.62.67,3.36,3.36,0,0,1,.34.87,9.91,9.91,0,0,1,.17,1c0,.34,0,.7.06,1.06a7.46,7.46,0,0,0,.1,1.06,6.48,6.48,0,0,0,.23,1,2.47,2.47,0,0,0,.45.83H44.7a1.11,1.11,0,0,1-.27-.6,5.41,5.41,0,0,1-.09-.85c0-.32,0-.65,0-1a9,9,0,0,0-.12-1.06c-.06-.35-.12-.68-.2-1a2.3,2.3,0,0,0-.38-.82,1.86,1.86,0,0,0-.68-.56,2.54,2.54,0,0,0-1.12-.21H37.16v6.1h-1.9V242.49Zm.4,6.48a2.86,2.86,0,0,0,1-.39,2.25,2.25,0,0,0,.72-.78,2.63,2.63,0,0,0,.27-1.27,2.56,2.56,0,0,0-.6-1.76,2.45,2.45,0,0,0-1.94-.68H37.16v5h4A8.46,8.46,0,0,0,42.38,249Z"/><path class="cls-1" d="M56,256.11a4.76,4.76,0,0,1-2.92.88,5.39,5.39,0,0,1-2.15-.4,4.22,4.22,0,0,1-1.53-1.12,4.62,4.62,0,0,1-.93-1.72,8,8,0,0,1-.35-2.18,6.2,6.2,0,0,1,.36-2.16,5,5,0,0,1,1-1.7A4.4,4.4,0,0,1,51,246.59a4.63,4.63,0,0,1,1.95-.4,4.25,4.25,0,0,1,2.29.57,4.6,4.6,0,0,1,1.46,1.45,5.76,5.76,0,0,1,.76,1.92,8.56,8.56,0,0,1,.17,2H49.92a3.94,3.94,0,0,0,.16,1.29,3,3,0,0,0,.58,1.08,2.82,2.82,0,0,0,1,.75,3.62,3.62,0,0,0,1.46.28,3,3,0,0,0,1.77-.5,2.45,2.45,0,0,0,.91-1.52H57.5A4.17,4.17,0,0,1,56,256.11Zm-.41-6.64a3,3,0,0,0-.62-.93,2.93,2.93,0,0,0-.92-.62,3.14,3.14,0,0,0-2.36,0,2.56,2.56,0,0,0-.91.63,2.66,2.66,0,0,0-.6.93,3.28,3.28,0,0,0-.26,1.13h5.94A3.65,3.65,0,0,0,55.59,249.47Z"/><path class="cls-1" d="M65.6,248.23a2.59,2.59,0,0,0-1.72-.54,3.11,3.11,0,0,0-1.54.34,2.54,2.54,0,0,0-1,.9,3.55,3.55,0,0,0-.53,1.29,6.79,6.79,0,0,0-.16,1.51,5.48,5.48,0,0,0,.17,1.4,3.78,3.78,0,0,0,.53,1.21,2.75,2.75,0,0,0,.94.85,3.22,3.22,0,0,0,3.35-.34,3,3,0,0,0,.87-1.86h1.74a4.83,4.83,0,0,1-1.43,3,4.51,4.51,0,0,1-3.13,1,5.41,5.41,0,0,1-2.09-.38,4.12,4.12,0,0,1-1.52-1.08,4.6,4.6,0,0,1-.92-1.67,6.9,6.9,0,0,1-.31-2.13,7.54,7.54,0,0,1,.3-2.17,4.91,4.91,0,0,1,.91-1.76,4.09,4.09,0,0,1,1.53-1.18,4.93,4.93,0,0,1,2.14-.43,6.32,6.32,0,0,1,1.65.21,4,4,0,0,1,1.36.65,3.6,3.6,0,0,1,1,1.11,4.13,4.13,0,0,1,.48,1.59H66.44A2.64,2.64,0,0,0,65.6,248.23Z"/><path class="cls-1" d="M69.92,249.48a4.67,4.67,0,0,1,1-1.72,4.39,4.39,0,0,1,1.58-1.15,5.79,5.79,0,0,1,4.33,0,4.53,4.53,0,0,1,1.57,1.15,5,5,0,0,1,1,1.72,7.22,7.22,0,0,1,0,4.25,5.12,5.12,0,0,1-1,1.71,4.64,4.64,0,0,1-1.57,1.14,5.92,5.92,0,0,1-4.33,0,4.49,4.49,0,0,1-1.58-1.14,4.79,4.79,0,0,1-1-1.71,7.22,7.22,0,0,1,0-4.25Zm1.73,3.8a3.38,3.38,0,0,0,.69,1.22,3.07,3.07,0,0,0,1,.75,3.11,3.11,0,0,0,1.25.26,3.15,3.15,0,0,0,1.25-.26,3.29,3.29,0,0,0,1-.75,3.7,3.7,0,0,0,.69-1.22,5.38,5.38,0,0,0,.25-1.67,5.29,5.29,0,0,0-.25-1.67,3.65,3.65,0,0,0-.69-1.23,2.91,2.91,0,0,0-1-.76,3,3,0,0,0-1.25-.26,3,3,0,0,0-1.25.26,2.74,2.74,0,0,0-1,.76,3.34,3.34,0,0,0-.69,1.23,5,5,0,0,0-.25,1.67A5.1,5.1,0,0,0,71.65,253.28Z"/><path class="cls-1" d="M89.4,259.69A4.74,4.74,0,0,1,85.76,261a7.51,7.51,0,0,1-1.47-.16,4.52,4.52,0,0,1-1.36-.52,3.14,3.14,0,0,1-1-.94,2.6,2.6,0,0,1-.44-1.42h1.7a1.27,1.27,0,0,0,.29.78,2.27,2.27,0,0,0,.66.52,3.28,3.28,0,0,0,.85.29,4.53,4.53,0,0,0,.88.09,3.21,3.21,0,0,0,1.42-.29,2.86,2.86,0,0,0,1-.8,3.47,3.47,0,0,0,.55-1.23,7.09,7.09,0,0,0,.17-1.58V255h0a2.9,2.9,0,0,1-1.33,1.41,4.17,4.17,0,0,1-1.89.45,4.52,4.52,0,0,1-2-.42,4.14,4.14,0,0,1-1.44-1.13,4.79,4.79,0,0,1-.87-1.66,6.69,6.69,0,0,1-.29-2,7.77,7.77,0,0,1,.24-1.89,5,5,0,0,1,.8-1.76,4.26,4.26,0,0,1,1.48-1.3,4.58,4.58,0,0,1,2.26-.51,3.8,3.8,0,0,1,1.8.43,3,3,0,0,1,1.28,1.29h0v-1.48h1.6v9.46A5.47,5.47,0,0,1,89.4,259.69ZM87.23,255a2.88,2.88,0,0,0,1-.92,4.38,4.38,0,0,0,.53-1.29,6.44,6.44,0,0,0,.17-1.44,6,6,0,0,0-.16-1.34,3.86,3.86,0,0,0-.51-1.19,2.57,2.57,0,0,0-2.27-1.17,2.87,2.87,0,0,0-1.4.31,2.55,2.55,0,0,0-1,.83,3.29,3.29,0,0,0-.54,1.2,5.47,5.47,0,0,0-.17,1.42,6.72,6.72,0,0,0,.14,1.4,3.89,3.89,0,0,0,.48,1.27,2.51,2.51,0,0,0,2.3,1.27A2.81,2.81,0,0,0,87.23,255Z"/><path class="cls-1" d="M94.72,246.43v1.64h0a3.55,3.55,0,0,1,3.36-1.88,4.45,4.45,0,0,1,1.7.28,2.69,2.69,0,0,1,1.1.78,3,3,0,0,1,.59,1.19,6.57,6.57,0,0,1,.17,1.53v6.8H100v-7a1.94,1.94,0,0,0-2.1-2.08,3.46,3.46,0,0,0-1.35.24,2.44,2.44,0,0,0-1,.68,2.66,2.66,0,0,0-.57,1,4.06,4.06,0,0,0-.19,1.29v5.84h-1.7V246.43Z"/><path class="cls-1" d="M104.34,244.57v-2.08H106v2.08Zm1.7,1.86v10.34h-1.7V246.43Z"/><path class="cls-1" d="M114.08,247.93h-5.84v-1.5h8v1.16L110,255.27h6.6v1.5h-8.72v-1.3Z"/><path class="cls-1" d="M125.6,256.11a4.76,4.76,0,0,1-2.92.88,5.39,5.39,0,0,1-2.15-.4,4.22,4.22,0,0,1-1.53-1.12,4.62,4.62,0,0,1-.93-1.72,8,8,0,0,1-.35-2.18,6.2,6.2,0,0,1,.36-2.16,5,5,0,0,1,1-1.7,4.4,4.4,0,0,1,1.54-1.12,4.63,4.63,0,0,1,2-.4,4.25,4.25,0,0,1,2.29.57,4.6,4.6,0,0,1,1.46,1.45,5.76,5.76,0,0,1,.76,1.92,8.56,8.56,0,0,1,.17,2h-7.74a3.94,3.94,0,0,0,.16,1.29,3,3,0,0,0,.58,1.08,2.82,2.82,0,0,0,1,.75,3.62,3.62,0,0,0,1.46.28,3,3,0,0,0,1.77-.5,2.45,2.45,0,0,0,.91-1.52h1.68A4.17,4.17,0,0,1,125.6,256.11Zm-.41-6.64a3,3,0,0,0-.62-.93,2.93,2.93,0,0,0-.92-.62,3.14,3.14,0,0,0-2.36,0,2.56,2.56,0,0,0-.91.63,2.66,2.66,0,0,0-.6.93,3.28,3.28,0,0,0-.26,1.13h5.94A3.65,3.65,0,0,0,125.19,249.47Z"/><path class="cls-1" d="M143.74,256.73a2.46,2.46,0,0,1-1.22.26,1.49,1.49,0,0,1-1.05-.37,1.61,1.61,0,0,1-.39-1.21,4.12,4.12,0,0,1-1.63,1.21,5.52,5.52,0,0,1-2,.37,5.7,5.7,0,0,1-1.33-.16,3.22,3.22,0,0,1-1.09-.5,2.45,2.45,0,0,1-.73-.89,3.51,3.51,0,0,1,0-2.77,2.5,2.5,0,0,1,.79-.91,3.41,3.41,0,0,1,1.12-.53q.63-.18,1.29-.3a11.4,11.4,0,0,1,1.33-.21,9,9,0,0,0,1.11-.2,2,2,0,0,0,.76-.38,1,1,0,0,0,.28-.73,1.66,1.66,0,0,0-.21-.9,1.42,1.42,0,0,0-.54-.52,2.22,2.22,0,0,0-.74-.24,5.73,5.73,0,0,0-.81-.06,3.53,3.53,0,0,0-1.8.41,1.74,1.74,0,0,0-.78,1.55h-1.7a3.58,3.58,0,0,1,.4-1.62,3,3,0,0,1,1-1.07,3.85,3.85,0,0,1,1.37-.59,7.19,7.19,0,0,1,1.65-.18,9.29,9.29,0,0,1,1.39.1,3.67,3.67,0,0,1,1.25.4,2.5,2.5,0,0,1,.9.87,2.87,2.87,0,0,1,.34,1.46v5.31a3.8,3.8,0,0,0,.07.88c0,.18.2.28.47.28a2.28,2.28,0,0,0,.52-.08Zm-2.76-5.3a2.31,2.31,0,0,1-.84.34,9.18,9.18,0,0,1-1.09.18l-1.15.16a4.25,4.25,0,0,0-1,.29,1.79,1.79,0,0,0-.75.57,1.53,1.53,0,0,0-.29,1,1.31,1.31,0,0,0,.17.71,1.41,1.41,0,0,0,.44.47,2,2,0,0,0,.63.26,3.69,3.69,0,0,0,.76.08,4.1,4.1,0,0,0,1.44-.23,3.3,3.3,0,0,0,1-.58,2.24,2.24,0,0,0,.56-.76,1.87,1.87,0,0,0,.18-.76Z"/><path class="cls-1" d="M146.92,246.43v1.64h0a3.55,3.55,0,0,1,3.36-1.88,4.45,4.45,0,0,1,1.7.28,2.69,2.69,0,0,1,1.1.78,3,3,0,0,1,.59,1.19,6.57,6.57,0,0,1,.17,1.53v6.8h-1.7v-7a1.94,1.94,0,0,0-2.1-2.08,3.46,3.46,0,0,0-1.35.24,2.44,2.44,0,0,0-.95.68,2.66,2.66,0,0,0-.57,1,4.06,4.06,0,0,0-.19,1.29v5.84h-1.7V246.43Z"/><path class="cls-1" d="M164,256.77v-1.4h0a2.54,2.54,0,0,1-1.32,1.24,5.1,5.1,0,0,1-2,.38,4.7,4.7,0,0,1-2.09-.44,4.32,4.32,0,0,1-1.48-1.18,5.12,5.12,0,0,1-.89-1.72,7.12,7.12,0,0,1-.3-2.08,7,7,0,0,1,.29-2.08,4.63,4.63,0,0,1,.88-1.71,4.05,4.05,0,0,1,1.48-1.16,4.64,4.64,0,0,1,2.07-.43,4.51,4.51,0,0,1,.86.08,4.16,4.16,0,0,1,.92.27,3.83,3.83,0,0,1,.87.5,2.7,2.7,0,0,1,.69.77h0v-5.32h1.7v14.28Zm-6.11-3.67a3.67,3.67,0,0,0,.58,1.23,2.88,2.88,0,0,0,1,.86,3,3,0,0,0,1.43.32,3,3,0,0,0,1.46-.34,3.1,3.1,0,0,0,1-.89,4,4,0,0,0,.55-1.25,6.2,6.2,0,0,0,.17-1.42,5.92,5.92,0,0,0-.18-1.47,3.58,3.58,0,0,0-.57-1.25,2.94,2.94,0,0,0-1-.87,3.19,3.19,0,0,0-1.5-.33,2.87,2.87,0,0,0-1.46.34,2.59,2.59,0,0,0-1,.9,3.75,3.75,0,0,0-.52,1.28,6.58,6.58,0,0,0-.16,1.48A5.16,5.16,0,0,0,157.87,253.1Z"/><path class="cls-1" d="M183,256.73a2.46,2.46,0,0,1-1.22.26,1.49,1.49,0,0,1-1.05-.37,1.61,1.61,0,0,1-.39-1.21,4.12,4.12,0,0,1-1.63,1.21,5.52,5.52,0,0,1-2,.37,5.7,5.7,0,0,1-1.33-.16,3.22,3.22,0,0,1-1.09-.5,2.45,2.45,0,0,1-.73-.89,3.51,3.51,0,0,1,0-2.77,2.5,2.5,0,0,1,.79-.91,3.41,3.41,0,0,1,1.12-.53q.63-.18,1.29-.3a11.4,11.4,0,0,1,1.33-.21,9,9,0,0,0,1.11-.2,2,2,0,0,0,.76-.38,1,1,0,0,0,.28-.73,1.66,1.66,0,0,0-.21-.9,1.42,1.42,0,0,0-.54-.52,2.22,2.22,0,0,0-.74-.24,5.73,5.73,0,0,0-.81-.06,3.53,3.53,0,0,0-1.8.41,1.74,1.74,0,0,0-.78,1.55h-1.7a3.58,3.58,0,0,1,.4-1.62,3,3,0,0,1,1-1.07,3.85,3.85,0,0,1,1.37-.59,7.19,7.19,0,0,1,1.65-.18,9.29,9.29,0,0,1,1.39.1,3.67,3.67,0,0,1,1.25.4,2.5,2.5,0,0,1,.9.87A2.87,2.87,0,0,1,182,249v5.31a3.8,3.8,0,0,0,.07.88c0,.18.2.28.47.28a2.28,2.28,0,0,0,.52-.08Zm-2.76-5.3a2.31,2.31,0,0,1-.84.34,9.18,9.18,0,0,1-1.09.18l-1.15.16a4.25,4.25,0,0,0-1,.29,1.79,1.79,0,0,0-.75.57,1.53,1.53,0,0,0-.29,1,1.31,1.31,0,0,0,.17.71,1.41,1.41,0,0,0,.44.47,2,2,0,0,0,.63.26,3.69,3.69,0,0,0,.76.08,4.1,4.1,0,0,0,1.44-.23,3.3,3.3,0,0,0,1-.58,2.24,2.24,0,0,0,.56-.76,1.87,1.87,0,0,0,.18-.76Z"/><path class="cls-1" d="M186.36,246.43v1.4h0a2.52,2.52,0,0,1,1.32-1.25,4.93,4.93,0,0,1,2-.39,4.6,4.6,0,0,1,2.09.44,4.31,4.31,0,0,1,1.48,1.19,5.25,5.25,0,0,1,.89,1.73,7,7,0,0,1,.3,2.08,7.47,7.47,0,0,1-.29,2.08,5.13,5.13,0,0,1-.88,1.71,4.32,4.32,0,0,1-1.48,1.15,4.84,4.84,0,0,1-2.07.42,5.38,5.38,0,0,1-.85-.08,4.93,4.93,0,0,1-.93-.26,3.74,3.74,0,0,1-.87-.49,2.67,2.67,0,0,1-.69-.77h0v5.32h-1.7V246.43Zm6.11,3.67a3.88,3.88,0,0,0-.58-1.23,2.87,2.87,0,0,0-1-.86,3,3,0,0,0-1.43-.32A2.87,2.87,0,0,0,188,248a2.8,2.8,0,0,0-1,.89,3.46,3.46,0,0,0-.55,1.25,5.63,5.63,0,0,0-.17,1.42,6,6,0,0,0,.18,1.47,3.67,3.67,0,0,0,.57,1.25,2.85,2.85,0,0,0,1,.87,3.14,3.14,0,0,0,1.5.33,3,3,0,0,0,1.47-.34,2.83,2.83,0,0,0,.95-.9,4.05,4.05,0,0,0,.52-1.28,7.29,7.29,0,0,0,.16-1.48A5.57,5.57,0,0,0,192.47,250.1Z"/><path class="cls-1" d="M198.22,246.43v1.4h0a2.52,2.52,0,0,1,1.32-1.25,4.93,4.93,0,0,1,2-.39,4.6,4.6,0,0,1,2.09.44,4.31,4.31,0,0,1,1.48,1.19,5.25,5.25,0,0,1,.89,1.73,7,7,0,0,1,.3,2.08,7.47,7.47,0,0,1-.29,2.08,5.13,5.13,0,0,1-.88,1.71,4.32,4.32,0,0,1-1.48,1.15,4.84,4.84,0,0,1-2.07.42,5.38,5.38,0,0,1-.85-.08,4.93,4.93,0,0,1-.93-.26,3.74,3.74,0,0,1-.87-.49,2.67,2.67,0,0,1-.69-.77h0v5.32h-1.7V246.43Zm6.11,3.67a3.88,3.88,0,0,0-.58-1.23,2.87,2.87,0,0,0-1-.86,3,3,0,0,0-1.43-.32,2.87,2.87,0,0,0-1.46.34,2.8,2.8,0,0,0-1,.89,3.46,3.46,0,0,0-.55,1.25,5.63,5.63,0,0,0-.17,1.42,6,6,0,0,0,.18,1.47,3.67,3.67,0,0,0,.57,1.25,2.85,2.85,0,0,0,1,.87,3.14,3.14,0,0,0,1.5.33,3,3,0,0,0,1.47-.34,2.83,2.83,0,0,0,1-.9,4.05,4.05,0,0,0,.52-1.28,7.29,7.29,0,0,0,.16-1.48A5.57,5.57,0,0,0,204.33,250.1Z"/><path class="cls-1" d="M209.86,246.43v2.18h0a4.58,4.58,0,0,1,1.52-1.86,3.8,3.8,0,0,1,2.28-.56V248a4.74,4.74,0,0,0-1.74.28,2.67,2.67,0,0,0-1.16.82,3.22,3.22,0,0,0-.64,1.31,6.74,6.74,0,0,0-.2,1.77v4.6h-1.7V246.43Z"/><path class="cls-1" d="M221.94,256.11A4.76,4.76,0,0,1,219,257a5.39,5.39,0,0,1-2.15-.4,4.22,4.22,0,0,1-1.53-1.12,4.62,4.62,0,0,1-.93-1.72,8,8,0,0,1-.35-2.18,6.2,6.2,0,0,1,.36-2.16,5,5,0,0,1,1-1.7,4.4,4.4,0,0,1,1.54-1.12,4.63,4.63,0,0,1,1.95-.4,4.25,4.25,0,0,1,2.29.57,4.6,4.6,0,0,1,1.46,1.45,5.76,5.76,0,0,1,.76,1.92,8.56,8.56,0,0,1,.17,2h-7.74a3.94,3.94,0,0,0,.16,1.29,3,3,0,0,0,.58,1.08,2.82,2.82,0,0,0,1,.75,3.62,3.62,0,0,0,1.46.28,3,3,0,0,0,1.77-.5,2.45,2.45,0,0,0,.91-1.52h1.68A4.17,4.17,0,0,1,221.94,256.11Zm-.41-6.64a3,3,0,0,0-.62-.93,2.93,2.93,0,0,0-.92-.62,3.14,3.14,0,0,0-2.36,0,2.56,2.56,0,0,0-.91.63,2.66,2.66,0,0,0-.6.93,3.28,3.28,0,0,0-.26,1.13h5.94A3.65,3.65,0,0,0,221.53,249.47Z"/><path class="cls-1" d="M231.54,248.23a2.59,2.59,0,0,0-1.72-.54,3.11,3.11,0,0,0-1.54.34,2.54,2.54,0,0,0-1,.9,3.55,3.55,0,0,0-.53,1.29,6.79,6.79,0,0,0-.16,1.51,5.48,5.48,0,0,0,.17,1.4,3.78,3.78,0,0,0,.53,1.21,2.75,2.75,0,0,0,.94.85,3.22,3.22,0,0,0,3.35-.34,3,3,0,0,0,.87-1.86h1.74a4.83,4.83,0,0,1-1.43,3,4.51,4.51,0,0,1-3.13,1,5.41,5.41,0,0,1-2.09-.38,4.12,4.12,0,0,1-1.52-1.08,4.6,4.6,0,0,1-.92-1.67,6.9,6.9,0,0,1-.31-2.13,7.54,7.54,0,0,1,.3-2.17,4.91,4.91,0,0,1,.91-1.76,4.09,4.09,0,0,1,1.53-1.18,4.93,4.93,0,0,1,2.14-.43,6.32,6.32,0,0,1,1.65.21,4,4,0,0,1,1.36.65,3.6,3.6,0,0,1,1,1.11,4.13,4.13,0,0,1,.48,1.59h-1.76A2.64,2.64,0,0,0,231.54,248.23Z"/><path class="cls-1" d="M236.2,244.57v-2.08h1.7v2.08Zm1.7,1.86v10.34h-1.7V246.43Z"/><path class="cls-1" d="M249.69,256.73a2.39,2.39,0,0,1-1.21.26,1.52,1.52,0,0,1-1.06-.37,1.66,1.66,0,0,1-.39-1.21,4.05,4.05,0,0,1-1.63,1.21,5.51,5.51,0,0,1-2,.37,5.79,5.79,0,0,1-1.34-.16,3.26,3.26,0,0,1-1.08-.5,2.35,2.35,0,0,1-.73-.89,2.87,2.87,0,0,1-.27-1.33,3,3,0,0,1,.29-1.44,2.7,2.7,0,0,1,.79-.91,3.46,3.46,0,0,1,1.13-.53,12.18,12.18,0,0,1,1.29-.3,11.24,11.24,0,0,1,1.32-.21,9.13,9.13,0,0,0,1.12-.2,2,2,0,0,0,.75-.38.93.93,0,0,0,.29-.73,1.76,1.76,0,0,0-.21-.9,1.57,1.57,0,0,0-.54-.52,2.28,2.28,0,0,0-.75-.24,5.52,5.52,0,0,0-.81-.06,3.55,3.55,0,0,0-1.8.41,1.76,1.76,0,0,0-.78,1.55h-1.69a3.58,3.58,0,0,1,.39-1.62,3,3,0,0,1,1-1.07,3.93,3.93,0,0,1,1.37-.59,7.32,7.32,0,0,1,1.65-.18,9.32,9.32,0,0,1,1.4.1,3.74,3.74,0,0,1,1.25.4,2.4,2.4,0,0,1,.89.87,2.77,2.77,0,0,1,.34,1.46v5.31a3.68,3.68,0,0,0,.08.88c0,.18.2.28.46.28a2.13,2.13,0,0,0,.52-.08Zm-2.75-5.3a2.29,2.29,0,0,1-.85.34A8.85,8.85,0,0,1,245,252l-1.15.16a4.52,4.52,0,0,0-1,.29,1.92,1.92,0,0,0-.75.57,1.59,1.59,0,0,0-.29,1,1.41,1.41,0,0,0,.17.71,1.65,1.65,0,0,0,.44.47,2,2,0,0,0,.63.26,3.77,3.77,0,0,0,.76.08,4.1,4.1,0,0,0,1.44-.23,3.18,3.18,0,0,0,1-.58,2.11,2.11,0,0,0,.56-.76,1.74,1.74,0,0,0,.19-.76Z"/><path class="cls-1" d="M255.69,246.43v1.5h-2.06v6.42a2,2,0,0,0,.05.48.56.56,0,0,0,.19.28,1,1,0,0,0,.39.13,5.79,5.79,0,0,0,.65,0h.78v1.5h-1.3a6.15,6.15,0,0,1-1.13-.09,1.71,1.71,0,0,1-.76-.33,1.51,1.51,0,0,1-.43-.68,4.08,4.08,0,0,1-.14-1.16v-6.58h-1.76v-1.5h1.76v-3.1h1.7v3.1Z"/><path class="cls-1" d="M264.89,256.11A4.72,4.72,0,0,1,262,257a5.46,5.46,0,0,1-2.15-.4,4.4,4.4,0,0,1-1.53-1.12,4.92,4.92,0,0,1-.93-1.72,8.8,8.8,0,0,1-.35-2.18,6.2,6.2,0,0,1,.36-2.16,5.15,5.15,0,0,1,1-1.7,4.59,4.59,0,0,1,1.54-1.12,4.69,4.69,0,0,1,1.95-.4,4.23,4.23,0,0,1,2.29.57,4.4,4.4,0,0,1,1.46,1.45,5.56,5.56,0,0,1,.76,1.92,8,8,0,0,1,.17,2h-7.74a4.23,4.23,0,0,0,.16,1.29,3.14,3.14,0,0,0,.58,1.08,3,3,0,0,0,1,.75,3.65,3.65,0,0,0,1.46.28,3,3,0,0,0,1.77-.5,2.41,2.41,0,0,0,.91-1.52h1.68A4.08,4.08,0,0,1,264.89,256.11Zm-.41-6.64a2.86,2.86,0,0,0-.62-.93,2.82,2.82,0,0,0-.92-.62,2.78,2.78,0,0,0-1.17-.23,2.87,2.87,0,0,0-1.19.23,2.75,2.75,0,0,0-.91.63,3,3,0,0,0-.6.93,3.81,3.81,0,0,0-.26,1.13h5.94A3.17,3.17,0,0,0,264.48,249.47Z"/><path class="cls-1" d="M277.93,258.15a10.5,10.5,0,0,1-.59,1.28,3.38,3.38,0,0,1-.64.85,2.12,2.12,0,0,1-.78.48,3,3,0,0,1-1,.15c-.2,0-.4,0-.6,0a3.77,3.77,0,0,1-.58-.14v-1.56a4.35,4.35,0,0,0,.51.17,2.72,2.72,0,0,0,.49.07,1.49,1.49,0,0,0,.87-.25,1.54,1.54,0,0,0,.53-.71l.7-1.74-4.1-10.28h1.92l3,8.46h0l2.9-8.46h1.8Z"/><path class="cls-1" d="M283.63,249.48a5,5,0,0,1,1-1.72,4.57,4.57,0,0,1,1.58-1.15,5.79,5.79,0,0,1,4.33,0,4.44,4.44,0,0,1,1.57,1.15,4.67,4.67,0,0,1,1,1.72,7.22,7.22,0,0,1,0,4.25,4.79,4.79,0,0,1-1,1.71,4.54,4.54,0,0,1-1.57,1.14,5.92,5.92,0,0,1-4.33,0,4.68,4.68,0,0,1-1.58-1.14,5.12,5.12,0,0,1-1-1.71,7.22,7.22,0,0,1,0-4.25Zm1.73,3.8a3.7,3.7,0,0,0,.69,1.22,3.29,3.29,0,0,0,1,.75,3.15,3.15,0,0,0,1.25.26,3.11,3.11,0,0,0,1.25-.26,3.07,3.07,0,0,0,1-.75,3.38,3.38,0,0,0,.69-1.22,5.1,5.1,0,0,0,.25-1.67,5,5,0,0,0-.25-1.67,3.34,3.34,0,0,0-.69-1.23,2.74,2.74,0,0,0-1-.76,3,3,0,0,0-1.25-.26,3,3,0,0,0-1.25.26,2.91,2.91,0,0,0-1,.76,3.65,3.65,0,0,0-.69,1.23,5.29,5.29,0,0,0-.25,1.67A5.38,5.38,0,0,0,285.36,253.28Z"/><path class="cls-1" d="M302.31,256.77v-1.64h0a3.47,3.47,0,0,1-1.38,1.41,4.13,4.13,0,0,1-2,.45,4.66,4.66,0,0,1-1.7-.27,2.77,2.77,0,0,1-1.1-.77,3,3,0,0,1-.59-1.19,6.57,6.57,0,0,1-.17-1.53v-6.8h1.7v7a2.08,2.08,0,0,0,.56,1.52,2.11,2.11,0,0,0,1.54.56,3.46,3.46,0,0,0,1.35-.24,2.54,2.54,0,0,0,.95-.68,2.81,2.81,0,0,0,.57-1,4.15,4.15,0,0,0,.19-1.29v-5.84h1.7v10.34Z"/><path class="cls-1" d="M308,246.43v2.18h0a4.66,4.66,0,0,1,1.52-1.86,3.8,3.8,0,0,1,2.28-.56V248a4.74,4.74,0,0,0-1.74.28,2.73,2.73,0,0,0-1.16.82,3.49,3.49,0,0,0-.64,1.31,7.19,7.19,0,0,0-.2,1.77v4.6h-1.7V246.43Z"/><path class="cls-1" d="M36.58,270.43v1.64h0A3.55,3.55,0,0,1,40,270.19a4.45,4.45,0,0,1,1.7.28,2.69,2.69,0,0,1,1.1.78,3,3,0,0,1,.59,1.19,6.57,6.57,0,0,1,.17,1.53v6.8h-1.7v-7a1.94,1.94,0,0,0-2.1-2.08,3.46,3.46,0,0,0-1.35.24,2.44,2.44,0,0,0-1,.68,2.66,2.66,0,0,0-.57,1,4.06,4.06,0,0,0-.19,1.29v5.84H35V270.43Z"/><path class="cls-1" d="M53.42,280.11a4.76,4.76,0,0,1-2.92.88,5.39,5.39,0,0,1-2.15-.4,4.22,4.22,0,0,1-1.53-1.12,4.62,4.62,0,0,1-.93-1.72,8,8,0,0,1-.35-2.18,6.2,6.2,0,0,1,.36-2.16,5,5,0,0,1,1-1.7,4.4,4.4,0,0,1,1.54-1.12,4.63,4.63,0,0,1,1.95-.4,4.25,4.25,0,0,1,2.29.57,4.6,4.6,0,0,1,1.46,1.45,5.76,5.76,0,0,1,.76,1.92,8.56,8.56,0,0,1,.17,2H47.34a3.94,3.94,0,0,0,.16,1.29,3,3,0,0,0,.58,1.08,2.82,2.82,0,0,0,1,.75,3.62,3.62,0,0,0,1.46.28,3,3,0,0,0,1.77-.5,2.45,2.45,0,0,0,.91-1.52h1.68A4.17,4.17,0,0,1,53.42,280.11ZM53,273.47a3,3,0,0,0-.62-.93,2.93,2.93,0,0,0-.92-.62,3.14,3.14,0,0,0-2.36,0,2.56,2.56,0,0,0-.91.63,2.66,2.66,0,0,0-.6.93,3.28,3.28,0,0,0-.26,1.13h5.94A3.65,3.65,0,0,0,53,273.47Z"/><path class="cls-1" d="M64.16,280.11a4.76,4.76,0,0,1-2.92.88,5.39,5.39,0,0,1-2.15-.4,4.22,4.22,0,0,1-1.53-1.12,4.62,4.62,0,0,1-.93-1.72,8,8,0,0,1-.35-2.18,6.2,6.2,0,0,1,.36-2.16,5,5,0,0,1,1-1.7,4.4,4.4,0,0,1,1.54-1.12,4.63,4.63,0,0,1,2-.4,4.25,4.25,0,0,1,2.29.57,4.6,4.6,0,0,1,1.46,1.45,5.76,5.76,0,0,1,.76,1.92,8.56,8.56,0,0,1,.17,2H58.08a3.94,3.94,0,0,0,.16,1.29,3,3,0,0,0,.58,1.08,2.82,2.82,0,0,0,1,.75,3.62,3.62,0,0,0,1.46.28,3,3,0,0,0,1.77-.5,2.45,2.45,0,0,0,.91-1.52h1.68A4.17,4.17,0,0,1,64.16,280.11Zm-.41-6.64a3,3,0,0,0-.62-.93,2.93,2.93,0,0,0-.92-.62,3.14,3.14,0,0,0-2.36,0,2.56,2.56,0,0,0-.91.63,2.66,2.66,0,0,0-.6.93,3.28,3.28,0,0,0-.26,1.13H64A3.65,3.65,0,0,0,63.75,273.47Z"/><path class="cls-1" d="M75.12,280.77v-1.4h0a2.54,2.54,0,0,1-1.32,1.24,5.1,5.1,0,0,1-2,.38,4.7,4.7,0,0,1-2.09-.44,4.32,4.32,0,0,1-1.48-1.18,5.12,5.12,0,0,1-.89-1.72,7.12,7.12,0,0,1-.3-2.08,7,7,0,0,1,.29-2.08,4.63,4.63,0,0,1,.88-1.71,4.05,4.05,0,0,1,1.48-1.16,4.64,4.64,0,0,1,2.07-.43,4.51,4.51,0,0,1,.86.08,4.16,4.16,0,0,1,.92.27,3.83,3.83,0,0,1,.87.5,2.7,2.7,0,0,1,.69.77h0v-5.32h1.7v14.28ZM69,277.1a3.67,3.67,0,0,0,.58,1.23,2.88,2.88,0,0,0,1,.86,3,3,0,0,0,1.43.32,3,3,0,0,0,1.46-.34,3.1,3.1,0,0,0,1-.89A4,4,0,0,0,75,277a6.2,6.2,0,0,0,.17-1.42,5.92,5.92,0,0,0-.18-1.47,3.58,3.58,0,0,0-.57-1.25,2.94,2.94,0,0,0-1-.87,3.19,3.19,0,0,0-1.5-.33,2.87,2.87,0,0,0-1.46.34,2.59,2.59,0,0,0-1,.9,3.75,3.75,0,0,0-.52,1.28,6.58,6.58,0,0,0-.16,1.48A5.16,5.16,0,0,0,69,277.1Z"/><path class="cls-1" d="M80.74,278.46a1.87,1.87,0,0,0,.63.62,3,3,0,0,0,.88.33,5.49,5.49,0,0,0,1,.1,6.38,6.38,0,0,0,.84-.06,3.45,3.45,0,0,0,.81-.22,1.67,1.67,0,0,0,.61-.47,1.26,1.26,0,0,0,.24-.79,1.13,1.13,0,0,0-.5-1,4.25,4.25,0,0,0-1.25-.55c-.5-.14-1.05-.27-1.63-.38a9.43,9.43,0,0,1-1.63-.48,3.43,3.43,0,0,1-1.25-.87,2.25,2.25,0,0,1-.5-1.56,2.41,2.41,0,0,1,.35-1.34,2.7,2.7,0,0,1,.9-.91,3.83,3.83,0,0,1,1.24-.52,5.36,5.36,0,0,1,1.37-.17,8.26,8.26,0,0,1,1.62.15,3.71,3.71,0,0,1,1.31.52,2.67,2.67,0,0,1,.91,1,3.89,3.89,0,0,1,.4,1.57H85.4a1.81,1.81,0,0,0-.26-.83,1.77,1.77,0,0,0-.56-.53,2.44,2.44,0,0,0-.75-.29,3.91,3.91,0,0,0-.83-.09,5,5,0,0,0-.77.06,2.56,2.56,0,0,0-.71.21,1.32,1.32,0,0,0-.52.4,1.07,1.07,0,0,0,.11,1.38,2.52,2.52,0,0,0,.79.48,8.21,8.21,0,0,0,1.08.32q.6.12,1.2.27a11,11,0,0,1,1.25.34,4.18,4.18,0,0,1,1.08.53,2.63,2.63,0,0,1,.76.83,2.45,2.45,0,0,1,.29,1.24,2.91,2.91,0,0,1-.39,1.56,3.14,3.14,0,0,1-1,1,4.39,4.39,0,0,1-1.42.53,8.43,8.43,0,0,1-1.57.15,7.23,7.23,0,0,1-1.64-.18,4.09,4.09,0,0,1-1.38-.59,3.12,3.12,0,0,1-1-1.08,3.66,3.66,0,0,1-.4-1.63h1.7A1.89,1.89,0,0,0,80.74,278.46Z"/><path class="cls-1" d="M92,278.55v2a3.65,3.65,0,0,1-.52,2,2.9,2.9,0,0,1-1.68,1.16v-1a1.65,1.65,0,0,0,.57-.35,2.48,2.48,0,0,0,.37-.5,2.4,2.4,0,0,0,.19-.55,2.37,2.37,0,0,0,0-.52H89.82v-2.22Z"/><path class="cls-1" d="M109,280.77l-2.1-8.22h0l-2.08,8.22h-1.84l-3.32-10.34h1.88l2.34,8.46h0l2.08-8.46h1.86l2.16,8.46h0l2.32-8.46h1.76l-3.3,10.34Z"/><path class="cls-1" d="M123,280.11a4.76,4.76,0,0,1-2.92.88,5.39,5.39,0,0,1-2.15-.4,4.22,4.22,0,0,1-1.53-1.12,4.62,4.62,0,0,1-.93-1.72,8,8,0,0,1-.35-2.18,6.2,6.2,0,0,1,.36-2.16,5,5,0,0,1,1-1.7,4.4,4.4,0,0,1,1.54-1.12,4.63,4.63,0,0,1,2-.4,4.25,4.25,0,0,1,2.29.57,4.6,4.6,0,0,1,1.46,1.45,5.76,5.76,0,0,1,.76,1.92,8.56,8.56,0,0,1,.17,2H117a3.94,3.94,0,0,0,.16,1.29,3,3,0,0,0,.58,1.08,2.82,2.82,0,0,0,1,.75,3.62,3.62,0,0,0,1.46.28A3,3,0,0,0,122,279a2.45,2.45,0,0,0,.91-1.52h1.68A4.17,4.17,0,0,1,123,280.11Zm-.41-6.64a3,3,0,0,0-.62-.93,2.93,2.93,0,0,0-.92-.62,3.14,3.14,0,0,0-2.36,0,2.56,2.56,0,0,0-.91.63,2.66,2.66,0,0,0-.6.93,3.28,3.28,0,0,0-.26,1.13h5.94A3.65,3.65,0,0,0,122.63,273.47Z"/><path class="cls-1" d="M128.26,266.49v14.28h-1.7V266.49Z"/><path class="cls-1" d="M132.7,266.49v14.28H131V266.49Z"/><path class="cls-1" d="M140.84,274.41V276h-5.78v-1.6Z"/><path class="cls-1" d="M144.88,266.49v5.34h0a2.52,2.52,0,0,1,1.32-1.25,4.93,4.93,0,0,1,2-.39,4.6,4.6,0,0,1,2.09.44,4.31,4.31,0,0,1,1.48,1.19,5.25,5.25,0,0,1,.89,1.73,7,7,0,0,1,.3,2.08,7.47,7.47,0,0,1-.29,2.08,5.13,5.13,0,0,1-.88,1.71,4.32,4.32,0,0,1-1.48,1.15,4.84,4.84,0,0,1-2.07.42,5.38,5.38,0,0,1-.85-.08,4.93,4.93,0,0,1-.93-.26,3.74,3.74,0,0,1-.87-.49,2.67,2.67,0,0,1-.69-.77h0v1.38h-1.7V266.49ZM151,274.1a3.88,3.88,0,0,0-.58-1.23,2.87,2.87,0,0,0-1-.86,3,3,0,0,0-1.43-.32,2.87,2.87,0,0,0-1.46.34,2.8,2.8,0,0,0-1,.89,3.46,3.46,0,0,0-.55,1.25,5.63,5.63,0,0,0-.17,1.42,6,6,0,0,0,.18,1.47,3.67,3.67,0,0,0,.57,1.25,2.85,2.85,0,0,0,1,.87,3.14,3.14,0,0,0,1.5.33,3,3,0,0,0,1.47-.34,2.83,2.83,0,0,0,.95-.9A4.05,4.05,0,0,0,151,277a7.29,7.29,0,0,0,.16-1.48A5.57,5.57,0,0,0,151,274.1Z"/><path class="cls-1" d="M162.3,280.11a4.76,4.76,0,0,1-2.92.88,5.39,5.39,0,0,1-2.15-.4,4.22,4.22,0,0,1-1.53-1.12,4.62,4.62,0,0,1-.93-1.72,8,8,0,0,1-.35-2.18,6.2,6.2,0,0,1,.36-2.16,5,5,0,0,1,1-1.7,4.4,4.4,0,0,1,1.54-1.12,4.63,4.63,0,0,1,1.95-.4,4.25,4.25,0,0,1,2.29.57,4.6,4.6,0,0,1,1.46,1.45,5.76,5.76,0,0,1,.76,1.92,8.56,8.56,0,0,1,.17,2h-7.74a3.94,3.94,0,0,0,.16,1.29,3,3,0,0,0,.58,1.08,2.82,2.82,0,0,0,1,.75,3.62,3.62,0,0,0,1.46.28,3,3,0,0,0,1.77-.5,2.45,2.45,0,0,0,.91-1.52h1.68A4.17,4.17,0,0,1,162.3,280.11Zm-.41-6.64a3,3,0,0,0-.62-.93,2.93,2.93,0,0,0-.92-.62,3.14,3.14,0,0,0-2.36,0,2.56,2.56,0,0,0-.91.63,2.66,2.66,0,0,0-.6.93,3.28,3.28,0,0,0-.26,1.13h5.94A3.65,3.65,0,0,0,161.89,273.47Z"/><path class="cls-1" d="M165.82,268.57v-2.08h1.7v2.08Zm1.7,1.86v10.34h-1.7V270.43Z"/><path class="cls-1" d="M171.76,270.43v1.64h0a3.55,3.55,0,0,1,3.36-1.88,4.45,4.45,0,0,1,1.7.28,2.69,2.69,0,0,1,1.1.78,3,3,0,0,1,.59,1.19,6.57,6.57,0,0,1,.17,1.53v6.8H177v-7a1.94,1.94,0,0,0-2.1-2.08,3.46,3.46,0,0,0-1.35.24,2.44,2.44,0,0,0-.95.68,2.66,2.66,0,0,0-.57,1,4.06,4.06,0,0,0-.19,1.29v5.84h-1.7V270.43Z"/><path class="cls-1" d="M189,283.69A4.74,4.74,0,0,1,185.4,285a7.51,7.51,0,0,1-1.47-.16,4.52,4.52,0,0,1-1.36-.52,3.14,3.14,0,0,1-1-.94,2.6,2.6,0,0,1-.44-1.42h1.7a1.27,1.27,0,0,0,.29.78,2.27,2.27,0,0,0,.66.52,3.28,3.28,0,0,0,.85.29,4.53,4.53,0,0,0,.88.09,3.21,3.21,0,0,0,1.42-.29,2.86,2.86,0,0,0,1-.8,3.47,3.47,0,0,0,.55-1.23,7.09,7.09,0,0,0,.17-1.58V279h0a2.9,2.9,0,0,1-1.33,1.41,4.17,4.17,0,0,1-1.89.45,4.52,4.52,0,0,1-2-.42,4.14,4.14,0,0,1-1.44-1.13,4.79,4.79,0,0,1-.87-1.66,6.69,6.69,0,0,1-.29-2,7.77,7.77,0,0,1,.24-1.89,5,5,0,0,1,.8-1.76,4.26,4.26,0,0,1,1.48-1.3,4.58,4.58,0,0,1,2.26-.51,3.8,3.8,0,0,1,1.8.43,3,3,0,0,1,1.28,1.29h0v-1.48h1.6v9.46A5.47,5.47,0,0,1,189,283.69ZM186.87,279a2.88,2.88,0,0,0,.95-.92,4.38,4.38,0,0,0,.53-1.29,6.44,6.44,0,0,0,.17-1.44,6,6,0,0,0-.16-1.34,3.86,3.86,0,0,0-.51-1.19,2.57,2.57,0,0,0-2.27-1.17,2.87,2.87,0,0,0-1.4.31,2.55,2.55,0,0,0-1,.83,3.29,3.29,0,0,0-.54,1.2,5.47,5.47,0,0,0-.17,1.42,6.72,6.72,0,0,0,.14,1.4,3.89,3.89,0,0,0,.48,1.27,2.51,2.51,0,0,0,2.3,1.27A2.81,2.81,0,0,0,186.87,279Z"/><path class="cls-1" d="M207.48,280.73a2.46,2.46,0,0,1-1.22.26,1.49,1.49,0,0,1-1-.37,1.61,1.61,0,0,1-.39-1.21,4.12,4.12,0,0,1-1.63,1.21,5.52,5.52,0,0,1-2,.37,5.7,5.7,0,0,1-1.33-.16,3.22,3.22,0,0,1-1.09-.5,2.45,2.45,0,0,1-.73-.89,3.51,3.51,0,0,1,0-2.77,2.5,2.5,0,0,1,.79-.91,3.41,3.41,0,0,1,1.12-.53q.63-.18,1.29-.3a11.4,11.4,0,0,1,1.33-.21,9,9,0,0,0,1.11-.2,2,2,0,0,0,.76-.38,1,1,0,0,0,.28-.73,1.66,1.66,0,0,0-.21-.9A1.42,1.42,0,0,0,204,272a2.22,2.22,0,0,0-.74-.24,5.73,5.73,0,0,0-.81-.06,3.53,3.53,0,0,0-1.8.41,1.74,1.74,0,0,0-.78,1.55h-1.7a3.58,3.58,0,0,1,.4-1.62,3,3,0,0,1,1-1.07,3.85,3.85,0,0,1,1.37-.59,7.19,7.19,0,0,1,1.65-.18,9.29,9.29,0,0,1,1.39.1,3.67,3.67,0,0,1,1.25.4,2.5,2.5,0,0,1,.9.87,2.87,2.87,0,0,1,.34,1.46v5.31a3.8,3.8,0,0,0,.07.88c0,.18.2.28.47.28a2.28,2.28,0,0,0,.52-.08Zm-2.76-5.3a2.31,2.31,0,0,1-.84.34,9.18,9.18,0,0,1-1.09.18l-1.15.16a4.25,4.25,0,0,0-1,.29,1.79,1.79,0,0,0-.75.57,1.53,1.53,0,0,0-.29,1,1.31,1.31,0,0,0,.17.71,1.41,1.41,0,0,0,.44.47,2,2,0,0,0,.63.26,3.69,3.69,0,0,0,.76.08,4.1,4.1,0,0,0,1.44-.23,3.3,3.3,0,0,0,1-.58,2.24,2.24,0,0,0,.56-.76,1.87,1.87,0,0,0,.18-.76Z"/><path class="cls-1" d="M210.66,270.43v1.64h0a3.55,3.55,0,0,1,3.36-1.88,4.45,4.45,0,0,1,1.7.28,2.69,2.69,0,0,1,1.1.78,3,3,0,0,1,.59,1.19,6.57,6.57,0,0,1,.17,1.53v6.8h-1.7v-7a1.94,1.94,0,0,0-2.1-2.08,3.46,3.46,0,0,0-1.35.24,2.44,2.44,0,0,0-.95.68,2.66,2.66,0,0,0-.57,1,4.06,4.06,0,0,0-.19,1.29v5.84h-1.7V270.43Z"/><path class="cls-1" d="M227.72,280.77v-1.4h0a2.54,2.54,0,0,1-1.32,1.24,5.1,5.1,0,0,1-2,.38,4.7,4.7,0,0,1-2.09-.44,4.32,4.32,0,0,1-1.48-1.18,5.12,5.12,0,0,1-.89-1.72,7.12,7.12,0,0,1-.3-2.08,7,7,0,0,1,.29-2.08,4.63,4.63,0,0,1,.88-1.71,4.05,4.05,0,0,1,1.48-1.16,4.64,4.64,0,0,1,2.07-.43,4.51,4.51,0,0,1,.86.08,4.16,4.16,0,0,1,.92.27,3.83,3.83,0,0,1,.87.5,2.7,2.7,0,0,1,.69.77h0v-5.32h1.7v14.28Zm-6.11-3.67a3.67,3.67,0,0,0,.58,1.23,2.88,2.88,0,0,0,1,.86,3,3,0,0,0,1.43.32,3,3,0,0,0,1.46-.34,3.1,3.1,0,0,0,1-.89,4,4,0,0,0,.55-1.25,6.2,6.2,0,0,0,.17-1.42,5.92,5.92,0,0,0-.18-1.47,3.58,3.58,0,0,0-.57-1.25,2.94,2.94,0,0,0-1-.87,3.19,3.19,0,0,0-1.5-.33,2.87,2.87,0,0,0-1.46.34,2.59,2.59,0,0,0-1,.9,3.75,3.75,0,0,0-.52,1.28,6.58,6.58,0,0,0-.16,1.48A5.16,5.16,0,0,0,221.61,277.1Z"/><path class="cls-1" d="M239.3,266.49V272h0a2.22,2.22,0,0,1,.56-.81,3.18,3.18,0,0,1,.81-.54,3.84,3.84,0,0,1,.94-.31,5,5,0,0,1,2.65.18,2.69,2.69,0,0,1,1.1.78,3,3,0,0,1,.59,1.19,6.57,6.57,0,0,1,.17,1.53v6.8h-1.7v-7a1.94,1.94,0,0,0-2.1-2.08,3.46,3.46,0,0,0-1.35.24,2.44,2.44,0,0,0-.95.68,2.66,2.66,0,0,0-.57,1,4.06,4.06,0,0,0-.19,1.29v5.84h-1.7V266.49Z"/><path class="cls-1" d="M257.88,280.73a2.46,2.46,0,0,1-1.22.26,1.49,1.49,0,0,1-1.05-.37,1.61,1.61,0,0,1-.39-1.21,4.12,4.12,0,0,1-1.63,1.21,5.52,5.52,0,0,1-2,.37,5.7,5.7,0,0,1-1.33-.16,3.22,3.22,0,0,1-1.09-.5,2.45,2.45,0,0,1-.73-.89,3.51,3.51,0,0,1,0-2.77,2.5,2.5,0,0,1,.79-.91,3.41,3.41,0,0,1,1.12-.53q.63-.18,1.29-.3a11.4,11.4,0,0,1,1.33-.21,9,9,0,0,0,1.11-.2,2,2,0,0,0,.76-.38,1,1,0,0,0,.28-.73,1.66,1.66,0,0,0-.21-.9,1.42,1.42,0,0,0-.54-.52,2.22,2.22,0,0,0-.74-.24,5.73,5.73,0,0,0-.81-.06,3.53,3.53,0,0,0-1.8.41,1.74,1.74,0,0,0-.78,1.55h-1.7A3.58,3.58,0,0,1,249,272a3,3,0,0,1,1-1.07,3.85,3.85,0,0,1,1.37-.59,7.19,7.19,0,0,1,1.65-.18,9.29,9.29,0,0,1,1.39.1,3.67,3.67,0,0,1,1.25.4,2.5,2.5,0,0,1,.9.87,2.87,2.87,0,0,1,.34,1.46v5.31a3.8,3.8,0,0,0,.07.88c0,.18.2.28.47.28a2.28,2.28,0,0,0,.52-.08Zm-2.76-5.3a2.31,2.31,0,0,1-.84.34,9.18,9.18,0,0,1-1.09.18l-1.15.16a4.25,4.25,0,0,0-1,.29,1.79,1.79,0,0,0-.75.57,1.53,1.53,0,0,0-.29,1,1.31,1.31,0,0,0,.17.71,1.41,1.41,0,0,0,.44.47,2,2,0,0,0,.63.26,3.69,3.69,0,0,0,.76.08,4.1,4.1,0,0,0,1.44-.23,3.3,3.3,0,0,0,1-.58,2.24,2.24,0,0,0,.56-.76,1.87,1.87,0,0,0,.18-.76Z"/><path class="cls-1" d="M261.22,270.43v1.4h0a2.52,2.52,0,0,1,1.32-1.25,4.93,4.93,0,0,1,2-.39,4.6,4.6,0,0,1,2.09.44,4.31,4.31,0,0,1,1.48,1.19,5.25,5.25,0,0,1,.89,1.73,7,7,0,0,1,.3,2.08,7.47,7.47,0,0,1-.29,2.08,5.13,5.13,0,0,1-.88,1.71,4.32,4.32,0,0,1-1.48,1.15,4.84,4.84,0,0,1-2.07.42,5.38,5.38,0,0,1-.85-.08,4.93,4.93,0,0,1-.93-.26,3.74,3.74,0,0,1-.87-.49,2.67,2.67,0,0,1-.69-.77h0v5.32h-1.7V270.43Zm6.11,3.67a3.88,3.88,0,0,0-.58-1.23,2.87,2.87,0,0,0-1-.86,3,3,0,0,0-1.43-.32,2.87,2.87,0,0,0-1.46.34,2.8,2.8,0,0,0-1,.89,3.46,3.46,0,0,0-.55,1.25,5.63,5.63,0,0,0-.17,1.42,6,6,0,0,0,.18,1.47,3.67,3.67,0,0,0,.57,1.25,2.85,2.85,0,0,0,1,.87,3.14,3.14,0,0,0,1.5.33,3,3,0,0,0,1.47-.34,2.83,2.83,0,0,0,.95-.9,4.05,4.05,0,0,0,.52-1.28,7.29,7.29,0,0,0,.16-1.48A5.57,5.57,0,0,0,267.33,274.1Z"/><path class="cls-1" d="M273.08,270.43v1.4h0a2.48,2.48,0,0,1,1.32-1.25,4.93,4.93,0,0,1,2-.39,4.6,4.6,0,0,1,2.09.44,4.31,4.31,0,0,1,1.48,1.19,5.25,5.25,0,0,1,.89,1.73,7,7,0,0,1,.3,2.08,7.47,7.47,0,0,1-.29,2.08,5.13,5.13,0,0,1-.88,1.71,4.32,4.32,0,0,1-1.48,1.15,4.84,4.84,0,0,1-2.07.42,5.61,5.61,0,0,1-.86-.08,5.05,5.05,0,0,1-.92-.26,3.74,3.74,0,0,1-.87-.49,2.67,2.67,0,0,1-.69-.77h0v5.32h-1.7V270.43Zm6.11,3.67a3.69,3.69,0,0,0-.59-1.23,2.7,2.7,0,0,0-1-.86,2.92,2.92,0,0,0-1.42-.32,2.87,2.87,0,0,0-1.46.34,2.71,2.71,0,0,0-1,.89,3.46,3.46,0,0,0-.55,1.25,5.63,5.63,0,0,0-.17,1.42,6,6,0,0,0,.18,1.47,3.49,3.49,0,0,0,.57,1.25,2.85,2.85,0,0,0,1,.87,3.14,3.14,0,0,0,1.5.33,3,3,0,0,0,1.47-.34,2.83,2.83,0,0,0,.95-.9,4.05,4.05,0,0,0,.52-1.28,7.29,7.29,0,0,0,.16-1.48A5.57,5.57,0,0,0,279.19,274.1Z"/><path class="cls-1" d="M283.27,268.57v-2.08H285v2.08Zm1.71,1.86v10.34h-1.71V270.43Z"/><path class="cls-1" d="M289.21,270.43v1.64h0a3.57,3.57,0,0,1,3.36-1.88,4.41,4.41,0,0,1,1.7.28,2.63,2.63,0,0,1,1.1.78,2.84,2.84,0,0,1,.59,1.19,6.08,6.08,0,0,1,.17,1.53v6.8h-1.7v-7a1.94,1.94,0,0,0-2.1-2.08,3.46,3.46,0,0,0-1.35.24,2.51,2.51,0,0,0-.95.68,3,3,0,0,0-.57,1,4.37,4.37,0,0,0-.19,1.29v5.84h-1.7V270.43Z"/><path class="cls-1" d="M306.05,280.11a4.72,4.72,0,0,1-2.92.88,5.46,5.46,0,0,1-2.15-.4,4.4,4.4,0,0,1-1.53-1.12,4.92,4.92,0,0,1-.93-1.72,8.8,8.8,0,0,1-.35-2.18,6.2,6.2,0,0,1,.36-2.16,5.15,5.15,0,0,1,1-1.7,4.59,4.59,0,0,1,1.54-1.12,4.69,4.69,0,0,1,1.95-.4,4.23,4.23,0,0,1,2.29.57,4.4,4.4,0,0,1,1.46,1.45,5.56,5.56,0,0,1,.76,1.92,8,8,0,0,1,.17,2H300a4.23,4.23,0,0,0,.16,1.29,3.14,3.14,0,0,0,.58,1.08,3,3,0,0,0,1,.75,3.65,3.65,0,0,0,1.46.28A3,3,0,0,0,305,279a2.41,2.41,0,0,0,.91-1.52h1.68A4.08,4.08,0,0,1,306.05,280.11Zm-.41-6.64a2.86,2.86,0,0,0-.62-.93,2.82,2.82,0,0,0-.92-.62,2.78,2.78,0,0,0-1.17-.23,2.87,2.87,0,0,0-1.19.23,2.75,2.75,0,0,0-.91.63,3,3,0,0,0-.6.93,3.81,3.81,0,0,0-.26,1.13h5.94A3.17,3.17,0,0,0,305.64,273.47Z"/><path class="cls-1" d="M310.77,278.46a1.87,1.87,0,0,0,.63.62,3.08,3.08,0,0,0,.88.33,5.67,5.67,0,0,0,1,.1,6.15,6.15,0,0,0,.84-.06,3.2,3.2,0,0,0,.81-.22,1.59,1.59,0,0,0,.61-.47,1.26,1.26,0,0,0,.24-.79,1.11,1.11,0,0,0-.5-1,4.13,4.13,0,0,0-1.25-.55c-.5-.14-1-.27-1.63-.38a9.7,9.7,0,0,1-1.63-.48,3.51,3.51,0,0,1-1.25-.87,2.3,2.3,0,0,1-.5-1.56,2.5,2.5,0,0,1,.35-1.34,2.9,2.9,0,0,1,.9-.91,3.92,3.92,0,0,1,1.24-.52,5.41,5.41,0,0,1,1.37-.17,8.12,8.12,0,0,1,1.62.15,3.64,3.64,0,0,1,1.31.52,2.59,2.59,0,0,1,.91,1,3.73,3.73,0,0,1,.4,1.57h-1.7a1.6,1.6,0,0,0-.26-.83,1.58,1.58,0,0,0-.56-.53,2.26,2.26,0,0,0-.75-.29,3.84,3.84,0,0,0-.83-.09,5.09,5.09,0,0,0-.77.06,2.66,2.66,0,0,0-.71.21,1.48,1.48,0,0,0-.52.4,1,1,0,0,0-.2.65,1,1,0,0,0,.31.73,2.64,2.64,0,0,0,.79.48,8.21,8.21,0,0,0,1.08.32q.6.12,1.2.27a10,10,0,0,1,1.25.34,3.88,3.88,0,0,1,1.08.53,2.42,2.42,0,0,1,.76.83,2.35,2.35,0,0,1,.29,1.24,2.91,2.91,0,0,1-.39,1.56,3.14,3.14,0,0,1-1,1,4.31,4.31,0,0,1-1.42.53,8.35,8.35,0,0,1-1.57.15,7.3,7.3,0,0,1-1.64-.18,4.09,4.09,0,0,1-1.38-.59,3.12,3.12,0,0,1-1-1.08,3.8,3.8,0,0,1-.4-1.63h1.7A2,2,0,0,0,310.77,278.46Z"/><path class="cls-1" d="M320.77,278.46a1.87,1.87,0,0,0,.63.62,3.08,3.08,0,0,0,.88.33,5.67,5.67,0,0,0,1,.1,6.15,6.15,0,0,0,.84-.06,3.2,3.2,0,0,0,.81-.22,1.59,1.59,0,0,0,.61-.47,1.26,1.26,0,0,0,.24-.79,1.11,1.11,0,0,0-.5-1,4.13,4.13,0,0,0-1.25-.55c-.5-.14-1-.27-1.63-.38a9.7,9.7,0,0,1-1.63-.48,3.51,3.51,0,0,1-1.25-.87,2.3,2.3,0,0,1-.5-1.56,2.5,2.5,0,0,1,.35-1.34,2.9,2.9,0,0,1,.9-.91,3.92,3.92,0,0,1,1.24-.52,5.41,5.41,0,0,1,1.37-.17,8.12,8.12,0,0,1,1.62.15,3.64,3.64,0,0,1,1.31.52,2.59,2.59,0,0,1,.91,1,3.73,3.73,0,0,1,.4,1.57h-1.7a1.6,1.6,0,0,0-.26-.83,1.58,1.58,0,0,0-.56-.53,2.26,2.26,0,0,0-.75-.29,3.84,3.84,0,0,0-.83-.09,5.09,5.09,0,0,0-.77.06,2.66,2.66,0,0,0-.71.21,1.48,1.48,0,0,0-.52.4,1,1,0,0,0-.2.65,1,1,0,0,0,.31.73,2.64,2.64,0,0,0,.79.48,8.21,8.21,0,0,0,1.08.32q.6.12,1.2.27a10,10,0,0,1,1.25.34,3.88,3.88,0,0,1,1.08.53,2.42,2.42,0,0,1,.76.83,2.35,2.35,0,0,1,.29,1.24,2.91,2.91,0,0,1-.39,1.56,3.14,3.14,0,0,1-1,1,4.31,4.31,0,0,1-1.42.53,8.35,8.35,0,0,1-1.57.15,7.3,7.3,0,0,1-1.64-.18,4.09,4.09,0,0,1-1.38-.59,3.12,3.12,0,0,1-1-1.08,3.8,3.8,0,0,1-.4-1.63h1.7A2,2,0,0,0,320.77,278.46Z"/><path class="cls-1" d="M332.07,278.55v2.22h-2.22v-2.22Z"/></svg>