<svg id="Layer_1" data-name="Layer 1" xmlns="http://www.w3.org/2000/svg" viewBox="0 0 400 400"><defs><style>.cls-1{fill:#fff;}</style></defs><title>textblock</title><rect width="400" height="400"/><path class="cls-1" d="M53.46,140.31v16.92H42.66V140.31l-10-23.1H44c1.32,4.08,2.76,8.16,3.78,12.36,1.14-4.14,2.4-8.28,3.78-12.36H62.7Z"/><path class="cls-1" d="M78.24,157.94a14.36,14.36,0,0,1-10.92-5.33c-3.48-4.2-4.5-10.5-4.5-15.78,0-9.42,4.38-20.34,15.36-20.34s15.06,11,15.06,20.34S89.46,157.94,78.24,157.94Zm-.12-31.37c-3.72,0-4.08,8-4.08,10.62s.24,10.62,4,10.62,4-8,4-10.56S81.84,126.57,78.12,126.57Z"/><path class="cls-1" d="M125,145.53c0,4-.9,6.66-4,9.3a13.49,13.49,0,0,1-9.06,3.11,15.11,15.11,0,0,1-10.14-3.47c-3.12-2.76-3.9-6.42-3.9-10.44V117.21h10.8v25.86c0,2,.06,4.74,2.76,4.74s2.76-2.7,2.76-4.74V117.21H125Z"/><path class="cls-1" d="M178.79,157.23H168.41c-1.5-8.34-3.12-16.62-4.08-25-.41,3.48-.66,7-1.13,10.5l-2,14.52H150.6l-8.88-40H152.4c.78,4.8,1.5,9.66,2.22,14.46q.25,1.71.54,3.42c.3,2.4.47,4.74.78,7.14.24-2.22.35-4.44.66-6.66.84-6.12,2-12.24,3.06-18.36H169l1.79,9.66c1,5.22,1.68,10.56,2.29,15.84.35-4.38.71-8.76,1.37-13.08l1.92-12.42h10.56Z"/><path class="cls-1" d="M206.46,157.23l-.84-5.1h-7.26l-.9,5.1H186.29l9.67-40h13.19l8.46,40Zm-2.1-13.62c-.84-5.58-1.57-11.16-2.05-16.8-.24,1.86-.42,3.78-.66,5.64-.53,3.72-1.13,7.44-1.86,11.16Z"/><path class="cls-1" d="M238.55,157.23c-2.82-7.62-5.93-15.18-8.16-23,.31,4.26.66,8.58.66,12.84v10.2H220.74v-40h10.31l5.41,14c1.25,3.3,2.27,6.72,3.29,10.08a121.36,121.36,0,0,1-1.2-14.76v-9.36h10.33v40Z"/><path class="cls-1" d="M268.43,126.81v30.42h-10.8V126.81H251.7v-9.6h22.67v9.6Z"/><path class="cls-1" d="M305.09,126.81v30.42h-10.8V126.81h-5.94v-9.6H311v9.6Z"/><path class="cls-1" d="M328.25,157.94a14.36,14.36,0,0,1-10.92-5.33c-3.48-4.2-4.5-10.5-4.5-15.78,0-9.42,4.38-20.34,15.36-20.34s15.06,11,15.06,20.34S339.47,157.94,328.25,157.94Zm-.12-31.37c-3.72,0-4.08,8-4.08,10.62s.24,10.62,4,10.62,4-8,4-10.56S331.85,126.57,328.13,126.57Z"/><path class="cls-1" d="M46.32,181.63v5.82H54v9.06H46.32v15.72H35.52v-40H54.6v9.42Z"/><path class="cls-1" d="M58.8,212.23v-40h20v9.42H69.6v5.82h8.28v9.06H69.6v6.12h9.24v9.6Z"/><path class="cls-1" d="M83.46,212.23v-40h20v9.42H94.26v5.82h8.28v9.06H94.26v6.12h9.24v9.6Z"/><path class="cls-1" d="M108.12,212.23v-40h10.8v30.42H127v9.6Z"/><path class="cls-1" d="M173.21,190.75c0,5-.3,10.8-2.64,15.3a13,13,0,0,1-11.94,6.89c-11.58,0-15.42-10.61-15.42-20.51s3.78-20.94,15.42-20.94c6.72,0,11.16,4,13.74,9.9l-10.5,3.84c-.18-1.74-1.08-4.08-3.18-4.08-4.44,0-4.44,9.18-4.44,12.24,0,2.82-.06,9.9,4.08,9.9,3,0,3.78-3.36,3.78-5.76h-4v-8.4h15.06Z"/><path class="cls-1" d="M192.23,212.94a14.36,14.36,0,0,1-10.92-5.33c-3.48-4.2-4.5-10.5-4.5-15.78,0-9.42,4.39-20.34,15.36-20.34s15.06,11,15.06,20.34S203.45,212.94,192.23,212.94Zm-.12-31.37c-3.72,0-4.07,8-4.07,10.62s.23,10.62,4,10.62,4-8,4-10.56S195.83,181.57,192.11,181.57Z"/><path class="cls-1" d="M226.25,212.94a14.36,14.36,0,0,1-10.92-5.33c-3.48-4.2-4.5-10.5-4.5-15.78,0-9.42,4.38-20.34,15.36-20.34s15.06,11,15.06,20.34S237.47,212.94,226.25,212.94Zm-.12-31.37c-3.72,0-4.08,8-4.08,10.62s.24,10.62,4,10.62,4-8,4-10.56S229.85,181.57,226.13,181.57Z"/><path class="cls-1" d="M255.17,172.21c12.24,0,18.3,8.46,18.3,20a24.85,24.85,0,0,1-2.76,12.3c-3.3,5.94-8.28,7.68-14.76,7.68H245.87v-40Zm1.5,30.36c5-.18,5.76-6.12,5.76-10,0-3.72-.78-10.32-5.76-10.32Z"/><path class="cls-1" d="M33.74,244.09v-1.6H45.16v1.6H40.4v12.68H38.5V244.09Z"/><path class="cls-1" d="M48.16,242.49V248h0a2.22,2.22,0,0,1,.56-.81,3.18,3.18,0,0,1,.81-.54,3.84,3.84,0,0,1,.94-.31,5,5,0,0,1,2.65.18,2.69,2.69,0,0,1,1.1.78,3,3,0,0,1,.59,1.19A6.57,6.57,0,0,1,55,250v6.8h-1.7v-7a1.94,1.94,0,0,0-2.1-2.08,3.46,3.46,0,0,0-1.35.24,2.44,2.44,0,0,0-.95.68,2.66,2.66,0,0,0-.57,1,4.06,4.06,0,0,0-.19,1.29v5.84h-1.7V242.49Z"/><path class="cls-1" d="M57.68,244.57v-2.08h1.7v2.08Zm1.7,1.86v10.34h-1.7V246.43Z"/><path class="cls-1" d="M63.62,246.43v1.64h0A3.55,3.55,0,0,1,67,246.19a4.45,4.45,0,0,1,1.7.28,2.69,2.69,0,0,1,1.1.78,3,3,0,0,1,.59,1.19,6.57,6.57,0,0,1,.17,1.53v6.8h-1.7v-7a1.94,1.94,0,0,0-2.1-2.08,3.46,3.46,0,0,0-1.35.24,2.44,2.44,0,0,0-1,.68,2.66,2.66,0,0,0-.57,1,4.06,4.06,0,0,0-.19,1.29v5.84H62V246.43Z"/><path class="cls-1" d="M74.94,242.49V251l4.72-4.52h2.28l-4.1,3.76,4.4,6.58H80.08l-3.54-5.4-1.6,1.48v3.92h-1.7V242.49Z"/><path class="cls-1" d="M86.12,254.55v2a3.65,3.65,0,0,1-.52,2,2.9,2.9,0,0,1-1.68,1.16v-1a1.65,1.65,0,0,0,.57-.35,2.48,2.48,0,0,0,.37-.5,2.4,2.4,0,0,0,.19-.55,2.37,2.37,0,0,0,0-.52H83.9v-2.22Z"/><path class="cls-1" d="M93.6,247.93v-1.5h1.74v-1.54a2.41,2.41,0,0,1,.73-1.91,3.05,3.05,0,0,1,2.13-.65,3.84,3.84,0,0,1,.55,0,2.13,2.13,0,0,1,.55.12V244a1.87,1.87,0,0,0-.48-.11l-.48,0a1.62,1.62,0,0,0-1,.24A1,1,0,0,0,97,245v1.44h2v1.5H97v8.84h-1.7v-8.84Z"/><path class="cls-1" d="M107.88,256.11A4.76,4.76,0,0,1,105,257a5.39,5.39,0,0,1-2.15-.4,4.22,4.22,0,0,1-1.53-1.12,4.62,4.62,0,0,1-.93-1.72,8,8,0,0,1-.35-2.18,6.2,6.2,0,0,1,.36-2.16,5,5,0,0,1,1-1.7,4.4,4.4,0,0,1,1.54-1.12,4.63,4.63,0,0,1,2-.4,4.25,4.25,0,0,1,2.29.57,4.6,4.6,0,0,1,1.46,1.45,5.76,5.76,0,0,1,.76,1.92,8.56,8.56,0,0,1,.17,2H101.8a3.94,3.94,0,0,0,.16,1.29,3,3,0,0,0,.58,1.08,2.82,2.82,0,0,0,1,.75,3.62,3.62,0,0,0,1.46.28,3,3,0,0,0,1.77-.5,2.45,2.45,0,0,0,.91-1.52h1.68A4.17,4.17,0,0,1,107.88,256.11Zm-.41-6.64a3,3,0,0,0-.62-.93,2.93,2.93,0,0,0-.92-.62,3.14,3.14,0,0,0-2.36,0,2.56,2.56,0,0,0-.91.63,2.81,2.81,0,0,0-.6.93,3.28,3.28,0,0,0-.26,1.13h5.94A3.65,3.65,0,0,0,107.47,249.47Z"/><path class="cls-1" d="M118.62,256.11a4.76,4.76,0,0,1-2.92.88,5.39,5.39,0,0,1-2.15-.4,4.22,4.22,0,0,1-1.53-1.12,4.62,4.62,0,0,1-.93-1.72,8,8,0,0,1-.35-2.18,6.2,6.2,0,0,1,.36-2.16,5,5,0,0,1,1-1.7,4.4,4.4,0,0,1,1.54-1.12,4.63,4.63,0,0,1,1.95-.4,4.25,4.25,0,0,1,2.29.57,4.6,4.6,0,0,1,1.46,1.45,5.76,5.76,0,0,1,.76,1.92,8.56,8.56,0,0,1,.17,2h-7.74a3.94,3.94,0,0,0,.16,1.29,3,3,0,0,0,.58,1.08,2.82,2.82,0,0,0,1,.75,3.62,3.62,0,0,0,1.46.28,3,3,0,0,0,1.77-.5,2.45,2.45,0,0,0,.91-1.52h1.68A4.17,4.17,0,0,1,118.62,256.11Zm-.41-6.64a3,3,0,0,0-.62-.93,2.93,2.93,0,0,0-.92-.62,3.14,3.14,0,0,0-2.36,0,2.56,2.56,0,0,0-.91.63,2.66,2.66,0,0,0-.6.93,3.28,3.28,0,0,0-.26,1.13h5.94A3.65,3.65,0,0,0,118.21,249.47Z"/><path class="cls-1" d="M123.84,242.49v14.28h-1.7V242.49Z"/><path class="cls-1" d="M141.2,256.73A2.46,2.46,0,0,1,140,257a1.49,1.49,0,0,1-1-.37,1.61,1.61,0,0,1-.39-1.21,4.12,4.12,0,0,1-1.63,1.21,5.52,5.52,0,0,1-2,.37,5.7,5.7,0,0,1-1.33-.16,3.22,3.22,0,0,1-1.09-.5,2.45,2.45,0,0,1-.73-.89,3.51,3.51,0,0,1,0-2.77,2.5,2.5,0,0,1,.79-.91,3.41,3.41,0,0,1,1.12-.53q.63-.18,1.29-.3a11.4,11.4,0,0,1,1.33-.21,9,9,0,0,0,1.11-.2,2,2,0,0,0,.76-.38,1,1,0,0,0,.28-.73,1.66,1.66,0,0,0-.21-.9,1.42,1.42,0,0,0-.54-.52,2.22,2.22,0,0,0-.74-.24,5.73,5.73,0,0,0-.81-.06,3.53,3.53,0,0,0-1.8.41,1.74,1.74,0,0,0-.78,1.55h-1.7a3.58,3.58,0,0,1,.4-1.62,3,3,0,0,1,1-1.07,3.85,3.85,0,0,1,1.37-.59,7.19,7.19,0,0,1,1.65-.18,9.29,9.29,0,0,1,1.39.1,3.67,3.67,0,0,1,1.25.4,2.5,2.5,0,0,1,.9.87,2.87,2.87,0,0,1,.34,1.46v5.31a3.8,3.8,0,0,0,.07.88c0,.18.2.28.47.28a2.28,2.28,0,0,0,.52-.08Zm-2.76-5.3a2.31,2.31,0,0,1-.84.34,9.18,9.18,0,0,1-1.09.18l-1.15.16a4.25,4.25,0,0,0-1,.29,1.79,1.79,0,0,0-.75.57,1.53,1.53,0,0,0-.29,1,1.31,1.31,0,0,0,.17.71,1.41,1.41,0,0,0,.44.47,2,2,0,0,0,.63.26,3.69,3.69,0,0,0,.76.08,4.1,4.1,0,0,0,1.44-.23,3.3,3.3,0,0,0,1-.58,2.24,2.24,0,0,0,.56-.76,1.87,1.87,0,0,0,.18-.76Z"/><path class="cls-1" d="M144.38,246.43v1.64h0a3.55,3.55,0,0,1,3.36-1.88,4.45,4.45,0,0,1,1.7.28,2.69,2.69,0,0,1,1.1.78,3,3,0,0,1,.59,1.19,6.57,6.57,0,0,1,.17,1.53v6.8h-1.7v-7a1.94,1.94,0,0,0-2.1-2.08,3.46,3.46,0,0,0-1.35.24,2.44,2.44,0,0,0-.95.68,2.66,2.66,0,0,0-.57,1,4.06,4.06,0,0,0-.19,1.29v5.84h-1.7V246.43Z"/><path class="cls-1" d="M161.44,256.77v-1.4h0a2.54,2.54,0,0,1-1.32,1.24,5.1,5.1,0,0,1-2,.38,4.7,4.7,0,0,1-2.09-.44,4.32,4.32,0,0,1-1.48-1.18,5.12,5.12,0,0,1-.89-1.72,7.12,7.12,0,0,1-.3-2.08,7,7,0,0,1,.29-2.08,4.63,4.63,0,0,1,.88-1.71,4.05,4.05,0,0,1,1.48-1.16,4.64,4.64,0,0,1,2.07-.43,4.51,4.51,0,0,1,.86.08,4.16,4.16,0,0,1,.92.27,3.83,3.83,0,0,1,.87.5,2.7,2.7,0,0,1,.69.77h0v-5.32h1.7v14.28Zm-6.11-3.67a3.67,3.67,0,0,0,.58,1.23,2.88,2.88,0,0,0,1,.86,3,3,0,0,0,1.43.32,3,3,0,0,0,1.46-.34,3.1,3.1,0,0,0,1-.89,4,4,0,0,0,.55-1.25,6.2,6.2,0,0,0,.17-1.42,5.92,5.92,0,0,0-.18-1.47,3.58,3.58,0,0,0-.57-1.25,2.94,2.94,0,0,0-1-.87,3.19,3.19,0,0,0-1.5-.33,2.87,2.87,0,0,0-1.46.34,2.59,2.59,0,0,0-1,.9,3.75,3.75,0,0,0-.52,1.28,6.58,6.58,0,0,0-.16,1.48A5.16,5.16,0,0,0,155.33,253.1Z"/><path class="cls-1" d="M173.12,242.49v14.28h-1.7V242.49Z"/><path class="cls-1" d="M175.52,249.48a4.67,4.67,0,0,1,1-1.72,4.39,4.39,0,0,1,1.58-1.15,5.79,5.79,0,0,1,4.33,0,4.53,4.53,0,0,1,1.57,1.15,5,5,0,0,1,1,1.72,7.22,7.22,0,0,1,0,4.25,5.12,5.12,0,0,1-1,1.71,4.64,4.64,0,0,1-1.57,1.14,5.92,5.92,0,0,1-4.33,0,4.49,4.49,0,0,1-1.58-1.14,4.79,4.79,0,0,1-1-1.71,7.22,7.22,0,0,1,0-4.25Zm1.73,3.8a3.38,3.38,0,0,0,.69,1.22,3.07,3.07,0,0,0,1,.75,3.11,3.11,0,0,0,1.25.26,3.15,3.15,0,0,0,1.25-.26,3.29,3.29,0,0,0,1-.75,3.7,3.7,0,0,0,.69-1.22,5.38,5.38,0,0,0,.25-1.67,5.29,5.29,0,0,0-.25-1.67,3.65,3.65,0,0,0-.69-1.23,2.91,2.91,0,0,0-1-.76,3,3,0,0,0-1.25-.26A3,3,0,0,0,179,248a2.74,2.74,0,0,0-1,.76,3.34,3.34,0,0,0-.69,1.23,5,5,0,0,0-.25,1.67A5.1,5.1,0,0,0,177.25,253.28Z"/><path class="cls-1" d="M187,249.48a4.67,4.67,0,0,1,1-1.72,4.39,4.39,0,0,1,1.58-1.15,5.79,5.79,0,0,1,4.33,0,4.53,4.53,0,0,1,1.57,1.15,5,5,0,0,1,1,1.72,7.22,7.22,0,0,1,0,4.25,5.12,5.12,0,0,1-1,1.71,4.64,4.64,0,0,1-1.57,1.14,5.92,5.92,0,0,1-4.33,0,4.49,4.49,0,0,1-1.58-1.14,4.79,4.79,0,0,1-1-1.71,7.22,7.22,0,0,1,0-4.25Zm1.73,3.8a3.38,3.38,0,0,0,.69,1.22,3.07,3.07,0,0,0,1,.75,3.11,3.11,0,0,0,1.25.26,3.15,3.15,0,0,0,1.25-.26,3.29,3.29,0,0,0,1-.75,3.7,3.7,0,0,0,.69-1.22,5.38,5.38,0,0,0,.25-1.67,5.29,5.29,0,0,0-.25-1.67,3.65,3.65,0,0,0-.69-1.23,2.91,2.91,0,0,0-1-.76,3,3,0,0,0-1.25-.26,3,3,0,0,0-1.25.26,2.74,2.74,0,0,0-1,.76,3.34,3.34,0,0,0-.69,1.23,5,5,0,0,0-.25,1.67A5.1,5.1,0,0,0,188.73,253.28Z"/><path class="cls-1" d="M200.52,242.49V251l4.72-4.52h2.28l-4.1,3.76,4.4,6.58h-2.16l-3.54-5.4-1.6,1.48v3.92h-1.7V242.49Z"/><path class="cls-1" d="M218.72,258.15a12.27,12.27,0,0,1-.59,1.28,3.93,3.93,0,0,1-.64.85,2.29,2.29,0,0,1-.78.48,3,3,0,0,1-1,.15c-.2,0-.4,0-.6,0a3.51,3.51,0,0,1-.58-.14v-1.56a3.37,3.37,0,0,0,.51.17,2.5,2.5,0,0,0,.49.07,1.54,1.54,0,0,0,.87-.25,1.61,1.61,0,0,0,.53-.71l.7-1.74-4.1-10.28h1.92l3,8.46h0l2.9-8.46h1.8Z"/><path class="cls-1" d="M224.42,249.48a4.67,4.67,0,0,1,1-1.72,4.39,4.39,0,0,1,1.58-1.15,5.79,5.79,0,0,1,4.33,0,4.53,4.53,0,0,1,1.57,1.15,5,5,0,0,1,1,1.72,7.22,7.22,0,0,1,0,4.25,5.12,5.12,0,0,1-1,1.71,4.64,4.64,0,0,1-1.57,1.14,5.92,5.92,0,0,1-4.33,0,4.49,4.49,0,0,1-1.58-1.14,4.79,4.79,0,0,1-1-1.71,7.22,7.22,0,0,1,0-4.25Zm1.73,3.8a3.38,3.38,0,0,0,.69,1.22,3.07,3.07,0,0,0,1,.75,3.11,3.11,0,0,0,1.25.26,3.15,3.15,0,0,0,1.25-.26,3.29,3.29,0,0,0,1-.75,3.7,3.7,0,0,0,.69-1.22,5.38,5.38,0,0,0,.25-1.67,5.29,5.29,0,0,0-.25-1.67,3.65,3.65,0,0,0-.69-1.23,2.91,2.91,0,0,0-1-.76,3,3,0,0,0-1.25-.26,3,3,0,0,0-1.25.26,2.74,2.74,0,0,0-1,.76,3.34,3.34,0,0,0-.69,1.23,5,5,0,0,0-.25,1.67A5.1,5.1,0,0,0,226.15,253.28Z"/><path class="cls-1" d="M243.1,256.77v-1.64h0a3.47,3.47,0,0,1-1.38,1.41,4.13,4.13,0,0,1-2,.45,4.62,4.62,0,0,1-1.7-.27,2.7,2.7,0,0,1-1.1-.77,2.9,2.9,0,0,1-.59-1.19,6.08,6.08,0,0,1-.17-1.53v-6.8h1.7v7a2,2,0,0,0,.56,1.52,2.08,2.08,0,0,0,1.54.56,3.46,3.46,0,0,0,1.35-.24,2.62,2.62,0,0,0,1-.68,3.14,3.14,0,0,0,.57-1,4.47,4.47,0,0,0,.19-1.29v-5.84h1.7v10.34Z"/><path class="cls-1" d="M248.8,246.43v2.18h0a4.58,4.58,0,0,1,1.52-1.86,3.8,3.8,0,0,1,2.28-.56V248a4.74,4.74,0,0,0-1.74.28,2.67,2.67,0,0,0-1.16.82,3.22,3.22,0,0,0-.64,1.31,6.74,6.74,0,0,0-.2,1.77v4.6h-1.7V246.43Z"/><path class="cls-1" d="M261.24,242.49v5.34h0a2.52,2.52,0,0,1,1.32-1.25,4.93,4.93,0,0,1,2-.39,4.6,4.6,0,0,1,2.09.44,4.31,4.31,0,0,1,1.48,1.19,5.25,5.25,0,0,1,.89,1.73,7,7,0,0,1,.3,2.08,7.47,7.47,0,0,1-.29,2.08,5.13,5.13,0,0,1-.88,1.71,4.32,4.32,0,0,1-1.48,1.15,4.84,4.84,0,0,1-2.07.42,5.38,5.38,0,0,1-.85-.08,4.93,4.93,0,0,1-.93-.26,3.74,3.74,0,0,1-.87-.49,2.67,2.67,0,0,1-.69-.77h0v1.38h-1.7V242.49Zm6.11,7.61a3.88,3.88,0,0,0-.58-1.23,2.87,2.87,0,0,0-1-.86,3,3,0,0,0-1.43-.32,2.87,2.87,0,0,0-1.46.34,2.8,2.8,0,0,0-1,.89,3.46,3.46,0,0,0-.55,1.25,5.63,5.63,0,0,0-.17,1.42,6,6,0,0,0,.18,1.47,3.67,3.67,0,0,0,.57,1.25,2.85,2.85,0,0,0,1,.87,3.14,3.14,0,0,0,1.5.33,3,3,0,0,0,1.47-.34,2.83,2.83,0,0,0,.95-.9,4.05,4.05,0,0,0,.52-1.28,7.29,7.29,0,0,0,.16-1.48A5.57,5.57,0,0,0,267.35,250.1Z"/><path class="cls-1" d="M278.66,256.11a4.76,4.76,0,0,1-2.92.88,5.39,5.39,0,0,1-2.15-.4,4.22,4.22,0,0,1-1.53-1.12,4.78,4.78,0,0,1-.94-1.72,8.36,8.36,0,0,1-.34-2.18,6.2,6.2,0,0,1,.36-2.16,5,5,0,0,1,1-1.7,4.4,4.4,0,0,1,1.54-1.12,4.63,4.63,0,0,1,1.95-.4,4.25,4.25,0,0,1,2.29.57,4.6,4.6,0,0,1,1.46,1.45,5.76,5.76,0,0,1,.76,1.92,8.56,8.56,0,0,1,.17,2h-7.74a3.94,3.94,0,0,0,.16,1.29,3,3,0,0,0,.58,1.08,2.82,2.82,0,0,0,1,.75,3.62,3.62,0,0,0,1.46.28,3,3,0,0,0,1.77-.5,2.45,2.45,0,0,0,.91-1.52h1.68A4.17,4.17,0,0,1,278.66,256.11Zm-.41-6.64a2.89,2.89,0,0,0-.63-.93,2.77,2.77,0,0,0-.91-.62,3.14,3.14,0,0,0-2.36,0,2.56,2.56,0,0,0-.91.63,2.66,2.66,0,0,0-.6.93,3.28,3.28,0,0,0-.26,1.13h5.94A3.65,3.65,0,0,0,278.25,249.47Z"/><path class="cls-1" d="M283.38,254.46a1.87,1.87,0,0,0,.63.62,3,3,0,0,0,.87.33,5.69,5.69,0,0,0,1,.1,6.38,6.38,0,0,0,.84-.06,3.24,3.24,0,0,0,.8-.22,1.62,1.62,0,0,0,.62-.47,1.26,1.26,0,0,0,.24-.79,1.13,1.13,0,0,0-.5-1,4.25,4.25,0,0,0-1.25-.55c-.5-.14-1-.27-1.63-.38a9.55,9.55,0,0,1-1.64-.48,3.51,3.51,0,0,1-1.25-.87,2.3,2.3,0,0,1-.5-1.56,2.42,2.42,0,0,1,.36-1.34,2.77,2.77,0,0,1,.89-.91,4,4,0,0,1,1.24-.52,5.49,5.49,0,0,1,1.38-.17,8.26,8.26,0,0,1,1.62.15,3.79,3.79,0,0,1,1.31.52,2.75,2.75,0,0,1,.91,1,3.89,3.89,0,0,1,.4,1.57H288a1.81,1.81,0,0,0-.26-.83,1.7,1.7,0,0,0-.57-.53,2.26,2.26,0,0,0-.75-.29,3.77,3.77,0,0,0-.83-.09,4.87,4.87,0,0,0-.76.06,2.56,2.56,0,0,0-.71.21,1.43,1.43,0,0,0-.53.4,1,1,0,0,0-.19.65,1,1,0,0,0,.31.73,2.41,2.41,0,0,0,.79.48,7.77,7.77,0,0,0,1.08.32l1.2.27a11,11,0,0,1,1.25.34,4.18,4.18,0,0,1,1.08.53,2.63,2.63,0,0,1,.76.83,2.45,2.45,0,0,1,.29,1.24,2.83,2.83,0,0,1-.4,1.56,3.11,3.11,0,0,1-1,1,4.39,4.39,0,0,1-1.42.53,8.45,8.45,0,0,1-1.58.15,7.21,7.21,0,0,1-1.63-.18,4,4,0,0,1-1.38-.59,3,3,0,0,1-1-1.08,3.66,3.66,0,0,1-.4-1.63h1.7A1.79,1.79,0,0,0,283.38,254.46Z"/><path class="cls-1" d="M296.5,246.43v1.5h-2.06v6.42a1.6,1.6,0,0,0,.05.48.46.46,0,0,0,.19.28.89.89,0,0,0,.39.13,5.48,5.48,0,0,0,.64,0h.79v1.5h-1.3a6.08,6.08,0,0,1-1.13-.09,1.7,1.7,0,0,1-.77-.33,1.41,1.41,0,0,1-.42-.68,3.75,3.75,0,0,1-.14-1.16v-6.58H291v-1.5h1.76v-3.1h1.7v3.1Z"/><path class="cls-1" d="M301,254.55v2.22h-2.21v-2.22Z"/><path class="cls-1" d="M41.24,266.49l5.58,14.28h-2.1l-1.56-4.3h-6l-1.6,4.3H33.58l5.56-14.28Zm1.32,8.38-2.38-6.66h0l-2.42,6.66Z"/><path class="cls-1" d="M49.74,266.49v14.28H48V266.49Z"/><path class="cls-1" d="M60.82,280.77l-2.1-8.22h0l-2.08,8.22H54.76l-3.32-10.34h1.88l2.34,8.46h0l2.08-8.46h1.86l2.16,8.46h0l2.32-8.46h1.76l-3.3,10.34Z"/><path class="cls-1" d="M76.7,280.73a2.46,2.46,0,0,1-1.22.26,1.49,1.49,0,0,1-1-.37,1.61,1.61,0,0,1-.39-1.21,4.12,4.12,0,0,1-1.63,1.21,5.52,5.52,0,0,1-2,.37,5.7,5.7,0,0,1-1.33-.16,3.31,3.31,0,0,1-1.09-.5,2.45,2.45,0,0,1-.73-.89,3.51,3.51,0,0,1,0-2.77,2.5,2.5,0,0,1,.79-.91,3.41,3.41,0,0,1,1.12-.53q.63-.18,1.29-.3a11.74,11.74,0,0,1,1.33-.21,9,9,0,0,0,1.11-.2,2,2,0,0,0,.76-.38.92.92,0,0,0,.28-.73,1.66,1.66,0,0,0-.21-.9,1.42,1.42,0,0,0-.54-.52,2.22,2.22,0,0,0-.74-.24,5.62,5.62,0,0,0-.81-.06,3.53,3.53,0,0,0-1.8.41,1.74,1.74,0,0,0-.78,1.55h-1.7a3.58,3.58,0,0,1,.4-1.62,3,3,0,0,1,1-1.07,3.85,3.85,0,0,1,1.37-.59,7.19,7.19,0,0,1,1.65-.18,9.29,9.29,0,0,1,1.39.1,3.6,3.6,0,0,1,1.25.4,2.5,2.5,0,0,1,.9.87,2.77,2.77,0,0,1,.34,1.46v5.31a3.8,3.8,0,0,0,.07.88c0,.18.2.28.47.28a2.28,2.28,0,0,0,.52-.08Zm-2.76-5.3a2.24,2.24,0,0,1-.84.34A9.18,9.18,0,0,1,72,276l-1.15.16a4.25,4.25,0,0,0-1,.29,1.79,1.79,0,0,0-.75.57,1.59,1.59,0,0,0-.29,1,1.31,1.31,0,0,0,.17.71,1.41,1.41,0,0,0,.44.47,2,2,0,0,0,.63.26,3.69,3.69,0,0,0,.76.08,4.1,4.1,0,0,0,1.44-.23,3.18,3.18,0,0,0,1-.58,2.24,2.24,0,0,0,.56-.76,1.87,1.87,0,0,0,.18-.76Z"/><path class="cls-1" d="M82.34,282.15a12.27,12.27,0,0,1-.59,1.28,3.93,3.93,0,0,1-.64.85,2.12,2.12,0,0,1-.78.48,3,3,0,0,1-1,.15c-.2,0-.4,0-.6,0a3.51,3.51,0,0,1-.58-.14v-1.56a3.37,3.37,0,0,0,.51.17,2.5,2.5,0,0,0,.49.07,1.54,1.54,0,0,0,.87-.25,1.61,1.61,0,0,0,.53-.71l.7-1.74-4.1-10.28h1.92l3,8.46h0l2.9-8.46h1.8Z"/><path class="cls-1" d="M89.58,278.46a1.87,1.87,0,0,0,.63.62,3,3,0,0,0,.88.33,5.49,5.49,0,0,0,1,.1,6.26,6.26,0,0,0,.84-.06,3.45,3.45,0,0,0,.81-.22,1.67,1.67,0,0,0,.61-.47,1.26,1.26,0,0,0,.24-.79,1.13,1.13,0,0,0-.5-1,4.25,4.25,0,0,0-1.25-.55c-.5-.14-1-.27-1.63-.38a9.43,9.43,0,0,1-1.63-.48,3.43,3.43,0,0,1-1.25-.87,2.25,2.25,0,0,1-.5-1.56,2.5,2.5,0,0,1,.35-1.34,2.7,2.7,0,0,1,.9-.91,3.92,3.92,0,0,1,1.24-.52,5.36,5.36,0,0,1,1.37-.17,8.19,8.19,0,0,1,1.62.15,3.71,3.71,0,0,1,1.31.52,2.67,2.67,0,0,1,.91,1,3.89,3.89,0,0,1,.4,1.57h-1.7a1.81,1.81,0,0,0-.26-.83,1.77,1.77,0,0,0-.56-.53,2.44,2.44,0,0,0-.75-.29,3.91,3.91,0,0,0-.83-.09,5,5,0,0,0-.77.06,2.56,2.56,0,0,0-.71.21,1.32,1.32,0,0,0-.52.4,1,1,0,0,0-.2.65,1,1,0,0,0,.31.73,2.52,2.52,0,0,0,.79.48,8.21,8.21,0,0,0,1.08.32q.6.12,1.2.27a10.47,10.47,0,0,1,1.25.34,4,4,0,0,1,1.08.53,2.63,2.63,0,0,1,.76.83,2.45,2.45,0,0,1,.29,1.24,2.91,2.91,0,0,1-.39,1.56,3.14,3.14,0,0,1-1,1,4.39,4.39,0,0,1-1.42.53A8.43,8.43,0,0,1,92,281a7.23,7.23,0,0,1-1.64-.18,4.09,4.09,0,0,1-1.38-.59,3.12,3.12,0,0,1-1-1.08,3.66,3.66,0,0,1-.4-1.63h1.7A1.89,1.89,0,0,0,89.58,278.46Z"/><path class="cls-1" d="M100.88,278.55v2.22H98.66v-2.22Z"/></svg>